<svg id="Layer_1" data-name="Layer 1" xmlns="http://www.w3.org/2000/svg" viewBox="0 0 62.09 62.09"><defs><style>.cls-1{fill:#fff;}</style></defs><title>adim-icon</title><path class="cls-1" d="M25.59,31a9.64,9.64,0,0,0,5.86,17.66L45.86,70.39a.44.44,0,0,0,.3.2l5.36,1a.46.46,0,0,0,.52-.33L53.5,66a.43.43,0,0,0-.06-.38l-2.25-3.41a.46.46,0,0,0-.63-.12l-1.78,1.17-2.05-3.09L48.51,59a.45.45,0,0,0,.13-.63l-3.08-4.66a.45.45,0,0,0-.63-.13l-1.78,1.18-2.32-3.51,2.38-1.58a.45.45,0,0,0,.12-.63l-3.79-5.75A9.63,9.63,0,0,0,25.59,31ZM33.9,43.53A5.45,5.45,0,1,1,35.45,36,5.46,5.46,0,0,1,33.9,43.53Z" transform="translate(-8.19 -19.65)"/><path class="cls-1" d="M39.24,81.74a31,31,0,1,1,31-31A31.08,31.08,0,0,1,39.24,81.74Zm0-58.09a27,27,0,1,0,27,27.05A27.08,27.08,0,0,0,39.24,23.65Z" transform="translate(-8.19 -19.65)"/></svg>