<svg id="Layer_1" data-name="Layer 1" xmlns="http://www.w3.org/2000/svg" viewBox="0 0 18.02 16.98"><defs><style>.cls-1{fill:#716d6d;}</style></defs><title>calendar</title><g id="Group_1193" data-name="Group 1193"><path id="Path_508" data-name="Path 508" class="cls-1" d="M384.33,270.63v11.58a.34.34,0,0,1-.32.36H366.64a.34.34,0,0,1-.32-.36V270.63Zm-14.41,2v2h1.79v-2Zm6.29,2v-2h-1.78v2Zm4.51,0v-2h-1.78v2Zm-9,2h-1.79v2h1.79Zm4.51,0h-1.79v2h1.79Zm2.72,2h1.78v-2h-1.78Z" transform="translate(-366.31 -265.59)"/><path id="Path_509" data-name="Path 509" class="cls-1" d="M366.31,269.57V266a.35.35,0,0,1,.33-.36H384a.35.35,0,0,1,.33.36v3.62Z" transform="translate(-366.31 -265.59)"/></g></svg>