<svg id="Layer_1" data-name="Layer 1" xmlns="http://www.w3.org/2000/svg" viewBox="0 0 21.18 21.17"><defs><style>.cls-1{fill:#716d6d;}</style></defs><title>clock</title><path class="cls-1" d="M404.37,263.15A10.59,10.59,0,1,0,415,273.73,10.6,10.6,0,0,0,404.37,263.15Zm0,19.17a8.59,8.59,0,1,1,8.59-8.59A8.6,8.6,0,0,1,404.37,282.32Z" transform="translate(-393.78 -263.15)"/><path class="cls-1" d="M409.05,278.05a1,1,0,0,1-1.37.33l-4.35-2.69h0a.87.87,0,0,1-.21-.17.66.66,0,0,1-.12-.17.92.92,0,0,1-.15-.51V268.1a1,1,0,0,1,2,0v6.17l3.89,2.41A1,1,0,0,1,409.05,278.05Z" transform="translate(-393.78 -263.15)"/></svg>