<?xml version="1.0" encoding="utf-8"?>
<!-- Generator: Adobe Illustrator 23.0.3, SVG Export Plug-In . SVG Version: 6.00 Build 0)  -->
<svg version="1.1" id="Layer_1" xmlns="http://www.w3.org/2000/svg" xmlns:xlink="http://www.w3.org/1999/xlink" x="0px" y="0px"
	 viewBox="0 0 81.4 119.3" style="enable-background:new 0 0 81.4 119.3;" xml:space="preserve">
<style type="text/css">
	.st0{fill:#FFFFFF;}
</style>
<g>
	<path class="st0" d="M44.9,48.4h3.9c1.3,0,2.5,0.4,3.5,1.3c2.2-0.3,4.5-1,6.3-1.8c0.4-0.7,0.8-1.3,1.3-1.9V37c0-2.1,0.8-4,2.2-5.4
		c-1.8-10.4-11-18.4-21.8-18.4s-20,7.9-21.8,18.4c1.4,1.4,2.2,3.3,2.2,5.4v8.9c3.8,7.1,11.1,11.8,19.6,11.8h0.1
		c-0.7-1-1.3-2.2-1.3-3.5C39.1,50.9,41.7,48.4,44.9,48.4z"/>
	<path class="st0" d="M55.1,64.9H28.4c-8.6,0-26.2,8.8-26.2,19.5v31.9h76.6V84.5C78.8,73.6,63.5,64.9,55.1,64.9z"/>
	<path class="st0" d="M12.5,51.8h0.3c2.8,0,4.9-2.2,4.9-4.9V37c0-1.9-1.1-3.6-2.8-4.5C15.6,19.2,26.5,8.7,40,8.7
		s24.6,10.6,25.3,23.9c-1.7,0.8-2.8,2.5-2.8,4.5v9.9c0,0.7,0.1,1.3,0.4,1.8c-2.9,2.1-7.1,3.5-11.7,3.9c-0.6-0.8-1.4-1.4-2.5-1.4
		h-3.9c-1.7,0-2.9,1.4-2.9,2.9c0,1.5,1.3,2.9,2.9,2.9h3.9c1.1,0,2.1-0.7,2.6-1.5c5.4-0.4,10.2-2.1,13.5-4.6c0.7,0.6,1.7,0.8,2.6,0.8
		h0.3c4.7,0.6,5.7-17.9,2.1-19.2C69.2,16.9,56.2,4.2,40.2,4.2S11.1,16.7,10.4,32.6C7.2,34.3,8.5,52.6,12.5,51.8z"/>
</g>
</svg>
