<svg id="Layer_1" data-name="Layer 1" xmlns="http://www.w3.org/2000/svg" viewBox="0 0 6.82 12.06"><defs><style>.cls-1{fill:#c2c1c0;}</style></defs><title>drag-handle</title><g id="Group_1062" data-name="Group 1062"><g id="Ellipse_136" data-name="Ellipse 136"><path class="cls-1" d="M49.42,37.77a1.32,1.32,0,0,0,0,1.46,1.27,1.27,0,0,1,0-1.46Z" transform="translate(-45 -37.19)"/><path class="cls-1" d="M51.82,38.5a1.31,1.31,0,1,1-2.4-.73,1,1,0,0,1,.16-.19l.19-.17a1.34,1.34,0,0,1,.74-.22,1.31,1.31,0,0,1,.73.22l.2.17A1.31,1.31,0,0,1,51.82,38.5Z" transform="translate(-45 -37.19)"/></g><g id="Ellipse_141" data-name="Ellipse 141"><path class="cls-1" d="M47.62,38.5a1.31,1.31,0,1,1-2.24-.92l.2-.17a1.31,1.31,0,0,1,.73-.22,1.43,1.43,0,0,1,.74.22l.19.17A1.31,1.31,0,0,1,47.62,38.5Z" transform="translate(-45 -37.19)"/></g><g id="Ellipse_137" data-name="Ellipse 137"><path class="cls-1" d="M49.2,43.22a1.31,1.31,0,0,0,.22.73,1.24,1.24,0,0,1-.23-.73,1.27,1.27,0,0,1,.23-.74A1.34,1.34,0,0,0,49.2,43.22Z" transform="translate(-45 -37.19)"/><path class="cls-1" d="M51.82,43.22a1.31,1.31,0,1,1-2.62,0,1.34,1.34,0,0,1,.22-.74,1.33,1.33,0,0,1,1.09-.57A1.31,1.31,0,0,1,51.82,43.22Z" transform="translate(-45 -37.19)"/></g><g id="Ellipse_140" data-name="Ellipse 140"><circle class="cls-1" cx="1.31" cy="6.03" r="1.31"/></g><g id="Ellipse_138" data-name="Ellipse 138"><path class="cls-1" d="M49.2,47.94a1.31,1.31,0,0,0,.22.73,1.24,1.24,0,0,1-.23-.73,1.27,1.27,0,0,1,.23-.74A1.34,1.34,0,0,0,49.2,47.94Z" transform="translate(-45 -37.19)"/><path class="cls-1" d="M51.82,47.94a1.31,1.31,0,1,1-2.62,0,1.34,1.34,0,0,1,.22-.74,1.33,1.33,0,0,1,1.09-.57A1.31,1.31,0,0,1,51.82,47.94Z" transform="translate(-45 -37.19)"/></g><g id="Ellipse_139" data-name="Ellipse 139"><circle class="cls-1" cx="1.31" cy="10.75" r="1.31"/></g></g></svg>