<svg id="Layer_1" data-name="Layer 1" xmlns="http://www.w3.org/2000/svg" viewBox="0 0 24.23 24"><defs><style>.cls-1{fill:#fff;}</style></defs><title>edit</title><g id="edit"><path id="Path_484" data-name="Path 484" class="cls-1" d="M48.73,44.32H32.61a2.44,2.44,0,0,1-2.44-2.44V25.77a2.44,2.44,0,0,1,2.44-2.44H44A1.09,1.09,0,1,1,44,25.5H32.61a.27.27,0,0,0-.27.27h0V41.89a.27.27,0,0,0,.27.27H48.73a.27.27,0,0,0,.27-.27h0V31.67a1.09,1.09,0,1,1,2.17-.07V41.89a2.45,2.45,0,0,1-2.44,2.43Z" transform="translate(-30.17 -20.32)"/><path id="Path_485" data-name="Path 485" class="cls-1" d="M41.17,36.31l-3.93,1.44a.18.18,0,0,1-.22-.11.13.13,0,0,1,0-.12l1.5-3.73a.54.54,0,0,1,.1-.16l13-13.2a.42.42,0,0,1,.57,0l2.12,2a.4.4,0,0,1,0,.57h0L41.35,36.19A.57.57,0,0,1,41.17,36.31Z" transform="translate(-30.17 -20.32)"/></g></svg>