<svg id="Layer_1" data-name="Layer 1" xmlns="http://www.w3.org/2000/svg" viewBox="0 0 77.07 160"><defs><style>.cls-1{fill:#fff;}</style></defs><title>finances</title><path class="cls-1" d="M88.06,105.48c0,15.26-10.94,27.72-28,31.79a3,3,0,0,0-2.54,3v17.81a8.47,8.47,0,0,1-8.4,8.39H47.62a8.47,8.47,0,0,1-8.4-8.39v-16a2.94,2.94,0,0,0-3-3.06,96.66,96.66,0,0,1-17-3.3A10.84,10.84,0,0,1,12,123l.26-.77a10.39,10.39,0,0,1,10.17-7.63,17.47,17.47,0,0,1,3.56.51,55.24,55.24,0,0,0,18.32,3c9.66,0,15.77-3.81,15.77-9.92S55,98.35,42.27,94C27.77,89.2,11,81.06,11,62c.25-16,11.44-27.73,29.25-31.54V15.68A9.12,9.12,0,0,1,49.4,6.52a8.28,8.28,0,0,1,6.36,2.8,9.07,9.07,0,0,1,2.54,6.36V26.11a2.94,2.94,0,0,0,3.05,3.05,68.28,68.28,0,0,1,12.21,2,10.59,10.59,0,0,1,7.38,13A10.3,10.3,0,0,1,71,51.8a12.4,12.4,0,0,1-3-.51,50,50,0,0,0-15-2c-8.91,0-14,3.31-14,8.9,0,5.09,4.83,8.4,20.09,14.25C79.67,80,88.06,89.45,88.06,105.48Z" transform="translate(-10.99 -6.52)"/></svg>