<?xml version="1.0" encoding="utf-8"?>
<!-- Generator: Adobe Illustrator 23.0.3, SVG Export Plug-In . SVG Version: 6.00 Build 0)  -->
<svg version="1.1" id="Layer_1" xmlns="http://www.w3.org/2000/svg" xmlns:xlink="http://www.w3.org/1999/xlink" x="0px" y="0px"
	 viewBox="0 0 309 316.3" style="enable-background:new 0 0 309 316.3;" xml:space="preserve">
<style type="text/css">
	.st0{fill-rule:evenodd;clip-rule:evenodd;fill:#FFFFFF;}
	.st1{fill:#FFFFFF;}
</style>
<g>
	<path class="st0" d="M252,169v94c0,5-4,9-10,9h-28.4c-8,0-14.5-6.5-14.5-14.5v-64.1c0-9.3-7.5-16.8-16.8-16.8h-55.6
		c-9.3,0-16.8,7.5-16.8,16.8v64.1c0,8-6.5,14.5-14.5,14.5H67c-6,0-10-4-10-9v-94l97-97L252,169z"/>
	<path class="st1" d="M31,169c-10,10-26-5-16-15L147,22c4-4,11-4,15,0l132,132c10,10-6,25-16,15L154,45L31,169z"/>
</g>
</svg>
