<svg id="Icons" xmlns="http://www.w3.org/2000/svg" viewBox="0 0 320.2927 260.0551"><defs><style>.cls-1{fill:#fff;}.cls-2{fill-rule:evenodd;}.cls-3{isolation:isolate;}.cls-4{fill:#231f20;}</style></defs><path d="M292.4028,221.6182h-6.38a5.0872,5.0872,0,0,1,.04.68h.65l-.65.07a5.5764,5.5764,0,0,1-.22,1.45,5.3129,5.3129,0,0,1-.49,1.15.8629.8629,0,0,1,.33.68.9005.9005,0,0,1-.9.89.8736.8736,0,0,1-.55-.19,5.3613,5.3613,0,0,1-1.72,1.03,5.1425,5.1425,0,0,1-1.31.29,2.4477,2.4477,0,0,0,2.4,2.02h6.25l1.76,1.96a.275.275,0,0,0,.42,0l2.65-3.56a2.3225,2.3225,0,0,0,.16-.84v-3.19A2.4434,2.4434,0,0,0,292.4028,221.6182Zm-4.66,4.92a.89.89,0,1,1,0-1.78.89.89,0,1,1,0,1.78Zm2.97,0a.89.89,0,1,1,.89-.89A.8942.8942,0,0,1,290.7128,226.5382Z" transform="translate(-4.4232 -4.8525)"/><path class="cls-1" d="M280.8553,228.3285a5.92,5.92,0,0,1-4.2109-1.7265,5.8945,5.8945,0,1,1,8.7422-7.8858,5.3473,5.3473,0,0,1,.9218,1.583,6.07,6.07,0,0,1,.3536,1.3819c.0117.082.0205.164.0273.248h.168l.0527.9971-.2275.0244a5.9922,5.9922,0,0,1-.2149,1.1367,5.8206,5.8206,0,0,1-.539,1.2637,5.6038,5.6038,0,0,1-1.2237,1.5059,5.8513,5.8513,0,0,1-1.8789,1.123,5.6759,5.6759,0,0,1-1.4443.3184.5245.5245,0,0,1-.1748.02C281.1375,228.3276,281.0018,228.3276,280.8553,228.3285Zm-.0381-10.79a4.8951,4.8951,0,1,0,.04,9.79c.0283-.0009.0478,0,.0722,0,.0782,0,.1592-.0009.2286-.0078l.1552-.02a4.628,4.628,0,0,0,1.1826-.2646,4.8345,4.8345,0,0,0,1.5518-.9327,4.6268,4.6268,0,0,0,1.0127-1.248,4.8616,4.8616,0,0,0,.4482-1.05,5.05,5.05,0,0,0,.1983-1.3115v-.0645a4.5063,4.5063,0,0,0-.0352-.6123,5.0855,5.0855,0,0,0-.3-1.166,4.38,4.38,0,0,0-.76-1.3027A4.83,4.83,0,0,0,280.8172,217.5385Z" transform="translate(-4.4232 -4.8525)"/><g id="Group_1908" data-name="Group 1908"><path d="M170.9338,129.5239c0,2.4-1.8516,4.7319-3.5661,4.7319a2.7227,2.7227,0,0,1-1.6974-.6772V133.57a5.7541,5.7541,0,0,0-1.6887-2.7346h-.0086a5.1964,5.1964,0,0,1-.1714-1.3115,3.3967,3.3967,0,0,1,0-.5915,3.6015,3.6015,0,0,1,3.8575-3.3518A3.6406,3.6406,0,0,1,170.9338,129.5239Z" transform="translate(-4.4232 -4.8525)"/><path d="M174.1312,140.6079c-.3514.6943-1.2087.9858-3.5746,1.2772a28.3257,28.3257,0,0,1-6.3778,0c-1.8174-.2228-2.7518-.4457-3.24-.8486a5.9054,5.9054,0,0,0,4.9376-5.3577,2.4838,2.4838,0,0,0,1.4916.4029c1.2429,0,1.2773-.4629,2.0573-.6344a3.5811,3.5811,0,0,1,2.9917.96,6.8348,6.8348,0,0,1,1.3287,1.9374C173.96,138.782,174.4141,140.0592,174.1312,140.6079Z" transform="translate(-4.4232 -4.8525)"/></g><path d="M159.9754,130.12a5.0726,5.0726,0,1,0,5.0725,5.0726A5.0729,5.0729,0,0,0,159.9754,130.12Zm2.501,5.7315h-1.8421v1.8351a.659.659,0,1,1-1.3179,0v-1.8351h-1.8351a.6589.6589,0,0,1,0-1.3178h1.8351v-1.8351a.659.659,0,0,1,1.3179,0v1.8351h1.8421a.6589.6589,0,0,1,0,1.3178Z" transform="translate(-4.4232 -4.8525)"/><g id="Group_1908-2" data-name="Group 1908"><path d="M321.4283,130.2838c0,2.4-1.8516,4.7319-3.5661,4.7319a2.7227,2.7227,0,0,1-1.6973-.6772V134.33a5.7546,5.7546,0,0,0-1.6887-2.7346h-.0086a5.1914,5.1914,0,0,1-.1715-1.3115,3.4165,3.4165,0,0,1,0-.5915,3.6014,3.6014,0,0,1,3.8576-3.3517A3.64,3.64,0,0,1,321.4283,130.2838Z" transform="translate(-4.4232 -4.8525)"/><path d="M324.6258,141.3678c-.3515.6944-1.2087.9858-3.5747,1.2773a28.3375,28.3375,0,0,1-6.3778,0c-1.8173-.2229-2.7517-.4458-3.24-.8487a5.9054,5.9054,0,0,0,4.9376-5.3577,2.4838,2.4838,0,0,0,1.4916.4029c1.243,0,1.2773-.4629,2.0574-.6344a3.5814,3.5814,0,0,1,2.9917.96,6.8369,6.8369,0,0,1,1.3287,1.9374C324.4543,139.5419,324.9087,140.8192,324.6258,141.3678Z" transform="translate(-4.4232 -4.8525)"/></g><path d="M310.4651,130.8768a5.075,5.075,0,1,0,5.08,5.08A5.0722,5.0722,0,0,0,310.4651,130.8768Zm2.98,8.15a.3086.3086,0,0,1-.3.25,6.0176,6.0176,0,0,1-6.01-6.02.3.3,0,0,1,.24-.3l1.35-.31a.3.3,0,0,1,.35.18l.62,1.45a.306.306,0,0,1-.08.36l-.79.65a4.8018,4.8018,0,0,0,2.3,2.3l.64-.79a.3089.3089,0,0,1,.36-.09l1.46.62a.311.311,0,0,1,.17.36Z" transform="translate(-4.4232 -4.8525)"/><path d="M80.3916,14.3654,74.9962,9.5586a.7063.7063,0,1,0-.94,1.0548l4.0875,3.64H70.362a.7048.7048,0,0,0,0,1.41h7.7821l-4.0875,3.64a.7063.7063,0,1,0,.94,1.0548l5.3954-4.8068A.7936.7936,0,0,0,80.3916,14.3654Z" transform="translate(-4.4232 -4.8525)"/><path d="M142.7186,160.1878l-7.7552,8.7048a1.2805,1.2805,0,0,1-1.9122,0l-7.7551-8.7048a1.1394,1.1394,0,0,1,.0948-1.6106h0a1.1394,1.1394,0,0,1,1.607.0948l7.0094,7.8714,7.01-7.8714a1.1394,1.1394,0,0,1,1.607-.0948h0A1.1394,1.1394,0,0,1,142.7186,160.1878Z" transform="translate(-4.4232 -4.8525)"/><path d="M293.163,80.3161v.4521a.7288.7288,0,0,1-.7662.6743H277.9293a.7289.7289,0,0,1-.7663-.6743v-.4521a.7629.7629,0,0,1,.8583-.6744c.0076-1.1954.0076-2.3908.0153-3.5938.023-3.31.3831-6.95,4.3984-8.3985a2.7219,2.7219,0,0,1,2.72-1.9234h.0153a2.7217,2.7217,0,0,1,2.72,1.9234c4.0154,1.4483,4.3755,5.0881,4.3985,8.3985.0077,1.203.0077,2.3984.0153,3.5938A.7628.7628,0,0,1,293.163,80.3161Z" transform="translate(-4.4232 -4.8525)"/><path d="M287.799,82.2088a2.8127,2.8127,0,0,1-5.272,0Z" transform="translate(-4.4232 -4.8525)"/><path id="address-book" d="M234.6182,12.3768a.4548.4548,0,0,0,.458-.4481V10.405a.47.47,0,0,0-.458-.4582h-.7569V8.1343a1.8234,1.8234,0,0,0-1.8226-1.8225h-12.14a1.8234,1.8234,0,0,0-1.8225,1.8225V23.9094a1.8234,1.8234,0,0,0,1.8225,1.8225h12.14a1.8235,1.8235,0,0,0,1.8226-1.8225V22.0868h.7569a.4547.4547,0,0,0,.458-.4481V20.115a.4548.4548,0,0,0-.458-.4482h-.7569v-2.43h.7569a.4633.4633,0,0,0,.458-.4581V15.265a.4634.4634,0,0,0-.458-.4582h-.7569v-2.43Zm-8.6444-1.2149a2.4366,2.4366,0,1,1-2.43,2.43A2.4248,2.4248,0,0,1,225.9738,11.1619Zm4.2424,8.9829a.7924.7924,0,0,1-.8465.737h-6.802a.8036.8036,0,0,1-.8464-.727v-.727a2.3955,2.3955,0,0,1,2.5494-2.191,8.9764,8.9764,0,0,0,1.7031.3087,8.8743,8.8743,0,0,0,1.6929-.3087,2.3955,2.3955,0,0,1,2.5495,2.191Z" transform="translate(-4.4232 -4.8525)"/><path id="dollar-sign" d="M258.2888,14.6037l-3.7968-1.1112a1.0368,1.0368,0,0,1,.2916-2.0321h2.331a2.1445,2.1445,0,0,1,1.2023.3693.5484.5484,0,0,0,.6857-.069l1.2251-1.1964a.57.57,0,0,0-.067-.8612,4.9711,4.9711,0,0,0-3.0387-1.0543V6.9612a.5645.5645,0,0,0-.563-.5623h-1.1247a.5643.5643,0,0,0-.5623.5623V8.6488h-.0878a3.8519,3.8519,0,0,0-3.8478,3.8557q0,.1746.0162.3486a4.0213,4.0213,0,0,0,2.949,3.396l3.6,1.0542a1.0369,1.0369,0,0,1-.29,2.0308h-2.3331a2.1445,2.1445,0,0,1-1.2023-.3693.5484.5484,0,0,0-.6857.067l-1.2224,1.2a.57.57,0,0,0-.0014.8057.5762.5762,0,0,0,.0644.0555,4.9708,4.9708,0,0,0,3.0407,1.0563v1.6876a.5643.5643,0,0,0,.5623.5623h1.1247a.5643.5643,0,0,0,.5623-.5623V22.14a3.971,3.971,0,0,0,3.7157-2.5555,3.86,3.86,0,0,0-2.3617-4.9212q-.0918-.0323-.1852-.06Z" transform="translate(-4.4232 -4.8525)"/><path id="balance-scale" d="M12.02,46.8977h0c0-.48.04-.2591-2.5237-5.386a1.4255,1.4255,0,0,0-2.548,0c-2.5858,5.1706-2.5247,4.9211-2.5247,5.386h0c0,1.3111,1.7007,2.3737,3.7979,2.3737S12.02,48.2088,12.02,46.8977ZM8.2213,42.15l2.1362,4.2729H6.0851Zm15.1919,4.7478c0-.48.04-.2591-2.5238-5.386a1.4253,1.4253,0,0,0-2.5479,0c-2.5853,5.1706-2.5232,4.9211-2.5232,5.386h0c0,1.3111,1.7007,2.3737,3.798,2.3737s3.7979-1.0631,3.7979-2.3737Zm-5.9342-.4739,2.1362-4.2729,2.1362,4.2729Zm2.6112,3.798H14.8684v-8.747a2.3755,2.3755,0,0,0,1.3764-1.6986h3.8438a.4739.4739,0,0,0,.4739-.4739v-.953a.4739.4739,0,0,0-.4739-.4739H15.8072a2.3526,2.3526,0,0,0-3.7769,0H7.7469a.4739.4739,0,0,0-.4739.4739h0v.9477a.4739.4739,0,0,0,.4739.4739h3.8438a2.3755,2.3755,0,0,0,1.3785,1.7039v8.7459H7.7469a.4739.4739,0,0,0-.4739.4739v.9478a.4739.4739,0,0,0,.4739.4739H20.0907a.4739.4739,0,0,0,.4739-.4739v-.9478a.4739.4739,0,0,0-.4739-.4733Z" transform="translate(-4.4232 -4.8525)"/><path id="calculator" d="M50.3813,35.4157H37.5178a1.7994,1.7994,0,0,0-1.7548,1.7549V52.3768a1.7993,1.7993,0,0,0,1.7548,1.7549H50.3813a1.7993,1.7993,0,0,0,1.7548-1.7549V37.1706A1.7994,1.7994,0,0,0,50.3813,35.4157ZM40.4421,51.322a.5029.5029,0,0,1-.4682.4682H38.57a.5029.5029,0,0,1-.4682-.4682V49.9181A.5028.5028,0,0,1,38.57,49.45h1.4038a.5028.5028,0,0,1,.4682.4681Zm0-4.6791a.5028.5028,0,0,1-.4682.4681H38.57a.5028.5028,0,0,1-.4682-.4681V45.239a.5029.5029,0,0,1,.4682-.4682h1.4038a.5029.5029,0,0,1,.4682.4682Zm4.6785,4.6791a.5029.5029,0,0,1-.4682.4682H43.2486a.5031.5031,0,0,1-.4663-.4682V49.9181a.5029.5029,0,0,1,.4682-.4681H44.65a.5028.5028,0,0,1,.4681.4681V51.322Zm0-4.6791a.5028.5028,0,0,1-.4682.4681H43.2486a.5028.5028,0,0,1-.4682-.4681V45.239a.5029.5029,0,0,1,.4682-.4682H44.65a.5029.5029,0,0,1,.4681.4682v1.4039Zm4.6811,4.6791a.503.503,0,0,1-.4682.4682H47.9277a.5031.5031,0,0,1-.4682-.4682v-6.08a.503.503,0,0,1,.4682-.4682h1.4039a.503.503,0,0,1,.4682.4682v6.08Zm0-9.3576a.5029.5029,0,0,1-.4682.4681H38.57a.5028.5028,0,0,1-.4682-.4681V38.2228a.5028.5028,0,0,1,.4682-.4681H49.3316a.503.503,0,0,1,.4682.4681Z" transform="translate(-4.4232 -4.8525)"/><path id="calendar" d="M262.186,36.5635h-1.8518V34.5571a.4638.4638,0,0,0-.4633-.4626h-1.5424a.4639.4639,0,0,0-.4626.4626v2.0064h-4.9382V34.5571a.4639.4639,0,0,0-.46-.4626h-1.5466a.4639.4639,0,0,0-.4626.4626v2.0064h-1.8518a1.8526,1.8526,0,0,0-1.8518,1.85V51.9945a1.8526,1.8526,0,0,0,1.8518,1.8511H262.186a1.8525,1.8525,0,0,0,1.8518-1.8518v-13.58A1.8525,1.8525,0,0,0,262.186,36.5635Zm-.2313,15.431H248.8382a.2321.2321,0,0,1-.2313-.2313V40.2671H262.186V51.7625A.232.232,0,0,1,261.9547,51.9945Z" transform="translate(-4.4232 -4.8525)"/><path id="truck-solid" d="M82.0349,46.8534h-.45v-3.04a1.35,1.35,0,0,0-.3966-.9534l-2.81-2.81a1.35,1.35,0,0,0-.9534-.3966h-1.24v-1.35a1.35,1.35,0,0,0-1.35-1.35h-9a1.35,1.35,0,0,0-1.35,1.35v9a1.35,1.35,0,0,0,1.35,1.35h.45a2.7,2.7,0,0,0,5.4,0h3.6a2.7,2.7,0,0,0,5.4,0h1.35a.4513.4513,0,0,0,.45-.45v-.9A.4513.4513,0,0,0,82.0349,46.8534Zm-13.05,3.15a1.35,1.35,0,1,1,1.35-1.35A1.35,1.35,0,0,1,68.9849,50.0034Zm9,0a1.35,1.35,0,1,1,1.35-1.35A1.35,1.35,0,0,1,77.9849,50.0034Zm2.25-5.85h-4.05v-3.15h1.24l2.81,2.81Z" transform="translate(-4.4232 -4.8525)"/><g id="Group_1732" data-name="Group 1732"><g id="Group_1732-2" data-name="Group 1732-2"><path id="Path_635" data-name="Path 635" d="M231.4335,39.7155v.1226a84.1024,84.1024,0,0,0,0,11.239h0a.3021.3021,0,0,1-.06.2113,1.3539,1.3539,0,0,1-.42.4,2.5874,2.5874,0,0,1-1.3474.3418,2.615,2.615,0,0,1-1.3475-.3418,1.3812,1.3812,0,0,1-.4344-.42l.2563-.1591-.2563.1591a.2907.2907,0,0,1-.0407-.2114,84.3726,84.3726,0,0,0,0-11.2166v-.1227h3.6634Z" transform="translate(-4.4232 -4.8525)"/><path id="Path_636" data-name="Path 636" d="M234.2021,35.4393a1.5341,1.5341,0,0,1,.5863.1153v3.8673a1.53,1.53,0,0,1-.5863.1153,1.4709,1.4709,0,0,1-.8906-.301,1.5235,1.5235,0,0,1-.4826-.6269,1.3169,1.3169,0,0,0-1.6335.3748.3035.3035,0,0,1-.2488.1294c-.9162,0-1.6774-.0107-2.5872-.0406a.3017.3017,0,0,1-.1741-.0447h0c-.0075,0-1.6219-1.0282-4.053,1.136a.301.301,0,0,1-.4644-.0332c-.0407-.0556-.8981-1.31,2.7173-3.845.7347-.6269,3.5448-.6907,4.4171-.6235.3316.0075,1.3515,1.47,1.9967.79a1.4861,1.4861,0,0,1,1.4-1.01Z" transform="translate(-4.4232 -4.8525)"/><path id="Path_637" data-name="Path 637" class="cls-2" d="M221.2773,49.874V41.0107a3.3361,3.3361,0,0,0-.6791-5.5358.3221.3221,0,0,0-.1451-.0373.2993.2993,0,0,0-.3009.2977v3.0058h-2.13V35.7825a.3313.3313,0,0,0-.0332-.1451.301.301,0,0,0-.4063-.127l-.0017.001h0a3.335,3.335,0,0,0-.6127,5.5009v8.8633a2.1342,2.1342,0,0,0,.6351,1.5215,2.1559,2.1559,0,0,0,1.5216.6344,2.1674,2.1674,0,0,0,2.1568-2.1559Zm-2.1559-1.2364a.5085.5085,0,1,0,0,.0009Z" transform="translate(-4.4232 -4.8525)"/></g></g><path d="M312.13,9.4648a4.3645,4.3645,0,0,1,0-.6936,4.1764,4.1764,0,1,1,8.3221.6936c0,2.8-2.1541,5.523-4.161,5.523C314.2186,14.9878,312.13,12.2636,312.13,9.4648Zm11.6055,10.2886a8.0013,8.0013,0,0,0-1.5528-2.2572,4.1528,4.1528,0,0,0-3.4888-1.1215c-.9072.2017-.95.7362-2.4028.7362s-1.4956-.5335-2.4029-.7362a4.1535,4.1535,0,0,0-3.4887,1.1215,7.9929,7.9929,0,0,0-1.5519,2.2572c-.2527.51-.7779,2-.4522,2.6416.4127.8068,1.4167,1.1467,4.1779,1.4917a33.5555,33.5555,0,0,0,7.4375,0c2.7642-.345,3.7642-.6808,4.1779-1.4917C324.5141,21.7575,323.988,20.2638,323.7352,19.7534Z" transform="translate(-4.4232 -4.8525)"/><path id="Path_671" data-name="Path 671" d="M133.92,35.3708a9.48,9.48,0,1,0,.04,0Zm-8.0383,9.5a8.67,8.67,0,0,1,.73-3.3611,16.74,16.74,0,0,0,2.0463.5845,17.6952,17.6952,0,0,0,0,5.5573,16.7046,16.7046,0,0,0-2.0463.5845A8.67,8.67,0,0,1,125.8813,44.8708Zm4.0192,0A13.66,13.66,0,0,1,130.12,42.39c1.0231.1459,2.0462.2193,3.0694.2927V47.14a21.7974,21.7974,0,0,0-3.0694.2927A15.1024,15.1024,0,0,1,129.9005,44.8708Zm7.5261-3.9427a17.0912,17.0912,0,0,1-2.7786.2193V36.9785C135.819,37.4171,136.8421,38.9513,137.4266,40.9281Zm-4.2384-3.95v4.1679a17.772,17.772,0,0,1-2.7787-.2193C130.996,38.9513,132.0192,37.4171,133.1882,36.9785Zm0,11.6187v4.168c-1.169-.4387-2.1922-1.9729-2.7787-3.9457A17.7731,17.7731,0,0,1,133.1882,48.5972Zm1.4618,4.168v-4.168a17.7828,17.7828,0,0,1,2.7786.2193c-.5865,1.9728-1.61,3.507-2.7786,3.9457Zm0-5.6268V42.6777a21.8006,21.8006,0,0,0,3.0674-.2918,14.1918,14.1918,0,0,1,0,4.9688,21.6832,21.6832,0,0,0-3.0674-.2193Zm4.53-5.0423a16.7046,16.7046,0,0,0,2.0463-.5845,8.3876,8.3876,0,0,1,.73,3.3612,8.6694,8.6694,0,0,1-.73,3.3612A16.7224,16.7224,0,0,0,139.18,47.65a17.6988,17.6988,0,0,0,0-5.5563Zm1.3159-1.9023c-.511.1458-1.0916.2927-1.6076.4386a8.9208,8.9208,0,0,0-1.3149-2.9225A8.7008,8.7008,0,0,1,140.496,40.1938Zm-10.23-2.4849A13.5373,13.5373,0,0,0,128.95,40.63a7.6089,7.6089,0,0,1-1.6077-.4386A8.7021,8.7021,0,0,1,130.2656,37.7089Zm-2.9235,11.838c.5111-.1459,1.0916-.2928,1.6077-.4386a8.9217,8.9217,0,0,0,1.3149,2.9225A8.7022,8.7022,0,0,1,127.3421,49.5469Zm10.23,2.4809a13.544,13.544,0,0,0,1.3149-2.9225c.5845.1459,1.0916.2927,1.6076.4386a8.7014,8.7014,0,0,1-2.9225,2.4879Z" transform="translate(-4.4232 -4.8525)"/><g id="Group_2048" data-name="Group 2048"><g id="Group_1871" data-name="Group 1871"><g id="Zoom_In" data-name="Zoom In"><g id="Calendar-2" data-name="Calendar"><g id="Group_1870" data-name="Group 1870"><path id="Path_670" data-name="Path 670" d="M174.222,49.5325l-7.4207-12.85a1.7817,1.7817,0,0,0-3.3716,0l-7.4089,12.85c-.94,1.6079-.1792,2.92,1.6833,2.92H172.527C174.39,52.4527,175.15,51.14,174.222,49.5325Zm-9.9791-9.5654h1.9328v7.23h-1.9345v-7.23Zm.8726,10.4422a1.055,1.055,0,1,1,.7487-.3081A1.0551,1.0551,0,0,1,165.1155,50.4093Z" transform="translate(-4.4232 -4.8525)"/></g></g></g></g></g><path id="Path_638" data-name="Path 638" d="M203.2666,50.3951c0-.0069.0041-.0124.0041-.02V39.8513a.4632.4632,0,0,0-.4632-.4625h-5.3841V36.8982a.4639.4639,0,0,0-.4639-.4639h-9.2684a.4632.4632,0,0,0-.4632.4632v13.475c0,.0068.0034.0123.0041.02h-1.4814v.8491h19v-.8463ZM200.8205,41.08a.1862.1862,0,0,1,.1861-.1848h1.155a.1862.1862,0,0,1,.1861.1848v1.6188a.1868.1868,0,0,1-.1861.1861h-1.1529a.1867.1867,0,0,1-.1861-.1861Zm0,3.0324a.1868.1868,0,0,1,.1861-.1861h1.155a.1868.1868,0,0,1,.1861.1861V45.73a.1868.1868,0,0,1-.1861.1861h-1.1529a.1867.1867,0,0,1-.1861-.1861Zm0,3.0311a.1868.1868,0,0,1,.1861-.1861h1.155a.1868.1868,0,0,1,.1861.1861v1.6188a.1867.1867,0,0,1-.1861.1861h-1.1529a.1866.1866,0,0,1-.1861-.1861Zm-2.5-6.0635a.1861.1861,0,0,1,.1861-.1848h1.1543a.1862.1862,0,0,1,.1861.1848v1.6188a.1868.1868,0,0,1-.1861.1861h-1.155a.1868.1868,0,0,1-.1861-.1861Zm0,3.0324a.1868.1868,0,0,1,.1861-.1861h1.1543a.1868.1868,0,0,1,.1861.1861V45.73a.1868.1868,0,0,1-.1861.1861h-1.155a.1868.1868,0,0,1-.1861-.1861Zm0,3.0311a.1868.1868,0,0,1,.1861-.1861h1.1543a.1868.1868,0,0,1,.1861.1861v1.6188a.1867.1867,0,0,1-.1861.1861h-1.155a.1867.1867,0,0,1-.1861-.1861Zm-3.7263-8.9591a.186.186,0,0,1,.1855-.1861h1.4067a.186.186,0,0,1,.1854.1861V40.13a.1861.1861,0,0,1-.1854.1861h-1.404a.1861.1861,0,0,1-.1854-.1861V38.1839Zm0,4.0539a.1862.1862,0,0,1,.1855-.1847h1.4067a.1861.1861,0,0,1,.1854.1847v1.9466a.186.186,0,0,1-.1854.1861h-1.404a.186.186,0,0,1-.1854-.1861V42.2378Zm0,4.0554a.1861.1861,0,0,1,.1855-.1861h1.4067a.1861.1861,0,0,1,.1854.1861v1.9459a.1861.1861,0,0,1-.1854.1861h-1.404a.1861.1861,0,0,1-.1854-.1861V46.2932Zm-3.1576-8.1093a.1867.1867,0,0,1,.1861-.1861h1.406a.186.186,0,0,1,.1855.1861V40.13a.1861.1861,0,0,1-.1855.1861h-1.4067a.1868.1868,0,0,1-.1854-.1861Zm0,4.0539a.186.186,0,0,1,.1861-.1847h1.406a.1862.1862,0,0,1,.1855.1847v1.9466a.186.186,0,0,1-.1855.1861h-1.4067a.1867.1867,0,0,1-.1861-.1861Zm-3.1543-4.0539a.1867.1867,0,0,1,.1861-.1861h1.4027a.1867.1867,0,0,1,.1861.1861V40.13a.1868.1868,0,0,1-.1861.1861h-1.4061a.1869.1869,0,0,1-.1827-.1861Zm0,4.0539a.1862.1862,0,0,1,.1861-.1847h1.4027a.1862.1862,0,0,1,.1861.1847v1.9466a.1867.1867,0,0,1-.1861.1861h-1.4061a.1867.1867,0,0,1-.1861-.1861V42.2378Zm0,4.0554a.1868.1868,0,0,1,.1861-.1861h1.4027a.1868.1868,0,0,1,.1861.1861v1.9459a.1868.1868,0,0,1-.1861.1861h-1.4061a.1868.1868,0,0,1-.1861-.1861V46.2932Zm2.95.7342a.1861.1861,0,0,1,.1854-.1862h1.8207a.1868.1868,0,0,1,.1861.1862v3.3677h-2.19V47.0274Z" transform="translate(-4.4232 -4.8525)"/><path id="briefcase" d="M47.0859,77.5371a.562.562,0,0,1-.5614.5627H43.1483a.5621.5621,0,0,1-.5627-.5614V75.849h-6.75v5.0624a1.73,1.73,0,0,0,1.6874,1.6875H52.1483a1.73,1.73,0,0,0,1.6875-1.6875V75.849h-6.75Zm5.0624-7.3125H49.3361V68.5365a1.73,1.73,0,0,0-1.6875-1.6875h-5.625a1.73,1.73,0,0,0-1.6875,1.6875v1.6874H37.5232a1.73,1.73,0,0,0-1.6874,1.6875v2.8122h18V71.9114a1.73,1.73,0,0,0-1.6875-1.6875Zm-5.0624,0h-4.5V69.0992h4.5Z" transform="translate(-4.4232 -4.8525)"/><path id="file-alt" d="M287,40.1176V35.3361h-7.0312a.8413.8413,0,0,0-.8439.8389V52.4922a.8413.8413,0,0,0,.8388.8439h11.8172a.8414.8414,0,0,0,.8439-.8389V40.961h-4.7815A.8465.8465,0,0,1,287,40.1176Zm2.25,8.2969a.423.423,0,0,1-.4217.4216H282.922a.423.423,0,0,1-.4217-.4216v-.2816a.4229.4229,0,0,1,.4217-.4216h5.9063a.4229.4229,0,0,1,.4217.4216Zm0-2.25a.423.423,0,0,1-.4217.4217H282.922a.423.423,0,0,1-.4217-.4217v-.2815a.4229.4229,0,0,1,.4217-.4216h5.9063a.4229.4229,0,0,1,.4217.4216Zm0-2.5312v.2816a.423.423,0,0,1-.4217.4216H282.922a.423.423,0,0,1-.4217-.4216v-.2816a.4229.4229,0,0,1,.4217-.4216h5.9063A.4229.4229,0,0,1,289.25,43.6329Zm3.3751-4.0114v.2146h-4.5v-4.5h.2147a.8432.8432,0,0,1,.5977.2462l3.4434,3.4452A.8408.8408,0,0,1,292.6251,39.6215Z" transform="translate(-4.4232 -4.8525)"/><path id="book" d="M323.5743,47.9318V36.1194a.8421.8421,0,0,0-.84-.8439H311.1991a3.3762,3.3762,0,0,0-3.3749,3.3749v11.25a3.376,3.376,0,0,0,3.3749,3.3748h11.53a.842.842,0,0,0,.8439-.84v-.5647a.85.85,0,0,0-.3117-.6575,7.8438,7.8438,0,0,1,0-2.6263.838.838,0,0,0,.3117-.6538Zm-11.25-7.9451a.2113.2113,0,0,1,.2106-.2107h7.4534a.2114.2114,0,0,1,.2107.2107v.703a.2114.2114,0,0,1-.2107.2107h-7.4527a.2114.2114,0,0,1-.2107-.2107Zm0,2.25a.2113.2113,0,0,1,.2106-.2107h7.4534a.2114.2114,0,0,1,.2107.2107v.7049a.2112.2112,0,0,1-.2107.2106h-7.4527a.2112.2112,0,0,1-.2113-.2106Zm8.9087,8.7878H311.1991a1.125,1.125,0,0,1,0-2.25h10.0343a12.65,12.65,0,0,0-.0006,2.2511Z" transform="translate(-4.4232 -4.8525)"/><g id="Group_1728" data-name="Group 1728"><path id="Path_627" data-name="Path 627" d="M96.1088,47.3423a1.5256,1.5256,0,1,0,1.5256,1.5256A1.5256,1.5256,0,0,0,96.1088,47.3423Z" transform="translate(-4.4232 -4.8525)"/><path id="Path_628" data-name="Path 628" d="M100.0744,47.3423A1.5256,1.5256,0,1,0,101.6,48.8679,1.5256,1.5256,0,0,0,100.0744,47.3423Z" transform="translate(-4.4232 -4.8525)"/><path id="Path_629" data-name="Path 629" d="M110.4213,47.3423a1.5256,1.5256,0,1,0,1.5281,1.5256A1.5256,1.5256,0,0,0,110.4213,47.3423Z" transform="translate(-4.4232 -4.8525)"/><path id="Path_630" data-name="Path 630" d="M112.1861,44.9361c-.2042-.0156-.578-.0238-1.1123-.0238-.7052,0-1.5106.0138-1.8444.0207v-1.84c0-.4654-.1879-.689-.5812-.689h-.8141a4.3277,4.3277,0,0,0-.7415-1.2575,3.784,3.784,0,0,0-2.9893-1.3578.8869.8869,0,0,0-.6588.1678.7279.7279,0,0,0-.1322.5587v5.7267H95.1136a.1378.1378,0,0,0-.1371.1372v.5749a.1378.1378,0,0,0,.1371.1372h2.2a.8233.8233,0,0,1,.5636.8035.1372.1372,0,0,0,.2743,0v0c0-.6019.6482-.7027.72-.7121h2.6354c.1309.0576.7347.3939.7347,1.6847a.1371.1371,0,0,0,.1371.1371h5.6954a.1365.1365,0,0,0,.1372-.1321,2.708,2.708,0,0,1,.2943-1.0409,1.8979,1.8979,0,0,1,1.8163-1.0271,1.9182,1.9182,0,0,1,1.8268,1.0578,2.9587,2.9587,0,0,1,.3132,1.0872.1364.1364,0,0,0,.1365.1309h.5718a.1372.1372,0,0,0,.1372-.1371h0V46.53a.0194.0194,0,0,0-.0195-.0194h-.5987a.3724.3724,0,0,1,0-.7447h.5987a.0194.0194,0,0,0,.0195-.0194V45.44C113.3059,45.0225,112.8086,44.9843,112.1861,44.9361Zm-3.7289-1.4824v1.4837h-1.7479v-1.748h1.4836A.2649.2649,0,0,1,108.4572,43.4537Z" transform="translate(-4.4232 -4.8525)"/></g><rect x="89.8839" y="33.3918" width="8.0814" height="6.9989" rx="0.5567"/><path id="chart-bar" d="M20.2919,108.3669h.7874a.4837.4837,0,0,0,.4521-.4521V99.8172a.4837.4837,0,0,0-.4521-.4522h-.7874a.4837.4837,0,0,0-.4522.4522v8.1A.4838.4838,0,0,0,20.2919,108.3669Zm-6.75,0h.7874a.4838.4838,0,0,0,.4522-.4521v-6.9724a.484.484,0,0,0-.4522-.4522h-.79a.4839.4839,0,0,0-.4521.4522v6.9762a.4837.4837,0,0,0,.4521.4483Zm3.3751,0h.7848a.4838.4838,0,0,0,.4522-.4521v-4.7226a.4838.4838,0,0,0-.4522-.4521h-.7874a.4839.4839,0,0,0-.4522.4521v4.7252a.4838.4838,0,0,0,.4522.45Zm6.8625,1.6872H8.0266V98.805a.5627.5627,0,0,0-.562-.5627H6.902a.5626.5626,0,0,0-.5626.5627h0v11.8124a1.1253,1.1253,0,0,0,1.1252,1.1253H23.7768a.5626.5626,0,0,0,.5626-.5627h0v-.5626a.5626.5626,0,0,0-.5626-.5626ZM10.164,108.3669h.7881a.4839.4839,0,0,0,.4522-.4521v-2.4727a.484.484,0,0,0-.4522-.4522H10.164a.4838.4838,0,0,0-.4521.4522v2.4753A.4837.4837,0,0,0,10.164,108.3669Z" transform="translate(-4.4232 -4.8525)"/><rect x="11.4313" y="71.0292" width="7.5326" height="7.5326" rx="0.3479"/><rect x="6.4748" y="61.051" width="7.5326" height="7.5326" rx="0.3479"/><rect x="1.5183" y="71.0618" width="7.5326" height="7.5326" rx="0.3479"/><path d="M72.1243,78.1535a.5336.5336,0,0,1-.0287.21,1.7846,1.7846,0,0,1-1.7785,1.5969,1.8034,1.8034,0,0,1-1.7977-1.5969.7853.7853,0,0,1-.0191-.21,1.812,1.812,0,1,1,3.624,0Z" transform="translate(-4.4232 -4.8525)"/><path d="M84.3352,68.6775v5.087a.9979.9979,0,0,1-.9945.9849H82.1359v2.5722H80.95V74.7494H77.0488l-.0573,3.6145H72.7937a.1324.1324,0,0,1-.0669-.1147,3.7318,3.7318,0,0,0-.373-1.2814,2.5052,2.5052,0,0,0-4.3221-.0478,3.3083,3.3083,0,0,0-.3442,1.2335.1611.1611,0,0,1-.1625.1626H66.0045a1.05,1.05,0,0,1-.5354-.44.9321.9321,0,0,1-.1339-.4876V68.6775a.99.99,0,0,1,.9849-.985H83.3407A.9917.9917,0,0,1,84.3352,68.6775Z" transform="translate(-4.4232 -4.8525)"/><g id="map"><path d="M134.5175,96.1427a4.1561,4.1561,0,0,0-4.1563,4.1563c0,1.8558,2.7164,5.2381,3.7571,6.4659a.52.52,0,0,0,.7983,0c1.0407-1.2278,3.7571-4.61,3.7571-6.4659A4.1561,4.1561,0,0,0,134.5175,96.1427Zm0,5.5417a1.3855,1.3855,0,1,1,1.3854-1.3854A1.3853,1.3853,0,0,1,134.5175,101.6844Zm-8.8364,1.5817a1.0554,1.0554,0,0,0-.6636.98v8.2571a.5278.5278,0,0,0,.7237.49l4.554-2.0728v-7.6884a9.9826,9.9826,0,0,1-.7009-1.5312Zm8.8364,4.7407a1.5761,1.5761,0,0,1-1.2044-.5594c-.6485-.7653-1.3382-1.6368-1.9623-2.5307V110.92l6.3333,2.1111V104.917c-.6241.8936-1.3135,1.7654-1.9623,2.5307A1.5768,1.5768,0,0,1,134.5175,108.0068Zm8.7762-6.5481-4.554,2.0729v9.5l4.6141-1.8456a1.0555,1.0555,0,0,0,.6637-.98v-8.2571a.5279.5279,0,0,0-.7238-.49Z" transform="translate(-4.4232 -4.8525)"/></g><g id="map-2" data-name="map"><path d="M105.4305,188.4905a4.1563,4.1563,0,0,0-4.1563,4.1563c0,1.8558,2.7165,5.2382,3.7572,6.4659a.52.52,0,0,0,.7982,0c1.0407-1.2277,3.7571-4.61,3.7571-6.4659A4.1562,4.1562,0,0,0,105.4305,188.4905Zm0,5.5417a1.3854,1.3854,0,1,1,1.3854-1.3854A1.3852,1.3852,0,0,1,105.4305,194.0322Z" transform="translate(-4.4232 -4.8525)"/></g><path id="phone-square" class="cls-3" d="M217.8442,65.6371a2.0358,2.0358,0,0,0-2.0358,2.0358V82.6013h0a2.0357,2.0357,0,0,0,2.0358,2.0358h14.9283a2.0358,2.0358,0,0,0,2.0359-2.0358V67.6729h0a2.0359,2.0359,0,0,0-2.0359-2.0358Zm12.978,16.2851a12.2981,12.2981,0,0,1-12.2989-12.2974.636.636,0,0,1,.4931-.62l2.7565-.636a.636.636,0,0,1,.7275.369l1.2743,2.97a.6362.6362,0,0,1-.1823.7427l-1.607,1.3143a9.831,9.831,0,0,0,4.6986,4.6978l1.3143-1.607a.636.636,0,0,1,.7427-.1822l2.9683,1.272a.6359.6359,0,0,1,.369.7275l-.636,2.7565a.636.636,0,0,1-.62.4931Z" transform="translate(-4.4232 -4.8525)"/><g id="Group_3185" data-name="Group 3185"><path id="Path_945" data-name="Path 945" d="M49.9088,15.3986a1.1481,1.1481,0,0,1-1.1448,1.1448H45.5588v3.2052a1.1483,1.1483,0,1,1-2.2965,0V16.5434H40.0571a1.1483,1.1483,0,1,1,0-2.2965h3.2052V11.0418a1.1483,1.1483,0,1,1,2.2965,0v3.2068H48.764A1.15,1.15,0,0,1,49.9088,15.3986Z" transform="translate(-4.4232 -4.8525)"/></g><path d="M18.5457,20.2822a1.047,1.047,0,0,1-1.4787-.0578L13.3963,16.25,9.8044,20.2874a1.0473,1.0473,0,0,1-1.5627-1.3948l3.7283-4.19L8.1631,10.5812A1.0483,1.0483,0,1,1,9.7048,9.16L13.37,13.13,16.9673,9.092A1.0474,1.0474,0,1,1,18.53,10.4869l-3.7283,4.19,3.8069,4.1216A1.0471,1.0471,0,0,1,18.5457,20.2822Z" transform="translate(-4.4232 -4.8525)"/><g id="Group_1669" data-name="Group 1669"><path d="M51.3951,99.1951H49.1366l-.7337-1.83a.6678.6678,0,0,0-.6264-.4286H41.4376a.6678.6678,0,0,0-.6264.4286l-.7337,1.83H37.819a2.7247,2.7247,0,0,0-2.7119,2.7119v8.1441a2.7193,2.7193,0,0,0,2.7119,2.7119l13.5761.0083a2.732,2.732,0,0,0,2.712-2.72V101.907A2.73,2.73,0,0,0,51.3951,99.1951Zm-3.7505,9.8174a4.2974,4.2974,0,1,1-3.0416-7.3362,4.3059,4.3059,0,0,1,4.3028,4.3028A4.2463,4.2463,0,0,1,47.6446,109.0125Z" transform="translate(-4.4232 -4.8525)"/><path d="M47.5456,105.9791a2.9374,2.9374,0,0,1-2.9344,2.9427h-.0247a2.9357,2.9357,0,0,1-2.918-2.9262v-.0165a2.9386,2.9386,0,1,1,5.8771,0Z" transform="translate(-4.4232 -4.8525)"/></g><g id="Group_2353" data-name="Group 2353"><g id="Group_1670" data-name="Group 1670"><path d="M82.9406,96.233H65.9433a1.0024,1.0024,0,0,0-1.0013.993v14.1519a1.0079,1.0079,0,0,0,1.0013.993H82.9406a1.0026,1.0026,0,0,0,1.0014-.993V97.226A1.0026,1.0026,0,0,0,82.9406,96.233ZM80.4373,97.51a.5022.5022,0,0,1,.5007-.5006h1.26a.5021.5021,0,0,1,.5007.5006L82.69,98.77a.5022.5022,0,0,1-.5007.5007H80.938a.5022.5022,0,0,1-.5007-.5007ZM76.866,104.619l-4.4809,2.1278a.3832.3832,0,0,1-.5174-.1.4111.4111,0,0,1-.0584-.2671v-4.08a.3666.3666,0,0,1,.3087-.4172.3534.3534,0,0,1,.2587.0584l4.4893,2.1361C77.1747,104.2185,77.1747,104.4688,76.866,104.619Zm.0083-7.1094a.5021.5021,0,0,1,.5007-.5006h1.26a.4968.4968,0,0,1,.5007.5006v1.26a.4968.4968,0,0,1-.5007.5007h-1.26a.5022.5022,0,0,1-.5007-.5007Zm-3.563,0a.5021.5021,0,0,1,.5007-.5006H75.08a.4951.4951,0,0,1,.5006.4923V98.77a.5021.5021,0,0,1-.5006.5007H73.812a.5022.5022,0,0,1-.5007-.5007Zm-3.5547,0a.5021.5021,0,0,1,.5007-.5006h1.26a.502.502,0,0,1,.5006.5006v1.26a.5021.5021,0,0,1-.5006.5007H70.2489a.5021.5021,0,0,1-.5006-.5007Zm-3.563,0a.5021.5021,0,0,1,.5006-.5006h1.26a.4951.4951,0,0,1,.5007.4923V98.77a.5022.5022,0,0,1-.5007.5007H66.6859a.5021.5021,0,0,1-.5006-.5007Zm2.253,13.5846a.5021.5021,0,0,1-.5007.5006h-1.26a.502.502,0,0,1-.5006-.5006v-1.26a.4968.4968,0,0,1,.5006-.5006h1.2683a.4968.4968,0,0,1,.5007.5006Zm3.563,0a.5021.5021,0,0,1-.5007.5006h-1.26a.502.502,0,0,1-.5006-.5006v-1.26a.4968.4968,0,0,1,.5006-.5006h1.26a.4968.4968,0,0,1,.5007.5006Zm3.5546,0a.4967.4967,0,0,1-.5006.5006H73.812a.5021.5021,0,0,1-.5007-.5006v-1.26a.4968.4968,0,0,1,.5007-.5006H75.08a.4968.4968,0,0,1,.5006.5006Zm3.5631,0a.5021.5021,0,0,1-.5007.5006H77.375a.5021.5021,0,0,1-.5007-.5006v-1.26a.4968.4968,0,0,1,.5007-.5006h1.26a.4968.4968,0,0,1,.5007.5006Zm3.563,0a.5021.5021,0,0,1-.5007.5006H80.938a.5021.5021,0,0,1-.5007-.5006v-1.26a.4968.4968,0,0,1,.5007-.5006h1.26a.4968.4968,0,0,1,.5007.5006Z" transform="translate(-4.4232 -4.8525)"/></g></g><g id="Group_2350" data-name="Group 2350"><g id="Group_2349" data-name="Group 2349"><g id="Group_1666" data-name="Group 1666"><path id="Path_610" data-name="Path 610" d="M109.2193,95.4192a4.7606,4.7606,0,0,1,4.8581,4.6425,5.0321,5.0321,0,0,1-1.45,3.6169l-8.8845,8.8252a.6475.6475,0,0,1-.9736-.8539h0a.7939.7939,0,0,1,.0635-.0636l8.8788-8.8251a3.7086,3.7086,0,0,0,1.0736-2.6987,3.45,3.45,0,0,0-3.55-3.3469h-.0137a3.5427,3.5427,0,0,0-2.4963,1.0735l-9.6988,9.6756a2.0974,2.0974,0,0,0-.6549,1.4369,2.326,2.326,0,0,0,.6483,1.68,2.1725,2.1725,0,0,0,3.071.0339l.0322-.0339q4.8-4.8076,9.6022-9.6079a.953.953,0,0,0,.1016-1.2684.9331.9331,0,0,0-1.2065-.02l-8.7648,8.7169a.6482.6482,0,0,1-.9736-.8547.555.555,0,0,1,.0636-.0619l8.764-8.7186a2.147,2.147,0,0,1,3.03.0066,2.2717,2.2717,0,0,1-.0232,3.0422l-9.6731,9.6822a3.493,3.493,0,0,1-4.9382,0A3.6369,3.6369,0,0,1,95.0787,108.9a3.37,3.37,0,0,1,1.0363-2.3551l9.6988-9.674a4.8422,4.8422,0,0,1,3.4055-1.45Z" transform="translate(-4.4232 -4.8525)"/></g></g></g><g id="Group_4402" data-name="Group 4402"><g id="Group_4401" data-name="Group 4401"><path id="Path_824" data-name="Path 824" d="M322.7421,80.5205l-2.955-2.955a6.812,6.812,0,1,0-1.213,1.213l2.955,2.955a.858.858,0,0,0,1.3127-1.1053l-.0217-.0247a.9381.9381,0,0,0-.081-.081Zm-11.941-3.519a5.1,5.1,0,1,1,3.6,1.493A5.1,5.1,0,0,1,310.8011,77.0015Z" transform="translate(-4.4232 -4.8525)"/></g></g><g id="Group_2122" data-name="Group 2122"><path id="Path_817" data-name="Path 817" d="M139.26,17.85H130.184a.4613.4613,0,0,1-.3436-.77l4.5378-5.051a.4613.4613,0,0,1,.6514-.0357.4454.4454,0,0,1,.0357.0357l4.5389,5.051a.4624.4624,0,0,1-.3447.77Z" transform="translate(-4.4232 -4.8525)"/></g><g id="checkmark"><path d="M110.2191,13.1105l-5.23,5.98-.04.04a1.5228,1.5228,0,0,1-.13.12,1.0051,1.0051,0,0,1-.18.09.5009.5009,0,0,1-.13.05.8414.8414,0,0,1-.27.04.9349.9349,0,0,1-.51-.14,1.41,1.41,0,0,1-.15-.11c-.02-.01-.03-.03-.05-.04l-2.99-2.99a1.0041,1.0041,0,1,1,1.42-1.42l2.23,2.23,4.52-5.16a1,1,0,0,1,1.51,1.31Z" transform="translate(-4.4232 -4.8525)"/></g><path id="Path_646" data-name="Path 646" d="M169.4587,68.6032l-1.7357,1.7357,3.4462,3.4452,1.7357-1.7357Zm-2.3128,2.3129L159.4114,78.65l3.4462,3.4451,7.7345-7.7334Zm-8.26,8.361-.9809,4.3251,4.3261-.9819Z" transform="translate(-4.4232 -4.8525)"/><path id="Path_916" data-name="Path 916" d="M107.5553,72.939v1.3281h-5.3278V72.939Zm4-1.3281H98.2277v9.8708c0,.8,0,.8.7994.8h11.9993c.5277,0,.5277,0,.5277-.8Zm.7955-4.0017H97.6835c-.8,0-.8,0-.8.5277v2.1265h16V68.1369C112.8832,67.6092,112.8832,67.6092,112.3506,67.6092Z" transform="translate(-4.4232 -4.8525)"/><g id="Group_2508" data-name="Group 2508"><g id="Group_2506" data-name="Group 2506"><rect id="Rectangle_2075" data-name="Rectangle 2075" x="125.9081" y="62.7147" width="9.1037" height="2.2757"/><path id="Path_917" data-name="Path 917" d="M142.8832,70.9461h-16V80.05h2.2757V76.67h11.3794v3.38h2.3449Zm-1.1725,2.2757h-1.1032V72.1186h1.1032Z" transform="translate(-4.4232 -4.8525)"/><rect id="Rectangle_2076" data-name="Rectangle 2076" x="125.9081" y="72.7285" width="9.1037" height="5.917"/></g></g><g id="Group_2507" data-name="Group 2507"><path id="Path_916-2" data-name="Path 916" d="M204.6305,69.429V79.6242a1.1522,1.1522,0,0,1-.0469.2783l-6.4876-5.3754,6.4876-5.3764A1.153,1.153,0,0,1,204.6305,69.429Zm-18.9532-.2783a1.1994,1.1994,0,0,0-.0468.2783V79.6242a1.1994,1.1994,0,0,0,.0468.2783l6.4876-5.3754Zm10.6352,6.8587a1.8821,1.8821,0,0,1-2.364,0l-1.0424-.8808-6.5574,5.4223h17.5406l-6.5115-5.4223Zm-.6025-.7182,8.2023-6.79H186.3487l8.1793,6.79A.9411.9411,0,0,0,195.71,75.2912Z" transform="translate(-4.4232 -4.8525)"/></g><g id="Group_5148" data-name="Group 5148"><path id="Path_1055" data-name="Path 1055" d="M172.1549,99.0661a1.2915,1.2915,0,0,1-1.2915,1.2915H155.7147a1.2915,1.2915,0,0,1-1.2915-1.2915h0a1.2915,1.2915,0,0,1,1.2915-1.2915h15.1489A1.2915,1.2915,0,0,1,172.1549,99.0661Z" transform="translate(-4.4232 -4.8525)"/><path id="Path_1056" data-name="Path 1056" d="M170.01,104.4935a1.2915,1.2915,0,0,1-1.2915,1.2915H157.86a1.2915,1.2915,0,0,1-1.2915-1.2915h0a1.2914,1.2914,0,0,1,1.2915-1.2914h10.859A1.2914,1.2914,0,0,1,170.01,104.4935Z" transform="translate(-4.4232 -4.8525)"/><path id="Path_1057" data-name="Path 1057" d="M166.7925,109.9208a1.2915,1.2915,0,0,1-1.2915,1.2915h-4.4238a1.2915,1.2915,0,0,1-1.2915-1.2915h0a1.2915,1.2915,0,0,1,1.2915-1.2915h4.424A1.2915,1.2915,0,0,1,166.7925,109.9208Z" transform="translate(-4.4232 -4.8525)"/></g><path d="M194.84,95.7543a8,8,0,1,0,8,8A8.0043,8.0043,0,0,0,194.84,95.7543Zm-.1,11.86a.1887.1887,0,0,0,.13.07.352.352,0,0,0,.23-.11,4.1338,4.1338,0,0,0,.74-.91l.23.13q-1.035,1.8-2.19,1.8a.9623.9623,0,0,1-.71-.25.8089.8089,0,0,1-.26-.63,2.1923,2.1923,0,0,1,.11-.64l.95-3.27a2.9524,2.9524,0,0,0,.14-.71.35.35,0,0,0-.13-.27.5177.5177,0,0,0-.36-.11h-.24l.09-.27,2.31-.38h.41l-1.4,4.86a2.3729,2.3729,0,0,0-.11.55A.1974.1974,0,0,0,194.74,107.6143Zm1.74-6.98a.96.96,0,0,1-.71.3,1.025,1.025,0,0,1-1-1.01.99.99,0,0,1,1-1,.9734.9734,0,0,1,.71.29.96.96,0,0,1,.3.71A.9442.9442,0,0,1,196.48,100.6343Z" transform="translate(-4.4232 -4.8525)"/><path d="M226.1993,97.2a8,8,0,1,0,8,8A7.9977,7.9977,0,0,0,226.1993,97.2Zm.49,12.89h-1.98v-1.85h1.98Zm2.47-5.82a3.5991,3.5991,0,0,1-1.11,1.1l-.52.38a2.6226,2.6226,0,0,0-.69.68,1.4,1.4,0,0,0-.25.75h-1.83a2.5332,2.5332,0,0,1,.4-1.25,3.8409,3.8409,0,0,1,1.03-1.02,5.3949,5.3949,0,0,0,1.04-.89,1.3855,1.3855,0,0,0,.3-.86,1.1829,1.1829,0,0,0-.4-.95,1.6232,1.6232,0,0,0-1.11-.35,1.7053,1.7053,0,0,0-1.16.4,1.5774,1.5774,0,0,0-.55,1.07l-1.95-.08a3.1506,3.1506,0,0,1,1.14-2.16,3.82,3.82,0,0,1,2.49-.77,3.9586,3.9586,0,0,1,2.54.73,2.4483,2.4483,0,0,1,.93,2.03A2.3639,2.3639,0,0,1,229.1593,104.27Z" transform="translate(-4.4232 -4.8525)"/><path id="Path_1060" data-name="Path 1060" d="M83.5093,129.5869h-3.8v-1a.9451.9451,0,0,0-.8866-1,.975.975,0,0,0-.1134,0h-5a.945.945,0,0,0-1,.8866.9327.9327,0,0,0,0,.1134v1h-3.7a.265.265,0,0,0-.3.3v.5c0,.1.1.2.3.2h1l1.2,12.5a.4719.4719,0,0,0,.4422.5.4645.4645,0,0,0,.0578,0h9a.472.472,0,0,0,.5-.4422.4645.4645,0,0,0,0-.0578l1.3-12.5h1a.215.215,0,0,0,.2-.2v-.5C83.7093,129.6869,83.6093,129.5869,83.5093,129.5869Zm-10.3,11.5a.5359.5359,0,0,1-.5-.5h0l-.5-8a.472.472,0,0,1,.4422-.5.4645.4645,0,0,1,.0578,0,.4721.4721,0,0,1,.5.4423.4629.4629,0,0,1,0,.0577l.5,8A.536.536,0,0,1,73.2093,141.0869Zm3.5-.5a.5.5,0,0,1-1,0v-8a.5.5,0,0,1,1,0Zm2-11h-5v-1h5Zm1,11a.5.5,0,0,1-1,0l.5-8a.5.5,0,0,1,1,0Z" transform="translate(-4.4232 -4.8525)"/><g id="Group_3542" data-name="Group 3542"><g id="Group_4414" data-name="Group 4414"><path d="M256.1031,96.78a8,8,0,1,0,8,8A7.9979,7.9979,0,0,0,256.1031,96.78Zm3.25,8.55c-.01.01-.01.02-.02.03l-2.7,3.06a.6475.6475,0,0,0-.09.08.6456.6456,0,0,1-.9-.08.8618.8618,0,0,1,0-1.11l1.52-1.72h-4.35a.79.79,0,0,1,0-1.57h4.35l-1.52-1.71a.8726.8726,0,0,1-.2-.56.8459.8459,0,0,1,.2-.55.647.647,0,0,1,.09-.08.6366.6366,0,0,1,.9.08l2.7,3.06.03.03a.8714.8714,0,0,1,.16.37v.05a.3083.3083,0,0,1,.01.1A.8212.8212,0,0,1,259.3531,105.33Z" transform="translate(-4.4232 -4.8525)"/></g></g><path d="M134.9975,126.6391a8,8,0,1,0,8,8A7.9978,7.9978,0,0,0,134.9975,126.6391Zm1.26,2.85-.28,6.71h-2.03l-.28-6.71Zm-1.26,10.3a1.31,1.31,0,1,1,1.42-1.29A1.3243,1.3243,0,0,1,134.9975,139.7891Z" transform="translate(-4.4232 -4.8525)"/><path d="M286.99,96.75a8,8,0,1,0,8,8A7.9977,7.9977,0,0,0,286.99,96.75Zm4.62,5.92-4.8,5.47-.08.1a.9439.9439,0,0,1-.35.25.8587.8587,0,0,1-.36.07.9757.9757,0,0,1-.17-.02.8686.8686,0,0,1-.43-.21c-.02-.02-.04-.03-.05-.05l-2.79-2.79a.93.93,0,1,1,1.32-1.31l2.08,2.08,4.23-4.83a.9351.9351,0,0,1,1.4,1.24Z" transform="translate(-4.4232 -4.8525)"/><path d="M194.7554,126.1452a8,8,0,1,0,8,8A7.9978,7.9978,0,0,0,194.7554,126.1452Zm3.38,11.1a2.8342,2.8342,0,0,1-2.67,1.83v1.22a.4166.4166,0,0,1-.4.41h-.81a.4166.4166,0,0,1-.4-.41v-1.21a3.5228,3.5228,0,0,1-2.18-.76.1.1,0,0,1-.05-.04.3985.3985,0,0,1,0-.57l.88-.87a.3923.3923,0,0,1,.49-.04,1.5517,1.5517,0,0,0,.86.26h1.68a.7441.7441,0,0,0,.2-1.46l-2.58-.75a2.8909,2.8909,0,0,1-2.11-2.44,1.9481,1.9481,0,0,1-.02-.25,2.7677,2.7677,0,0,1,2.77-2.76h.06v-1.21a.4034.4034,0,0,1,.4-.41h.81a.4034.4034,0,0,1,.4.41v1.21a3.5748,3.5748,0,0,1,2.18.75c.02.01.03.03.05.04a.41.41,0,0,1,0,.58l-.88.86a.3936.3936,0,0,1-.49.05,1.5874,1.5874,0,0,0-.86-.27h-1.68a.7445.7445,0,0,0-.2,1.46l2.72.8c.04.01.09.03.13.04A2.7737,2.7737,0,0,1,198.1354,137.2452Z" transform="translate(-4.4232 -4.8525)"/><path id="file" d="M22.27,130.3l-2.6227-2.6218a1.5,1.5,0,0,0-1.0594-.4406H12.2093a1.509,1.509,0,0,0-1.5,1.503v13.001a1.5,1.5,0,0,0,1.5,1.5h9a1.5,1.5,0,0,0,1.5-1.5h0V131.3618a1.5087,1.5087,0,0,0-.4407-1.0623Zm-1.1811.9406H18.7093v-2.3783Zm-8.8792,10.501V128.74h5v3.25a.7485.7485,0,0,0,.7464.75H21.21v9Z" transform="translate(-4.4232 -4.8525)"/><path d="M45.6613,126.0443a9,9,0,1,0,9,9A9.0007,9.0007,0,0,0,45.6613,126.0443Zm4.7,10.2383H46.9v3.4486a1.2383,1.2383,0,0,1-2.4766,0v-3.4486H40.9744a1.2383,1.2383,0,1,1,0-2.4766H44.423v-3.4485a1.2383,1.2383,0,1,1,2.4766,0v3.4485h3.4618a1.2384,1.2384,0,0,1,0,2.4766Z" transform="translate(-4.4232 -4.8525)"/><path d="M114.5324,142.1824a.6036.6036,0,0,1-.6086.6086H97.9131a.6112.6112,0,0,1-.6175-.6086.6188.6188,0,0,1,.6175-.6175h16.0107A.6111.6111,0,0,1,114.5324,142.1824Z" transform="translate(-4.4232 -4.8525)"/><path d="M111.2748,133.9757l-4.9223,4.9222c-.0089.009-.0179.0179-.0268.0179v.009c-.0179.0089-.0269.0178-.0448.0268-.0089.009-.0089.0179-.0268.0179a.1229.1229,0,0,1-.0358.0269c-.0179.0089-.0268.0179-.0448.0268a.068.068,0,0,0-.0357.0179.0279.0279,0,0,0-.018.009l-.0358.0089-.0268.009-.0269.0089h-.0447a.113.113,0,0,1-.0537.009h-.0984l-.0269-.009h-.0358c-.009,0-.0179-.0089-.0268-.0089l-.0269-.009c-.009,0-.0179-.0089-.0268-.0089h-.009l-.0179-.009h-.0089c-.009,0-.009-.0089-.018-.0089h-.0089l-.0179-.0179h-.0089l-.018-.009a.1236.1236,0,0,1-.0357-.0268l-.018-.009-.0178-.0179-.0179-.0179-4.9312-4.9312h-.009a.63.63,0,0,1,.009-.877.6186.6186,0,0,1,.8681.0089l3.8751,3.8752V126.1807a.6152.6152,0,0,1,.6-.6175h.0178a.6111.6111,0,0,1,.6086.6175v10.7931l3.8751-3.8752a.6038.6038,0,0,1,.4207-.179h.0179a.6014.6014,0,0,1,.4474.188A.6188.6188,0,0,1,111.2748,133.9757Z" transform="translate(-4.4232 -4.8525)"/><path class="cls-4" d="M113.9482,158.3915H103.9053a1.5,1.5,0,0,1,0-3h10.0429a1.5,1.5,0,0,1,0,3Zm1.5,4.5a1.5,1.5,0,0,0-1.5-1.5H103.9053a1.5,1.5,0,0,0,0,3h10.0429A1.5,1.5,0,0,0,115.4482,162.8915Zm0,6a1.5,1.5,0,0,0-1.5-1.5H103.9053a1.5,1.5,0,0,0,0,3h10.0429A1.5,1.5,0,0,0,115.4482,168.8915Zm-14.9541-12a1.5,1.5,0,0,0-1.5-1.5H97.8672a1.5,1.5,0,0,0,0,3h1.1269A1.5,1.5,0,0,0,100.4941,156.8915Zm0,6a1.5,1.5,0,0,0-1.5-1.5H97.8672a1.5,1.5,0,1,0,0,3h1.1269A1.5,1.5,0,0,0,100.4941,162.8915Zm0,6a1.5,1.5,0,0,0-1.5-1.5H97.8672a1.5,1.5,0,1,0,0,3h1.1269A1.5,1.5,0,0,0,100.4941,168.8915Z" transform="translate(-4.4232 -4.8525)"/><path class="cls-4" d="M71.9224,162.0335H66.3a1.4934,1.4934,0,0,1-1.4933-1.4934v-5.7977A1.4933,1.4933,0,0,1,66.3,153.2491h5.622a1.4934,1.4934,0,0,1,1.4934,1.4933V160.54A1.4934,1.4934,0,0,1,71.9224,162.0335ZM83.59,160.54v-5.7977a1.4933,1.4933,0,0,0-1.4933-1.4933h-5.622a1.4934,1.4934,0,0,0-1.4934,1.4933V160.54a1.4934,1.4934,0,0,0,1.4934,1.4934h5.622A1.4934,1.4934,0,0,0,83.59,160.54ZM73.4158,170.6162v-5.7977a1.4934,1.4934,0,0,0-1.4934-1.4933H66.3a1.4933,1.4933,0,0,0-1.4933,1.4933v5.7977A1.4934,1.4934,0,0,0,66.3,172.11h5.622A1.4934,1.4934,0,0,0,73.4158,170.6162Zm10.1739,0v-5.7977a1.4933,1.4933,0,0,0-1.4933-1.4933h-5.622a1.4934,1.4934,0,0,0-1.4934,1.4933v5.7977a1.4934,1.4934,0,0,0,1.4934,1.4934h5.622A1.4934,1.4934,0,0,0,83.59,170.6162Z" transform="translate(-4.4232 -4.8525)"/><path id="Path_1001" data-name="Path 1001" d="M234.4856,133.3257l-2.1629-.2328a7.2028,7.2028,0,0,0-.7873-1.8973l1.3665-1.6963a.3531.3531,0,0,0,0-.4992l0,0-1.7168-1.7137a.3532.3532,0,0,0-.5,0l-1.6963,1.3659a7.216,7.216,0,0,0-1.8973-.7874l-.2328-2.1628a.3533.3533,0,0,0-.3533-.3533h-2.4269a.3536.3536,0,0,0-.3533.3533l-.2331,2.1628a7.214,7.214,0,0,0-1.897.7874L219.9,127.286a.3532.3532,0,0,0-.5,0l-1.7152,1.7155a.3524.3524,0,0,0-.0013.4983l.0013.0013,1.3659,1.6963a7.2023,7.2023,0,0,0-.7871,1.8973l-2.1628.2328a.3536.3536,0,0,0-.3533.3533v2.4248a.3536.3536,0,0,0,.3533.3533l2.1628.2328a7.2042,7.2042,0,0,0,.7871,1.8976l-1.3659,1.6963a.3521.3521,0,0,0-.0014.4979l.0014.0014,1.7152,1.7156a.3539.3539,0,0,0,.5,0l1.6957-1.3663a7.214,7.214,0,0,0,1.897.7874l.2331,2.1628a.3536.3536,0,0,0,.353.3542h2.4266a.3536.3536,0,0,0,.3533-.3533l.2328-2.1628a7.2156,7.2156,0,0,0,1.8973-.7883l1.6963,1.3663a.3539.3539,0,0,0,.5,0l1.7156-1.7156a.3524.3524,0,0,0,.0009-.4983l-.0009-.001-1.3665-1.6963a7.2048,7.2048,0,0,0,.7873-1.8976l2.1628-.2328a.3536.3536,0,0,0,.3533-.3533v-2.4263a.3523.3523,0,0,0-.3511-.3536Zm-9.1934,6.3817a4.8145,4.8145,0,1,1,.0018,0Z" transform="translate(-4.4232 -4.8525)"/><circle class="cls-4" cx="249.7647" cy="123.2111" r="1.8424"/><circle class="cls-4" cx="249.7647" cy="129.1024" r="1.8424"/><circle class="cls-4" cx="249.7647" cy="134.9938" r="1.8424"/><g id="Group_7919" data-name="Group 7919"><path d="M293.5347,130.3559c-.02-.53-.02-1.03-.02-1.51a.66.66,0,0,0-.67-.68h-.01a9.6474,9.6474,0,0,1-7.08-2.68.6883.6883,0,0,0-.96,0,9.5386,9.5386,0,0,1-7.06,2.66.6659.6659,0,0,0-.68.67v.01c0,.48,0,.98-.02,1.53-.1,4.96-.24,11.74,8.02,14.59a.85.85,0,0,0,.22.04.5381.5381,0,0,0,.22-.04C293.7546,142.096,293.6147,135.316,293.5347,130.3559Zm-4.27,2.78-3.83,5.21a.8727.8727,0,0,1-.22.21.4611.4611,0,0,1-.15.09.0214.0214,0,0,1-.02.02,1.5708,1.5708,0,0,1-.2.07h-.02a.8282.8282,0,0,1-.22.03c-.06,0-.12-.01-.17-.01a.3093.3093,0,0,0-.08-.02.868.868,0,0,1-.15-.05.0348.0348,0,0,1-.02-.01.6326.6326,0,0,1-.14-.08c-.02-.01-.04-.01-.05-.03a.98.98,0,0,1-.18-.17l-2.45-2.77a1.0072,1.0072,0,0,1,.09-1.44,1.037,1.037,0,0,1,1.45.08l1.62,1.85,3.09-4.2a1.0306,1.0306,0,0,1,1.43-.22A1.0442,1.0442,0,0,1,289.2647,133.136Z" transform="translate(-4.4232 -4.8525)"/></g><path d="M22.483,165.4437,20.97,163.9765v6.4467a.6171.6171,0,0,1-.5777.6469H17.157a.6077.6077,0,0,1-.5661-.6469v-3.8126a.7339.7339,0,0,0-.6239-.7278H13.7719a.7339.7339,0,0,0-.6239.7278v3.8126a.6077.6077,0,0,1-.5661.6469H9.4048a.6288.6288,0,0,1-.6354-.6122V163.965l-1.5135,1.4787c-.6123.5893-1.5943-.3-.982-.9011l8.1335-7.8678a.6779.6779,0,0,1,.9242,0l8.145,7.8678C24.0889,165.1434,23.1069,166.033,22.483,165.4437Z" transform="translate(-4.4232 -4.8525)"/><g id="Group_8443" data-name="Group 8443"><g id="Group_8442" data-name="Group 8442"><g id="Group_8441" data-name="Group 8441"><g id="Group_3185-2" data-name="Group 3185"><path id="Path_945-2" data-name="Path 945" d="M49.193,163.4445a1.0151,1.0151,0,0,1-1.012,1.012H40.486a1.015,1.015,0,0,1,0-2.03l7.695-.002A1.017,1.017,0,0,1,49.193,163.4445Z" transform="translate(-4.4232 -4.8525)"/></g></g></g></g><circle cx="311.2208" cy="100.5171" r="8"/><path d="M155.2963,167.4238l7.7552-8.7049a1.2805,1.2805,0,0,1,1.9122,0l7.7552,8.7049a1.14,1.14,0,0,1-.0948,1.6106h0a1.14,1.14,0,0,1-1.6071-.0948l-7.0094-7.8715-7.0094,7.8715a1.14,1.14,0,0,1-1.6071.0948h0A1.1394,1.1394,0,0,1,155.2963,167.4238Z" transform="translate(-4.4232 -4.8525)"/><path d="M190.39,155.0945l8.7048,7.7552a1.2805,1.2805,0,0,1,0,1.9122l-8.7048,7.7552a1.14,1.14,0,0,1-1.6107-.0948h0a1.14,1.14,0,0,1,.0948-1.6071l7.8715-7.0094-7.8715-7.0094a1.14,1.14,0,0,1-.0948-1.6071h0A1.14,1.14,0,0,1,190.39,155.0945Z" transform="translate(-4.4232 -4.8525)"/><path d="M227.2347,174.4736l-8.7048-7.7552a1.2805,1.2805,0,0,1,0-1.9122l8.7048-7.7552a1.14,1.14,0,0,1,1.6107.0948h0a1.14,1.14,0,0,1-.0948,1.607l-7.8715,7.0094,7.8715,7.0094a1.14,1.14,0,0,1,.0948,1.6071h0A1.14,1.14,0,0,1,227.2347,174.4736Z" transform="translate(-4.4232 -4.8525)"/><path d="M20.8554,188.1421v12h-11v-12h11m.54-1.5H9.3254a1.0534,1.0534,0,0,0-.97,1.1193v12.773a1.05,1.05,0,0,0,.97,1.1077h12.07a1.042,1.042,0,0,0,.96-1.1077v-12.773a1.0459,1.0459,0,0,0-.96-1.1193Z" transform="translate(-4.4232 -4.8525)"/><path d="M15.2919,190.1421h-.17c-.09.09-.26.09-.26.17l-3.1,2.93-.03.03a.701.701,0,0,0-.05,1l.08.09a.75.75,0,0,0,.5654.2508l.0346-.0008a.7384.7384,0,0,0,.52-.25l1.72-1.64v4.65a.775.775,0,0,0,1.55,0v-4.65l1.72,1.64a.93.93,0,0,0,1.12,0c.01-.02.03-.03.04-.04a.7192.7192,0,0,0-.04-1l-.09-.08-3.1-2.93a1.2834,1.2834,0,0,0-.51-.17Z" transform="translate(-4.4232 -4.8525)"/><path d="M38.1684,201.5721h12.07a1.0453,1.0453,0,0,0,.96-1.11v-12.77a1.0485,1.0485,0,0,0-.96-1.12h-12.07a1.0561,1.0561,0,0,0-.97,1.12v12.77A1.0529,1.0529,0,0,0,38.1684,201.5721Zm1.94-8.48c.01-.01.03-.02.04-.04l3.49-3.3c0-.09.2-.09.3-.19h.19a1.4253,1.4253,0,0,1,.57.19l3.5,3.3.1.09a.8132.8132,0,0,1,.05,1.13c-.01.01-.04.02-.05.05a1.05,1.05,0,0,1-1.26,0l-1.94-1.85v5.24a.875.875,0,0,1-1.75,0v-5.24l-1.94,1.85a.8284.8284,0,0,1-.59.28h-.04a.8413.8413,0,0,1-.63-.28l-.09-.1A.794.794,0,0,1,40.1084,193.0921Z" transform="translate(-4.4232 -4.8525)"/><path id="Path_1593" data-name="Path 1593" d="M317.8832,157.5l1.781,1.781-.5.5-4,4-.688.719,1.407,1.406.719-.688,4-4,.5-.5,1.781,1.782v-5Zm-11,2v14h14v-8h-2v6h-10v-10h6v-2Z" transform="translate(-4.4232 -4.8525)"/><path d="M282.0027,156.1726a9,9,0,1,0,9,9A9.0071,9.0071,0,0,0,282.0027,156.1726Zm0,16a7,7,0,1,1,7-7A7.0077,7.0077,0,0,1,282.0027,172.1726Zm3.26-10.43a3.66,3.66,0,0,0-2.51-.81h-4.39v1.11l.98.19v6.64l-.98.19v1.11h3.82v-1.11l-.99-.19v-2.05h1.56a3.66,3.66,0,0,0,2.51-.81,2.9374,2.9374,0,0,0,0-4.27Zm-1.33,3.23a1.56,1.56,0,0,1-1.18.42h-1.56v-3.04h1.56a1.5309,1.5309,0,0,1,1.18.44,1.5914,1.5914,0,0,1,.39,1.1A1.5409,1.5409,0,0,1,283.9327,164.9726Z" transform="translate(-4.4232 -4.8525)"/><path id="Path_1623" data-name="Path 1623" d="M74.6223,186.5a7.9565,7.9565,0,1,1-7.9566,7.9566A7.9567,7.9567,0,0,1,74.6223,186.5Zm-5.3866,10.7551,9.6443-7.1235a6.07,6.07,0,0,0-9.6443,7.1235ZM80.001,191.643,70.3525,198.77a6.07,6.07,0,0,0,9.6485-7.1266Z" transform="translate(-4.4232 -4.8525)"/><path id="Path_1292" data-name="Path 1292" d="M139.4853,191.6359v-4.371a.306.306,0,1,0-.612-.0007v.8417a4.9039,4.9039,0,0,1-.889,2.206.3062.3062,0,0,0-.09.216v.629a.306.306,0,0,0,.306.306h.673v.442a.306.306,0,0,0,.306.306.7.7,0,0,1,.7.7h0v5.69a.7.7,0,0,1-1.4,0v-1.8a.306.306,0,0,0-.306-.306h-.623v-4.642a.9117.9117,0,0,0-.3-.67v-3.945a1.181,1.181,0,0,0-1.18-1.18h-6.068a1.1811,1.1811,0,0,0-1.18,1.18v3.945a.9125.9125,0,0,0-.3.67v9.278h-.357a.306.306,0,0,0-.0008.612h9.7378a.306.306,0,0,0,0-.612h-.357v-4.028h.317v1.494a1.31,1.31,0,0,0,2.62,0v-5.69A1.3109,1.3109,0,0,0,139.4853,191.6359Zm-9.483-4.558h6.073a.161.161,0,0,1,.16.16v3.7h-6.393v-3.7A.1611.1611,0,0,1,130.0023,187.0779Z" transform="translate(-4.4232 -4.8525)"/><g id="Group"><path id="Compound_Path" data-name="Compound Path" d="M164.48,186.56a7.97,7.97,0,1,0,.02,0Zm0,14.756a6.755,6.755,0,1,1,6.756-6.756,6.755,6.755,0,0,1-6.755,6.755Z" transform="translate(-4.4232 -4.8525)"/><rect id="Path" x="157.9259" y="179.3655" width="5" height="1"/><path id="Path-2" d="M165.0921,190.377h-1.225l-.02,4.306,3.123,3.817.959-.776-2.857-3.49Z" transform="translate(-4.4232 -4.8525)"/></g><path id="Path_1369" data-name="Path 1369" d="M189.4873,187.9517a8,8,0,1,1,0,11.314,8,8,0,0,1,0-11.314Zm3.48,11.153h2.013a.2119.2119,0,0,0,.213-.211h0v-2.868h2.655v1.633a.211.211,0,0,0,.362.147l2.856-2.847a.2089.2089,0,0,0,.0045-.2955l-.0045-.0045-2.857-2.86a.211.211,0,0,0-.36.15v1.635h-2.655v-2.655h1.635a.2109.2109,0,0,0,.148-.362l-2.853-2.855a.2131.2131,0,0,0-.3,0l-2.854,2.855a.212.212,0,0,0,.148.362h1.637v7.964a.211.211,0,0,0,.211.211Z" transform="translate(-4.4232 -4.8525)"/><path id="Path_1513" data-name="Path 1513" d="M218.4637,191.761v1.576a.846.846,0,0,0,.839.839h3.585v-3.254h-3.585A.846.846,0,0,0,218.4637,191.761Z" transform="translate(-4.4232 -4.8525)"/><path id="Path_1514" data-name="Path 1514" d="M219.8367,194.735l.89,5.085h1.729l-.89-5.085Z" transform="translate(-4.4232 -4.8525)"/><path id="Path_1515" data-name="Path 1515" d="M223.4217,194.278l5.492,3V187.82l-5.492,3Z" transform="translate(-4.4232 -4.8525)"/><path id="Path_1516" data-name="Path 1516" d="M229.4717,191.1V194a1.476,1.476,0,0,0,0-2.9Z" transform="translate(-4.4232 -4.8525)"/><path d="M267.1249,202.2926a1.9553,1.9553,0,0,1-.59,1.41,1.9941,1.9941,0,0,1-3.41-1.41,15.0053,15.0053,0,0,0-15-15,1.9994,1.9994,0,0,1-2-2,2.0291,2.0291,0,0,1,.58-1.42,1.994,1.994,0,0,1,1.42-.58,18.9831,18.9831,0,0,1,19,19Zm-19-11a2,2,0,0,0,0,4,7.0013,7.0013,0,0,1,7,7,2,2,0,1,0,4,0A11,11,0,0,0,248.1249,191.2926Zm2.13,8.87a2.9936,2.9936,0,0,0-4.24,0,2.9981,2.9981,0,1,0,4.24,0Z" transform="translate(-4.4232 -4.8525)"/><g id="Group_10173" data-name="Group 10173"><path id="Path_1630" data-name="Path 1630" d="M251.3211,165.6213a1.3108,1.3108,0,0,0,1.8534.0359l.0358-.0359a1.3586,1.3586,0,0,0,0-1.9093l-1.3868-1.3867h11.2349a1.3466,1.3466,0,0,0,0-2.6932H251.8235l1.3868-1.3867a1.3587,1.3587,0,0,0,0-1.9094,1.3406,1.3406,0,0,0-1.8958-.0135l-.0135.0135-3.6578,3.6981a1.3424,1.3424,0,0,0-.402.9446,1.2748,1.2748,0,0,0,.402.9446Z" transform="translate(-4.4232 -4.8525)"/><path id="Path_1631" data-name="Path 1631" d="M260.325,165.38a1.3586,1.3586,0,0,0-1.9093,0,1.34,1.34,0,0,0-.0135,1.8957l.0135.0136,1.3868,1.3867H248.5878a1.3466,1.3466,0,1,0,0,2.6932h11.2348l-1.3868,1.3867a1.3587,1.3587,0,0,0,0,1.9094,1.3108,1.3108,0,0,0,1.8534.0358l.0358-.0358,3.678-3.6981a1.3588,1.3588,0,0,0,0-1.9093Z" transform="translate(-4.4232 -4.8525)"/></g><g id="Group_8740" data-name="Group 8740"><path id="Path_1293" data-name="Path 1293" d="M287.8019,188.5407v2.392h-1.881v-2.392h-4.856v2.392h-1.857v-2.392h-3.022v13.634h10.58a6.2274,6.2274,0,0,1-2.217-4.066h-2.144v-2.265h2.288a5.8338,5.8338,0,0,1,.335-.973h-2.623v-2.262h2.734v2.017a6.2411,6.2411,0,0,1,5.589-3.484,1.0562,1.0562,0,0,1,.159.008v-2.609Zm-6.513,9.568h-2.735v-2.265h2.735Zm0-3.237h-2.735v-2.263h2.735Zm3.739,0h.112v-.247A2.3146,2.3146,0,0,0,285.0279,194.8717Zm.112-.247v.247h-.112a2.3368,2.3368,0,0,1,.111-.247Zm-4.473-7.128v3.038h-1.06v-3.038Zm6.734,0v3.038h-1.06v-3.038Zm-2.262,7.375h-.112a2.3146,2.3146,0,0,1,.112-.247Zm5.7285-2.6074a.9409.9409,0,0,0-.1394-.007,5.097,5.097,0,0,0-4.9277,3.774,4.9675,4.9675,0,0,0-.1815,1.3352,3.958,3.958,0,0,0,.0491.65,5.1057,5.1057,0,1,0,5.2-5.7526Zm2.0163,7.087a1.8087,1.8087,0,0,1-1.7051,1.1668v.7758a.263.263,0,0,1-.2516.263h-.5225a.263.263,0,0,1-.2516-.263v-.7688a2.2332,2.2332,0,0,1-1.3912-.4892.0594.0594,0,0,1-.0351-.021.2629.2629,0,0,1-.007-.3638c.007,0,.007,0,.007-.007l.5593-.5523a.2541.2541,0,0,1,.3147-.0281.9858.9858,0,0,0,.5523.1675h1.07a.4743.4743,0,0,0,.1324-.9293l-.4892-.1394-1.16-.3428a1.841,1.841,0,0,1-1.3474-1.556,1.15,1.15,0,0,1-.014-.1605,1.7734,1.7734,0,0,1,1.7682-1.7612h.0421v-.7758a.2568.2568,0,0,1,.25-.26h.526a.2569.2569,0,0,1,.2516.2586v.7759a2.2413,2.2413,0,0,1,1.3913.4821c.014,0,.021.0141.035.0211a.2577.2577,0,0,1,.0064.3644l-.0064.0064-.5593.5523a.2445.2445,0,0,1-.3147.028,1.0447,1.0447,0,0,0-.5523-.1674h-1.07a.4743.4743,0,0,0-.1324.9293l.8881.2586.853.2516a.8766.8766,0,0,0,.0876.028,1.7718,1.7718,0,0,1,1.0792,2.2565Z" transform="translate(-4.4232 -4.8525)"/></g><g id="Group_9084" data-name="Group 9084"><path id="Path_1367" data-name="Path 1367" d="M320.2669,193.524l-4.919,2.839a.573.573,0,0,1-.7825-.21l-.0015-.0025-2.844-4.915a.58.58,0,0,1,.213-.787l4.919-2.84a.5769.5769,0,0,1,.784.213l2.836,4.915a.576.576,0,0,1-.209.787Z" transform="translate(-4.4232 -4.8525)"/><path id="Path_1368" data-name="Path 1368" d="M321.9369,194.955a.739.739,0,0,0-1.0092-.2715l-.0008,0-6.174,3.566-5.527-9.572a.7388.7388,0,0,0-.605-.369l-2.534-.122a.739.739,0,1,0-.0947,1.4749l.0207.0011,2.13.1,5.265,9.115a2.012,2.012,0,0,1,2.73.282l5.529-3.192a.739.739,0,0,0,.2723-1.009Z" transform="translate(-4.4232 -4.8525)"/><circle id="Ellipse_302" data-name="Ellipse 302" cx="310.1977" cy="195.6395" r="1.695"/></g><path id="Path_1635" data-name="Path 1635" d="M55.684,225.5673a5.2576,5.2576,0,0,0-5.07-4.58h-.14a5.2848,5.2848,0,0,0-5.26,5.25,3.7942,3.7942,0,0,0,.06.67,5.2479,5.2479,0,1,0,10.41-1.34Zm-2.78,1.88h-5.09a1,1,0,1,1,0-2h5.09a1,1,0,0,1,0,2Zm-8.13-3.71h.11v-.24A2.5443,2.5443,0,0,0,44.7741,223.7374Zm1.31-7.37v3.04h1.06v-3.04Zm-6.73,0v3.04h1.06v-3.04Zm5.42,7.37h.11v-.24A2.5443,2.5443,0,0,0,44.7741,223.7374Zm0,0h.11v-.24A2.5443,2.5443,0,0,0,44.7741,223.7374Zm2.77-6.33v2.4h-1.88v-2.4h-4.86v2.4h-1.85v-2.4h-3.02v13.64h10.58a6.2212,6.2212,0,0,1-2.22-4.07h-2.15v-2.26h2.29a6.678,6.678,0,0,1,.34-.98h-2.63v-2.26h2.74v2.02a6.2538,6.2538,0,0,1,5.59-3.49c.05,0,.1.01.16.01v-2.61Zm-6.51,9.57h-2.74v-2.26h2.74Zm0-3.24h-2.74v-2.26h2.74Z" transform="translate(-4.4232 -4.8525)"/><path d="M8.5548,220.896H6.6209V222.83h3.8678v-2.7372l5.8005,4.9695,5.8006-4.9695v6.6038H6.6209V228.63H24.0236V217.0282H8.5548Zm3.5771-1.9339h8.3147L16.2892,222.52Zm-7.4448,4.7232h5.5475v2.219H4.6871Z" transform="translate(-4.4232 -4.8525)"/><g id="Group_10227" data-name="Group 10227"><path id="Path_1633" data-name="Path 1633" d="M81.2494,216.0007a4.405,4.405,0,1,0,4.2421,4.5621q.003-.081.0029-.1621A4.3249,4.3249,0,0,0,81.2494,216.0007Zm2.452,3.258-2.547,3.01-.042.055a.5.5,0,0,1-.186.138.4421.4421,0,0,1-.191.039.5148.5148,0,0,1-.09-.011.4562.4562,0,0,1-.228-.116c-.011-.011-.021-.016-.0269-.028l-1.4811-1.535a.525.525,0,0,1,0-.721.4781.4781,0,0,1,.6756-.0245l.0244.0245,1.1,1.145,2.2449-2.658a.481.481,0,0,1,.6773-.0641l.0227.02A.5279.5279,0,0,1,83.7014,219.2587Z" transform="translate(-4.4232 -4.8525)"/><g id="boxes-link"><rect id="Rectangle_1840" data-name="Rectangle 1840" x="69.2722" y="220.5132" width="4.615" height="4.615" rx="0.348"/><rect id="Rectangle_1841" data-name="Rectangle 1841" x="66.2352" y="214.3992" width="4.615" height="4.615" rx="0.348"/><rect id="Rectangle_1842" data-name="Rectangle 1842" x="63.1982" y="220.5332" width="4.615" height="4.615" rx="0.348"/></g></g><path id="Path_1555" data-name="Path 1555" class="cls-2" d="M109.1042,217.5476h.754a.242.242,0,0,0,.247-.2369v-.51a.248.248,0,0,0-.242-.254H98.3582a.2519.2519,0,0,0-.247.254v.5a.246.246,0,0,0,.245.247h.756a7.0759,7.0759,0,0,0,2.916,6,7.0887,7.0887,0,0,0-2.916,6.006h-.754a.2459.2459,0,0,0-.247.245v.502a.246.246,0,0,0,.245.247h11.502a.242.242,0,0,0,.247-.2369v-.51a.242.242,0,0,0-.2369-.247h-.7641a7.1,7.1,0,0,0-2.909-6.006A7.09,7.09,0,0,0,109.1042,217.5476Zm-.994,12h-1.662c-.861-.921-3.663-.881-4.664-.007a.0637.0637,0,0,1,.027.007h-1.7a5.8577,5.8577,0,0,1,3.1-5.505h1.8a5.858,5.858,0,0,1,3.099,5.51Z" transform="translate(-4.4232 -4.8525)"/><g id="Group_10212" data-name="Group 10212"><path id="Path_1635-2" data-name="Path 1635" d="M139.9394,226.5534a1.03,1.03,0,1,1-1.03-1.03h0a1.03,1.03,0,0,1,1.03,1.03m1.76,1.591v-8.237a1.008,1.008,0,0,0-.9855-1.03c-.0149,0-.03,0-.0445,0h-1.76v3.269a1.0081,1.0081,0,0,1-.9855,1.03c-.0149,0-.03,0-.0445,0h-6.776a1.008,1.008,0,0,1-1.03-.9855c0-.0149,0-.03,0-.0445v-3.269h-1.759a1.008,1.008,0,0,0-1.03.9855c0,.0148,0,.03,0,.0445v8.237a1.008,1.008,0,0,0,.9855,1.03c.0148,0,.03,0,.0445,0h12.355a1.0081,1.0081,0,0,0,1.03-.9855c0-.0149,0-.03,0-.0445" transform="translate(-4.4232 -4.8525)"/><path id="Path_1636" data-name="Path 1636" d="M137.93,221.0214v-4.818a1.008,1.008,0,0,0-.9855-1.03c-.0149,0-.03,0-.0445,0h-4.817a1.008,1.008,0,0,0-1.03.9855c0,.0148,0,.03,0,.0445v4.818a1.008,1.008,0,0,0,.9855,1.03c.0148,0,.03,0,.0445,0h4.818a1.0081,1.0081,0,0,0,1.03-.9855c0-.0149,0-.03,0-.0445" transform="translate(-4.4232 -4.8525)"/></g><path id="Path_1635-3" data-name="Path 1635" d="M231.5762,223.62a5.2579,5.2579,0,0,0-5.07-4.58h-.14a5.2848,5.2848,0,0,0-5.26,5.25,3.7933,3.7933,0,0,0,.06.67,5.2479,5.2479,0,1,0,10.41-1.34Zm-2.78,1.88h-5.09a1,1,0,1,1,0-2h5.09a1,1,0,0,1,0,2Z" transform="translate(-4.4232 -4.8525)"/><path id="Group_11858" data-name="Group 11858" d="M200.433,220.7519v1.5635h-2.7113a6.5415,6.5415,0,0,1,.3563,2.0779,6.034,6.034,0,0,1-.3563,2.078h2.7311v1.5634a.3728.3728,0,0,0,.6135.2771l4.3143-3.6414a.376.376,0,0,0,.044-.53.3809.3809,0,0,0-.044-.044l-4.3143-3.6216a.3849.3849,0,0,0-.6333.277Zm-8.6088,8.7671a5.1257,5.1257,0,1,0-5.1257-5.1257A5.1256,5.1256,0,0,0,191.8242,229.519Zm.376-4.71h-.752a1.4745,1.4745,0,0,1-.04-2.9487v-.91h.8114v.91a1.4842,1.4842,0,0,1,1.4447,1.4645h-.8114a.6588.6588,0,0,0-.6531-.6531h-.752a.6531.6531,0,1,0-.0008,1.3061H192.2a1.4746,1.4746,0,0,1,.04,2.9488v.91h-.8114v-.91a1.4844,1.4844,0,0,1-1.4447-1.4645h.8114a.6588.6588,0,0,0,.6531.6531h.752a.6588.6588,0,0,0,.6531-.6531.6462.6462,0,0,0-.6391-.6531Z" transform="translate(-4.4232 -4.8525)"/><g id="Group_2048-2" data-name="Group 2048"><g id="Group_1871-2" data-name="Group 1871"><g id="Zoom_In-2" data-name="Zoom In"><g id="Calendar-3" data-name="Calendar"><g id="Group_1870-2" data-name="Group 1870"><path id="Path_670-2" data-name="Path 670" d="M173.4347,226.7788l-7.181-12.4348a1.7241,1.7241,0,0,0-3.2627,0l-7.17,12.4348c-.9093,1.556-.1734,2.8259,1.6289,2.8259h14.3442C173.5967,229.6047,174.3326,228.3348,173.4347,226.7788Zm-9.6568-9.2564h1.87v6.9962h-1.872v-6.9962Zm.8444,10.1049a1.021,1.021,0,1,1,.7245-.2982A1.0211,1.0211,0,0,1,164.6223,227.6273Z" transform="translate(-4.4232 -4.8525)"/></g></g></g></g></g><path d="M47.1827,252.5282a.5677.5677,0,0,1-.56-.57v-4.75h-3.62a1.1057,1.1057,0,0,0-1.09,1.12v9.7a1.1057,1.1057,0,0,0,1.09,1.12h6.56a1.1058,1.1058,0,0,0,1.09-1.12v-5.5Zm-1.38-2.44-.19,4.8h-1.35l-.19-4.8Zm-.84,7.22a.9008.9008,0,0,1-.98-.87.9266.9266,0,0,1,.98-.92.9386.9386,0,0,1,.98.92A.9125.9125,0,0,1,44.9628,257.3082Zm5.53-5.65h-2.72a.4186.4186,0,0,1-.41-.41v-3.31l.08.09.75.9,1.09,1.29.63.75Z" transform="translate(-4.4232 -4.8525)"/><path id="Path_1899" data-name="Path 1899" d="M60.5385,250.6141l-2.4567-2.92v2.698a.3133.3133,0,0,0,.3117.3117h2.1647v-.1Zm-2.1468.8458a1.0743,1.0743,0,0,1-1.0673-1.0674v-2.7186H52.8566a1.1163,1.1163,0,0,0-1.0974,1.1275v9.7668a1.1163,1.1163,0,0,0,1.0974,1.1274h6.6051a1.1163,1.1163,0,0,0,1.0974-1.1274V251.46Zm-2.7186-.8862-.1915,4.8327H54.1249l-.1915-4.8327Zm-.8458,7.27a.9068.9068,0,0,1-.9835-.8229c-.0016-.0177-.0026-.0353-.0031-.053a.9325.9325,0,0,1,.9369-.9281c.0166,0,.0332.0006.05.0016a.9445.9445,0,0,1,.9858.9014l.0008.0251a.9188.9188,0,0,1-.9584.8774l-.0256-.0015Z" transform="translate(-4.4232 -4.8525)"/><path id="Group_11910" data-name="Group 11910" d="M135.9348,256.8218h8.5173l-8.5173,7.7429Zm-9.53-10.436v18.5218h7.7977v-9.7484h10.7241v-8.7734Z" transform="translate(-4.4232 -4.8525)"/><path d="M245.5228,226.1582v1.48h1.25v-1.74A4.7279,4.7279,0,0,1,245.5228,226.1582Zm3.86-8.17a4.7138,4.7138,0,0,1,.59,1.1.8805.8805,0,0,1,.05.15h8.81v7.77h-9.42l-3.74,4.42.95.81,3.37-3.98h10.09v-10.27Zm.95,3.02v.03a5.8847,5.8847,0,0,1-.17,1.22h6.56v-1.25Zm-.91,2.88a4.2112,4.2112,0,0,1-.53.67v.58h7.83v-1.25Z" transform="translate(-4.4232 -4.8525)"/><path d="M249.3328,220.9682a4.1089,4.1089,0,0,0-.29-1.52,3.8841,3.8841,0,0,0-.65-1.12,4.1947,4.1947,0,1,0-3.21,6.84,2.1767,2.1767,0,0,0,.26-.01,4.1534,4.1534,0,0,0,1.13-.24,4.2335,4.2335,0,0,0,2.59-2.77,4.4446,4.4446,0,0,0,.17-1.12l.5-.06Zm-1.71.62h-1.8v1.8a.63.63,0,0,1-.3.54.6825.6825,0,0,1-.35.1.6465.6465,0,0,1-.65-.64v-1.8h-1.8a.645.645,0,0,1,0-1.29h1.8v-1.8a.6551.6551,0,0,1,.65-.65.6282.6282,0,0,1,.4.14.65.65,0,0,1,.25.51v1.8h1.8a.645.645,0,0,1,0,1.29Z" transform="translate(-4.4232 -4.8525)"/><g id="Group_11995" data-name="Group 11995"><path id="Path_1981" data-name="Path 1981" d="M165.7478,246.3478a7.982,7.982,0,1,0,.036,0Zm0,.978a7.022,7.022,0,1,1-7.022,7.022h0A7.026,7.026,0,0,1,165.7478,247.3258Zm0,.533a6.485,6.485,0,1,0,.008,0Zm0,1.156a1.193,1.193,0,1,1-.842.353A1.1288,1.1288,0,0,1,165.7478,249.0148Zm-1.774,3.556h2.667v5.777a.846.846,0,0,0,.8007.889.8669.8669,0,0,0,.0883,0v.444h-3.56v-.444a.866.866,0,0,0,.889-.8424c0-.0155,0-.0311,0-.0466v-4.444c0-.444-.657-.875-.889-.889Z" transform="translate(-4.4232 -4.8525)"/></g><path d="M285.9834,222.4285a5.07,5.07,0,0,0-.04-.68,5.6025,5.6025,0,0,0-.33-1.28,4.8342,4.8342,0,0,0-.84-1.44,5.3363,5.3363,0,0,0-4.18-1.99,5.3952,5.3952,0,1,0,.06,10.79c.11,0,.23,0,.33-.01a.59.59,0,0,0,.14-.02,5.1425,5.1425,0,0,0,1.31-.29,5.3617,5.3617,0,0,0,1.72-1.03,5.1461,5.1461,0,0,0,1.12-1.38,5.3077,5.3077,0,0,0,.49-1.15,5.5722,5.5722,0,0,0,.22-1.45l.65-.07Zm-2.2.8h-2.31v2.31a.8325.8325,0,0,1-.39.7.9412.9412,0,0,1-.45.12.8258.8258,0,0,1-.83-.82v-2.31h-2.32a.8346.8346,0,0,1-.82-.84.8237.8237,0,0,1,.82-.82h2.32v-2.32a.8329.8329,0,0,1,1.35-.66.86.86,0,0,1,.32.66v2.32h2.31a.8393.8393,0,0,1,.52.18.8107.8107,0,0,1,.31.64A.83.83,0,0,1,283.7834,223.2285Z" transform="translate(-4.4232 -4.8525)"/><path d="M258.9512,70.72h-8.7961a2.4471,2.4471,0,0,0-2.44,2.44v3.19a2.4471,2.4471,0,0,0,2.44,2.44h6.2463l1.7629,1.9642a.2787.2787,0,0,0,.4209,0l2.6473-3.5563a2.3025,2.3025,0,0,0,.1586-.8479V73.16A2.4472,2.4472,0,0,0,258.9512,70.72Zm-7.6188,4.9288a.8937.8937,0,1,1,.8967-.8967A.8982.8982,0,0,1,251.3324,75.6483Zm2.9646,0a.8937.8937,0,1,1,0-1.7873.8937.8937,0,0,1,0,1.7873Zm2.9645,0a.8937.8937,0,1,1,0-1.7873.8937.8937,0,0,1,0,1.7873Z" transform="translate(-4.4232 -4.8525)"/><path d="M258.817,70.1584h-9.284a2.5825,2.5825,0,0,0-2.5742,2.5741V76.1a2.3671,2.3671,0,0,0,.0854.6283,2.4407,2.4407,0,0,1-1.6531-2.3057v-3.19a2.4472,2.4472,0,0,1,2.44-2.44h8.796A2.4451,2.4451,0,0,1,258.817,70.1584Z" transform="translate(-4.4232 -4.8525)"/><path id="Group_12198" data-name="Group 12198" d="M194.6212,245.8665a6.7258,6.7258,0,0,0-5.83,3.36,1.9462,1.9462,0,0,1,1.3441.5939,5.2772,5.2772,0,1,1,7.2521,7.2834,1.9467,1.9467,0,0,1,.5471.9065,4.2477,4.2477,0,0,1,.0625.4376,6.7467,6.7467,0,0,0-3.376-12.5818Zm2.7508,4.767a.7552.7552,0,0,0-1.0472,0l-2.1256,2.1257-.9847-.9847a.7405.7405,0,0,0-1.0472,1.0472l1.5161,1.5161a.7173.7173,0,0,0,1.0142.0173l.0174-.0173,2.657-2.6571A.755.755,0,0,0,197.372,250.6335Zm-.9847,7.2678-2.0943-1.0784a.678.678,0,0,0-.86.1875l-.7658.9847a7.75,7.75,0,0,1-1.9693-1.4379,7.451,7.451,0,0,1-1.4536-2.0006l.969-.7659a.678.678,0,0,0,.1876-.86l-1.0784-2.0787a.6918.6918,0,0,0-1-.25l-1.3285.8909a1.0128,1.0128,0,0,0-.4533.9377,9.0977,9.0977,0,0,0,.1563,1.1879,10.6621,10.6621,0,0,0,6.9552,6.9395,5.7376,5.7376,0,0,0,1.1878.1563,1.0252,1.0252,0,0,0,.9378-.4689l.86-1.3441a.6922.6922,0,0,0-.1851-.9613A.6774.6774,0,0,0,196.3873,257.9013Z" transform="translate(-4.4232 -4.8525)"/><path d="M220.3922,259.06h3.1915l2.66,3.6135,2.66-3.6135h3.1916a2.0118,2.0118,0,0,0,2.0177-2.0176v-9.96a2.0119,2.0119,0,0,0-2.0177-2.0176H220.3922a2.0236,2.0236,0,0,0-2.0177,2.0176v9.9416A2.0159,2.0159,0,0,0,220.3922,259.06Zm5.8512-11.4273a2.0544,2.0544,0,1,1-2.0544,2.0544A2.0509,2.0509,0,0,1,226.2434,247.6331Zm0,4.769a4.0941,4.0941,0,0,1,4.09,4.09H222.153A4.0942,4.0942,0,0,1,226.2434,252.4021Z" transform="translate(-4.4232 -4.8525)"/><polygon class="cls-4" points="101.69 247.186 100.2 247.186 100.2 250.886 98.2 250.886 98.2 247.186 96.71 247.186 99.2 242.866 101.69 247.186"/><path id="Group_12844" data-name="Group 12844" d="M278.9916,14.7145c.811,0,1.682-1.078,1.682-2.186a1.688,1.688,0,0,0-3.3632-.2941l-.0028.0371a1.5752,1.5752,0,0,0,0,.257C277.3086,13.6355,278.1536,14.7145,278.9916,14.7145Zm10.532,0c.811,0,1.682-1.078,1.682-2.186a1.688,1.688,0,0,0-3.3632-.2941l-.0028.0371a1.5752,1.5752,0,0,0,0,.257C287.8406,13.6355,288.6856,14.7145,289.5236,14.7145Zm-5.238.425c1.245,0,2.58-1.653,2.58-3.352a2.589,2.589,0,0,0-5.16-.421,2.69,2.69,0,0,0,0,.421C281.7056,13.4865,283.0006,15.14,284.2856,15.14Zm4.616,2.892a4.8579,4.8579,0,0,0-.963-1.37,2.61,2.61,0,0,0-2.163-.68c-.562.122-.589.447-1.49.447s-.927-.324-1.49-.447a2.61,2.61,0,0,0-2.163.68,4.8753,4.8753,0,0,0-.962,1.37c-.157.31-.482,1.214-.28,1.6.256.49.878.7,2.59.905a21.1647,21.1647,0,0,0,4.612,0c1.713-.209,2.333-.413,2.59-.905C289.3846,19.2475,289.0586,18.3415,288.9016,18.0315Zm3.631-1.431a3.1394,3.1394,0,0,0-.6271-.894,1.7,1.7,0,0,0-1.4079-.444c-.367.08-.384.291-.971.291s-.6051-.211-.972-.291a1.61,1.61,0,0,0-1.22.291,3.2413,3.2413,0,0,1,1.06.673,5.4786,5.4786,0,0,1,1.071,1.523,4.2812,4.2812,0,0,1,.227.567c.276-.005.85-.021,1.337-.08,1.117-.137,1.522-.27,1.689-.59C292.8476,17.3945,292.6356,16.8015,292.5326,16.6005Zm-13.419,1.148a5.5006,5.5006,0,0,1,1.071-1.523,3.2189,3.2189,0,0,1,1.025-.658,1.6252,1.6252,0,0,0-1.243-.306c-.367.08-.383.291-.971.291s-.605-.211-.971-.291a1.7,1.7,0,0,0-1.408.444,3.1472,3.1472,0,0,0-.627.893c-.1.2-.315.792-.184,1.046.167.321.573.453,1.689.59.522.061,1.144.077,1.392.081A4.554,4.554,0,0,1,279.1136,17.7485Z" transform="translate(-4.4232 -4.8525)"/><path d="M248.7083,247.3453v14.0652a.157.157,0,0,0,.146.146c.0365,0,.0547,0,.0729-.0183l4.5972-3.12a.3843.3843,0,0,1,.4379,0l4.5972,3.12c.0729.0365.1641.0365.2006-.0364a.11.11,0,0,0,.0183-.073V247.3453a.3741.3741,0,0,0-.3831-.3831h-9.3039A.3854.3854,0,0,0,248.7083,247.3453Zm7.662,10.3984-2.408-1.66a.3843.3843,0,0,0-.4379,0l-2.408,1.66a.0451.0451,0,0,1-.073-.0182c0-.0182-.0182-.0182-.0182-.0365v-8.0268a.3741.3741,0,0,1,.3831-.3831H256.06a.3853.3853,0,0,1,.3831.3831v8.0268a.0484.0484,0,0,1-.0547.0547c0,.0183-.0183.0183-.0183,0Z" transform="translate(-4.4232 -4.8525)"/><path d="M281.1367,246.7926a4.6823,4.6823,0,0,0-4.6823,4.6823h0a4.6823,4.6823,0,0,0,3.0878,4.3981l1.5945,2.7617,1.5958-2.764a4.6787,4.6787,0,0,0-1.5958-9.0781Zm0,1.2091a3.4732,3.4732,0,0,1,3.4732,3.4732h0a3.4732,3.4732,0,1,1-3.4732-3.4732Z" transform="translate(-4.4232 -4.8525)"/><path class="cls-2" d="M280.5972,249.8115h1.9415l-.8625.8624h-1.9415Z" transform="translate(-4.4232 -4.8525)"/><path class="cls-2" d="M282.8,250.0729v1.9415l-.8624.8625v-1.9415l.8624-.8625Z" transform="translate(-4.4232 -4.8525)"/><path class="cls-2" d="M279.4733,251.0437h2.0946v2.0946h-2.0946Z" transform="translate(-4.4232 -4.8525)"/><path d="M20.5868,246.6982a9,9,0,1,0,0,12.7279A9.0007,9.0007,0,0,0,20.5868,246.6982Zm-3.916,10.5631-2.4479-2.4479-2.4386,2.4385a1.2383,1.2383,0,1,1-1.7512-1.7512l2.4386-2.4385-2.4386-2.4386a1.2383,1.2383,0,1,1,1.7512-1.7512l2.4386,2.4386,2.4385-2.4385a1.2383,1.2383,0,0,1,1.7512,1.7512l-2.4385,2.4385L18.422,255.51a1.2384,1.2384,0,0,1-1.7512,1.7512Z" transform="translate(-4.4232 -4.8525)"/></svg>