<svg id="Icons" xmlns="http://www.w3.org/2000/svg" xmlns:xlink="http://www.w3.org/1999/xlink" width="160.1821" height="119.4495" viewBox="0 0 160.1821 119.4495"><defs><style>.cls-1{isolation:isolate;}.cls-2{fill-rule:evenodd;}</style><symbol id="checkmark" data-name="checkmark" viewBox="0 0 12.674 10.443"><path d="M12.4009,1.7964,5.059,10.0373a1.2123,1.2123,0,0,1-1.81,0L.2733,6.6472a1.0787,1.0787,0,0,1,.09-1.5248h0a1.0789,1.0789,0,0,1,1.5214.09L4.1538,7.8133,10.79.3614a1.0788,1.0788,0,0,1,1.5214-.09h0A1.0789,1.0789,0,0,1,12.4009,1.7964Z"/></symbol><symbol id="arrow" data-name="arrow" viewBox="0 0 18.896 19.166"><path d="M18.44,8.5648,9.1714.3074A1.2134,1.2134,0,1,0,7.5573,2.12l7.0218,6.2528H1.2106a1.2106,1.2106,0,0,0,0,2.4212H14.5789L7.5574,17.0461a1.2133,1.2133,0,1,0,1.614,1.8121L18.44,10.6008A1.3633,1.3633,0,0,0,18.44,8.5648Z"/></symbol><symbol id="arrow-incomplete" data-name="arrow-incomplete" viewBox="0 0 19.019 11.656"><path d="M18.7144,2.0051,10.52,11.2029a1.353,1.353,0,0,1-2.02,0L.3051,2.0051a1.2041,1.2041,0,0,1,.1-1.7019h0a1.2039,1.2039,0,0,1,1.698.1L9.51,8.7206,16.9161.4033a1.2041,1.2041,0,0,1,1.6981-.1h0A1.2041,1.2041,0,0,1,18.7144,2.0051Z"/></symbol><symbol id="bell" data-name="bell" viewBox="0 0 16.903 19.348"><path d="M16.903,15.4135v.4777a.77.77,0,0,1-.8095.7123H.81A.77.77,0,0,1,0,15.8912v-.4777a.8058.8058,0,0,1,.9067-.7124c.008-1.2629.008-2.5257.0161-3.7967C.9471,7.4072,1.3276,3.5619,5.57,2.0319A2.8754,2.8754,0,0,1,8.4434,0H8.46a2.8754,2.8754,0,0,1,2.8739,2.0319c4.2419,1.53,4.6224,5.3753,4.6467,8.8725.0081,1.271.0081,2.5338.0161,3.7967A.8058.8058,0,0,1,16.903,15.4135Z"/><path d="M11.2363,17.4131a2.9716,2.9716,0,0,1-5.57,0Z"/></symbol><symbol id="chat" data-name="chat" viewBox="0 0 19.739 14.876"><path d="M16.729,2.378H5.8773a3.019,3.019,0,0,0-3.01,3.01V9.3239a3.019,3.019,0,0,0,3.01,3.01h7.7061l2.1748,2.4232a.3437.3437,0,0,0,.5193,0l3.266-4.3873a2.8413,2.8413,0,0,0,.1956-1.0461V5.3882A3.019,3.019,0,0,0,16.729,2.378ZM7.33,8.4586A1.1025,1.1025,0,1,1,8.436,7.3523,1.1081,1.1081,0,0,1,7.33,8.4586Zm3.6574,0a1.1025,1.1025,0,1,1,0-2.205,1.1025,1.1025,0,0,1,0,2.205Zm3.6574,0a1.1025,1.1025,0,1,1,0-2.205,1.1025,1.1025,0,0,1,0,2.205Z"/><path d="M16.5634,1.6857H5.11A3.1861,3.1861,0,0,0,1.934,4.8614v4.154a2.9211,2.9211,0,0,0,.1054.7751A3.0111,3.0111,0,0,1,0,6.9459V3.01A3.0191,3.0191,0,0,1,3.01,0H13.8618A3.0163,3.0163,0,0,1,16.5634,1.6857Z"/></symbol><symbol id="addressbook" data-name="addressbook" viewBox="0 0 17.07 19.5"><path id="address-book" d="M16.61,6.09a.4567.4567,0,0,0,.46-.45V4.11a.4721.4721,0,0,0-.46-.46h-.76V1.83A1.8308,1.8308,0,0,0,14.02,0H1.83A1.8308,1.8308,0,0,0,0,1.83V17.67A1.8309,1.8309,0,0,0,1.83,19.5H14.02a1.8309,1.8309,0,0,0,1.83-1.83V15.84h.76a.4567.4567,0,0,0,.46-.45V13.86a.4567.4567,0,0,0-.46-.45h-.76V10.97h.76a.4654.4654,0,0,0,.46-.46V8.99a.4653.4653,0,0,0-.46-.46h-.76V6.09ZM7.93,4.87A2.4467,2.4467,0,1,1,5.49,7.31,2.4348,2.4348,0,0,1,7.93,4.87Zm4.26,9.02a.7957.7957,0,0,1-.85.74H4.51a.807.807,0,0,1-.85-.73v-.73a2.4054,2.4054,0,0,1,2.56-2.2,9.025,9.025,0,0,0,1.71.31,8.9242,8.9242,0,0,0,1.7-.31,2.4054,2.4054,0,0,1,2.56,2.2Z"/></symbol><symbol id="_" data-name="$" viewBox="0 0 10.934 19.448"><path id="dollar-sign" d="M7.9436,8.8646,3.8415,7.664a1.12,1.12,0,0,1,.315-2.1955H6.675a2.3176,2.3176,0,0,1,1.299.399.5924.5924,0,0,0,.7408-.0746L10.0385,4.5a.6156.6156,0,0,0-.0724-.93,5.3707,5.3707,0,0,0-3.2832-1.139V.6075A.61.61,0,0,0,6.0747,0H4.86a.61.61,0,0,0-.6075.6075V2.4309H4.1572A4.1615,4.1615,0,0,0,0,6.5966q0,.1886.0175.3766a4.3444,4.3444,0,0,0,3.1861,3.6691l3.8892,1.139A1.12,1.12,0,0,1,6.78,13.9754H4.2593a2.3176,2.3176,0,0,1-1.299-.399.5924.5924,0,0,0-.7408.0724L.8987,14.945a.6159.6159,0,0,0,.0681.9305,5.3711,5.3711,0,0,0,3.2853,1.1412V18.84a.61.61,0,0,0,.6075.6075H6.0747a.61.61,0,0,0,.6075-.6075V17.0073a4.2905,4.2905,0,0,0,4.0145-2.7611A4.17,4.17,0,0,0,8.1451,8.9293q-.0991-.0349-.2-.0647Z"/></symbol><symbol id="balance-scale" data-name="balance-scale" viewBox="0 0 18.991 15.191"><path id="balance-scale-3" data-name="balance-scale" d="M7.5966,9.9721h0c0-.48.04-.2591-2.5237-5.3861a1.4254,1.4254,0,0,0-2.548,0C-.061,9.7567,0,9.5071,0,9.9721H0c0,1.3111,1.7008,2.3736,3.798,2.3736S7.5966,11.2832,7.5966,9.9721ZM3.7981,5.2242,5.9343,9.4971H1.6619ZM18.99,9.9721c0-.48.04-.2591-2.5237-5.3861a1.4253,1.4253,0,0,0-2.5479,0c-2.5854,5.1707-2.5232,4.9211-2.5232,5.3861h0c0,1.3111,1.7007,2.3736,3.7979,2.3736s3.798-1.0631,3.798-2.3736Zm-5.9341-.4739L15.192,5.2253l2.1362,4.2729Zm2.6111,3.7979H10.4452V4.5492a2.3761,2.3761,0,0,0,1.3764-1.6987h3.8437a.4738.4738,0,0,0,.4739-.4738V1.4236A.4739.4739,0,0,0,15.6653.95H11.384a2.3526,2.3526,0,0,0-3.7769,0H3.3237a.4739.4739,0,0,0-.4739.4739h0v.9478a.4739.4739,0,0,0,.4739.4739H7.1674A2.3764,2.3764,0,0,0,8.5459,4.5492v8.7459H3.3237a.4738.4738,0,0,0-.4739.4739v.9477a.4738.4738,0,0,0,.4739.4739H15.6674a.4738.4738,0,0,0,.4739-.4739V13.769a.4739.4739,0,0,0-.4739-.4734Z"/></symbol><symbol id="calculator" data-name="calculator" viewBox="0 0 16.373 18.716"><path id="calculator-3" data-name="calculator" d="M14.6183,0H1.7548A1.7992,1.7992,0,0,0,0,1.7548V16.9611a1.7992,1.7992,0,0,0,1.7548,1.7548H14.6183a1.7992,1.7992,0,0,0,1.7548-1.7548V1.7548A1.7992,1.7992,0,0,0,14.6183,0ZM4.6791,15.9063a.5028.5028,0,0,1-.4681.4681H2.8071a.5029.5029,0,0,1-.4682-.4681V14.5024a.503.503,0,0,1,.4682-.4682H4.211a.5029.5029,0,0,1,.4681.4682Zm0-4.6792a.5029.5029,0,0,1-.4681.4682H2.8071a.503.503,0,0,1-.4682-.4682V9.8232a.5029.5029,0,0,1,.4682-.4681H4.211a.5028.5028,0,0,1,.4681.4681Zm4.6785,4.6792a.5028.5028,0,0,1-.4681.4681H7.4856a.5028.5028,0,0,1-.4662-.4681V14.5024a.5029.5029,0,0,1,.4681-.4682H8.8869a.503.503,0,0,1,.4682.4682v1.4039Zm0-4.6792a.5029.5029,0,0,1-.4681.4682H7.4856a.503.503,0,0,1-.4682-.4682V9.8232a.5029.5029,0,0,1,.4682-.4681H8.8869a.5029.5029,0,0,1,.4682.4681v1.4039Zm4.6811,4.6792a.5028.5028,0,0,1-.4682.4681H12.1647a.5028.5028,0,0,1-.4681-.4681V9.8258a.503.503,0,0,1,.4681-.4682h1.4039a.5031.5031,0,0,1,.4682.4682v6.0805Zm0-9.3577a.5029.5029,0,0,1-.4682.4682H2.8071a.503.503,0,0,1-.4682-.4682V2.8071a.503.503,0,0,1,.4682-.4682H13.5686a.503.503,0,0,1,.4682.4682Z"/></symbol><symbol id="calendar" data-name="calendar" viewBox="0 0 17.283 19.751"><path id="calendar-3" data-name="calendar" d="M15.4309,2.4691H13.5791V.4626A.464.464,0,0,0,13.1158,0H11.5734a.4639.4639,0,0,0-.4626.4626V2.4691H6.1726V.4626A.4639.4639,0,0,0,5.7128,0H4.1662a.464.464,0,0,0-.4626.4626V2.4691H1.8518A1.8524,1.8524,0,0,0,0,4.32V17.9a1.8525,1.8525,0,0,0,1.8518,1.8511H15.4309a1.8525,1.8525,0,0,0,1.8518-1.8518V4.32A1.8524,1.8524,0,0,0,15.4309,2.4691ZM15.2,17.9H2.0831a.232.232,0,0,1-.2313-.2313V6.1726H15.4309V17.668A.232.232,0,0,1,15.2,17.9Z"/></symbol><symbol id="vehicle" data-name="vehicle" viewBox="0 0 19.728 15.783"><path id="truck-solid" d="M19.2351,10.8505h-.4933V7.5183a1.48,1.48,0,0,0-.4346-1.045L15.2278,3.3939a1.48,1.48,0,0,0-1.045-.4347H12.8234V1.48A1.48,1.48,0,0,0,11.3438,0H1.48A1.48,1.48,0,0,0,0,1.48v9.8642a1.48,1.48,0,0,0,1.48,1.48h.4932a2.9593,2.9593,0,0,0,5.9185,0H11.837a2.9592,2.9592,0,1,0,5.9184,0h1.48a.4947.4947,0,0,0,.4932-.4932v-.9864A.4947.4947,0,0,0,19.2351,10.8505ZM4.9321,14.303a1.48,1.48,0,1,1,1.48-1.48A1.48,1.48,0,0,1,4.9321,14.303Zm9.8641,0a1.48,1.48,0,1,1,1.48-1.48A1.48,1.48,0,0,1,14.7962,14.303Zm2.466-6.4117H12.8234V4.4389h1.3594l3.0794,3.0794Z"/></symbol><symbol id="tools" data-name="tools" viewBox="0 0 19.559 17.082"><g id="Group_1732" data-name="Group 1732"><g id="Group_1732-2" data-name="Group 1732-2"><path id="Path_635" data-name="Path 635" d="M16.1056,4.4038V4.53a86.5683,86.5683,0,0,0,0,11.57h0a.3112.3112,0,0,1-.0615.2176,1.3957,1.3957,0,0,1-.432.4122,2.664,2.664,0,0,1-1.3871.3517,2.6929,2.6929,0,0,1-1.3871-.3517,1.4232,1.4232,0,0,1-.4472-.432l.2638-.1638-.2638.1638a.2991.2991,0,0,1-.0419-.2176,86.8646,86.8646,0,0,0,0-11.5468V4.4069H16.12Z"/><path id="Path_636" data-name="Path 636" d="M18.9557.0018a1.578,1.578,0,0,1,.6035.1187V4.1016a1.5735,1.5735,0,0,1-.6035.1187,1.5136,1.5136,0,0,1-.9168-.31,1.5672,1.5672,0,0,1-.4968-.6453,1.3556,1.3556,0,0,0-1.6816.3859.3125.3125,0,0,1-.2561.1331c-.9432,0-1.7268-.011-2.6633-.0418a.31.31,0,0,1-.1793-.046h0c-.0077,0-1.67-1.0585-4.1723,1.1694a.31.31,0,0,1-.4381.012.3151.3151,0,0,1-.04-.0462C8.07,4.7743,7.1869,3.4829,10.9087.8734,11.665.2281,14.5578.1623,15.4558.2315c.3414.0077,1.3913,1.5134,2.0554.8135a1.53,1.53,0,0,1,1.4409-1.04Z"/><path id="Path_637" data-name="Path 637" class="cls-2" d="M5.6505,14.8613V5.7371A3.4342,3.4342,0,0,0,4.9514.0385.3309.3309,0,0,0,4.8021,0a.3083.3083,0,0,0-.31.3065V3.4008H2.2994V.3551A.3406.3406,0,0,0,2.2652.2057.31.31,0,0,0,1.8469.075L1.8453.076h0a3.4332,3.4332,0,0,0-.6309,5.6628v9.1241a2.197,2.197,0,0,0,.6539,1.5664,2.22,2.22,0,0,0,1.5664.653,2.1972,2.1972,0,0,0,1.5663-.653,2.22,2.22,0,0,0,.6539-1.5664ZM3.4312,13.5886a.5235.5235,0,1,0,0,.0008Z"/></g></g></symbol><symbol id="user" data-name="user" viewBox="0 0 15.196 18.274"><g id="Group_1908" data-name="Group 1908"><path id="Path_688" data-name="Path 688" d="M7.5971,9.6261c1.9062,0,3.952-2.5864,3.952-5.2455A4.0257,4.0257,0,0,0,7.92.0136,3.992,3.992,0,0,0,3.6452,3.7219a4.1388,4.1388,0,0,0,0,.6587C3.6452,7.0388,5.6291,9.6261,7.5971,9.6261Z"/><path id="Path_689" data-name="Path 689" d="M14.6675,14.1522a7.6012,7.6012,0,0,0-1.4748-2.1438,3.9445,3.9445,0,0,0-3.3135-1.0652c-.8616.1916-.9019.6993-2.2821.6993s-1.42-.5067-2.2821-.6993a3.945,3.945,0,0,0-3.3134,1.0652A7.5893,7.5893,0,0,0,.5277,14.1522c-.24.4847-.7388,1.9-.4294,2.5088.3919.7663,1.3454,1.0892,3.9679,1.4168a31.8758,31.8758,0,0,0,7.0638,0c2.6252-.3276,3.575-.6466,3.9679-1.4168C15.4073,16.0556,14.9076,14.6369,14.6675,14.1522Z"/></g></symbol><symbol id="users" data-name="users" viewBox="0 0 19.756 13.569"><g id="Group_1908-2" data-name="Group 1908"><path id="Path_686" data-name="Path 686" d="M3.7561,6.6535c.9431,0,1.9553-1.2526,1.9553-2.54a1.9617,1.9617,0,1,0-3.9121,0C1.8007,5.4,2.7823,6.6535,3.7561,6.6535Z"/><path id="Path_687" data-name="Path 687" d="M15.9953,6.6535c.9432,0,1.9554-1.2526,1.9554-2.54a1.9618,1.9618,0,0,0-3.9122-.2987,1.9855,1.9855,0,0,0,0,.2987C14.04,5.4,15.0216,6.6535,15.9953,6.6535Z"/><path id="Path_688-2" data-name="Path 688" d="M9.9088,7.1478c1.446,0,2.9981-1.9205,2.9981-3.895a3.0081,3.0081,0,1,0-5.9963,0C6.9106,5.2266,8.4158,7.1478,9.9088,7.1478Z"/><path id="Path_689-2" data-name="Path 689" d="M15.2726,10.5087a5.6427,5.6427,0,0,0-1.1188-1.5919A3.0335,3.0335,0,0,0,11.64,8.1259c-.6537.1422-.6843.5192-1.7313.5192s-1.0777-.3762-1.7313-.5192a3.0347,3.0347,0,0,0-2.5138.7909,5.637,5.637,0,0,0-1.1181,1.5919c-.1821.36-.5605,1.4105-.3258,1.8629.2973.569,1.0207.8088,3.01,1.052a24.6938,24.6938,0,0,0,5.3589,0c1.9917-.2432,2.7122-.48,3.01-1.052C15.8339,11.9221,15.4547,10.8686,15.2726,10.5087Z"/><g id="Group_1908-2-2" data-name="Group 1908-2"><path id="Path_690" data-name="Path 690" d="M19.4928,8.845a3.6762,3.6762,0,0,0-.7291-1.0385,1.9781,1.9781,0,0,0-1.636-.5157c-.4268.0932-.446.3386-1.1288.3386s-.7028-.2454-1.1288-.3386a1.8738,1.8738,0,0,0-1.4184.3379,3.7859,3.7859,0,0,1,1.232.7824,6.3815,6.3815,0,0,1,1.2448,1.77,5.0013,5.0013,0,0,1,.2631.6587c.3208-.005.988-.0242,1.5542-.0932,1.2974-.1586,1.769-.313,1.9632-.6857C19.8584,9.7647,19.6116,9.08,19.4928,8.845Z"/></g><g id="Group_1909" data-name="Group 1909"><path id="Path_691" data-name="Path 691" d="M3.8926,10.1794A6.3708,6.3708,0,0,1,5.1367,8.41,3.7515,3.7515,0,0,1,6.3281,7.645a1.89,1.89,0,0,0-1.4439-.3556c-.4268.0932-.446.3386-1.1289.3386s-.7027-.2454-1.1288-.3386a1.9789,1.9789,0,0,0-1.636.5157,3.6834,3.6834,0,0,0-.729,1.0385c-.1181.2347-.3657.92-.2134,1.2149.1941.3734.6657.527,1.9624.6857.6068.0711,1.3294.09,1.6175.0939A5.3771,5.3771,0,0,1,3.8926,10.1794Z"/></g></g></symbol><symbol id="internet" data-name="internet" viewBox="0 0 19.146 19.146"><path id="Path_671" data-name="Path 671" d="M9.573,0a9.553,9.553,0,1,0,.04,0Zm-8.1,9.573a8.7366,8.7366,0,0,1,.736-3.387,16.8443,16.8443,0,0,0,2.062.589,17.8341,17.8341,0,0,0,0,5.6,16.8621,16.8621,0,0,0-2.062.589A8.7355,8.7355,0,0,1,1.473,9.573Zm4.05,0a13.7706,13.7706,0,0,1,.221-2.5c1.031.147,2.062.221,3.093.295V11.86a21.9672,21.9672,0,0,0-3.093.295A15.2308,15.2308,0,0,1,5.523,9.573ZM13.107,5.6a17.2189,17.2189,0,0,1-2.8.221V1.62C11.487,2.062,12.518,3.608,13.107,5.6ZM8.836,1.62v4.2a17.909,17.909,0,0,1-2.8-.221C6.627,3.608,7.658,2.062,8.836,1.62Zm0,11.708v4.2c-1.178-.442-2.209-1.988-2.8-3.976A17.9222,17.9222,0,0,1,8.836,13.328Zm1.473,4.2v-4.2a17.9211,17.9211,0,0,1,2.8.221c-.591,1.988-1.622,3.534-2.8,3.976Zm0-5.67V7.363A21.9689,21.9689,0,0,0,13.4,7.069a14.2984,14.2984,0,0,1,0,5.007,21.8513,21.8513,0,0,0-3.091-.221Zm4.565-5.081a16.8443,16.8443,0,0,0,2.062-.589,8.4516,8.4516,0,0,1,.736,3.387,8.7366,8.7366,0,0,1-.736,3.387,16.8621,16.8621,0,0,0-2.062-.589,17.24,17.24,0,0,0,.221-2.8,17.23,17.23,0,0,0-.221-2.799ZM16.2,4.86c-.515.147-1.1.295-1.62.442a8.9909,8.9909,0,0,0-1.325-2.945A8.7687,8.7687,0,0,1,16.2,4.86ZM5.891,2.356A13.6431,13.6431,0,0,0,4.565,5.3a7.6621,7.6621,0,0,1-1.62-.442A8.769,8.769,0,0,1,5.891,2.356ZM2.945,14.285c.515-.147,1.1-.295,1.62-.442A8.99,8.99,0,0,0,5.89,16.788,8.7687,8.7687,0,0,1,2.945,14.285Zm10.309,2.5a13.64,13.64,0,0,0,1.325-2.945c.589.147,1.1.295,1.62.442a8.7682,8.7682,0,0,1-2.945,2.507Z"/></symbol><symbol id="triangle-excalmation" data-name="triangle-excalmation" viewBox="0 0 18.386 16.427"><g id="Group_2048" data-name="Group 2048"><g id="Group_1871" data-name="Group 1871"><g id="Zoom_In" data-name="Zoom In"><g id="Calendar-4" data-name="Calendar"><g id="Group_1870" data-name="Group 1870"><path id="Path_670" data-name="Path 670" d="M18.0035,13.601,10.8225,1.1662A1.98,1.98,0,0,0,9.1911,0,1.98,1.98,0,0,0,7.56,1.1662L.39,13.601c-.9093,1.556-.1734,2.8259,1.6289,2.8259H16.3632C18.1655,16.4269,18.9014,15.157,18.0035,13.601ZM8.3467,4.3446h1.87v6.9962H8.3451V4.3446ZM9.1911,14.45a1.021,1.021,0,1,1,.7245-.2982A1.0212,1.0212,0,0,1,9.1911,14.45Z"/></g></g></g></g></g></symbol><symbol id="buildings" data-name="buildings" viewBox="0 0 21.052 16.407"><path id="Path_638" data-name="Path 638" d="M19.4081,15.4688c0-.0076.0045-.0136.0045-.022V3.7861a.5132.5132,0,0,0-.5133-.5125H12.9336V.514A.514.514,0,0,0,12.42,0H2.15a.5133.5133,0,0,0-.5132.5133V15.4438c0,.0076.0038.0137.0045.022H0v.9408H21.0524v-.9378Zm-2.71-10.3219a.2063.2063,0,0,1,.2063-.2047h1.28a.2062.2062,0,0,1,.2062.2047V6.9407a.207.207,0,0,1-.2062.2062H16.9062A.207.207,0,0,1,16.7,6.9407Zm0,3.36a.207.207,0,0,1,.2063-.2062h1.28a.2069.2069,0,0,1,.2062.2062V10.3a.2069.2069,0,0,1-.2062.2062H16.9062A.2069.2069,0,0,1,16.7,10.3Zm0,3.3585a.2071.2071,0,0,1,.2063-.2062h1.28a.207.207,0,0,1,.2062.2062v1.7938a.2069.2069,0,0,1-.2062.2062H16.9062a.2069.2069,0,0,1-.2062-.2062Zm-2.77-6.7185a.2062.2062,0,0,1,.2062-.2047h1.2789a.2062.2062,0,0,1,.2062.2047V6.9407a.207.207,0,0,1-.2062.2062h-1.28a.207.207,0,0,1-.2062-.2062Zm0,3.36a.2069.2069,0,0,1,.2062-.2062h1.2789a.2069.2069,0,0,1,.2062.2062V10.3a.2069.2069,0,0,1-.2062.2062h-1.28a.2069.2069,0,0,1-.2062-.2062Zm0,3.3585a.2069.2069,0,0,1,.2062-.2062h1.2789a.207.207,0,0,1,.2062.2062v1.7938a.2069.2069,0,0,1-.2062.2062h-1.28a.2069.2069,0,0,1-.2062-.2062ZM9.7988,1.9385a.2062.2062,0,0,1,.2054-.2062H11.563a.2062.2062,0,0,1,.2054.2062V4.0946a.2063.2063,0,0,1-.2054.2063H10.0073a.2064.2064,0,0,1-.2055-.2063V1.9385Zm0,4.4919a.2062.2062,0,0,1,.2054-.2047H11.563a.2062.2062,0,0,1,.2054.2047V8.5873a.2062.2062,0,0,1-.2054.2062H10.0073a.2062.2062,0,0,1-.2055-.2062V6.43Zm0,4.4935a.2063.2063,0,0,1,.2054-.2063H11.563a.2063.2063,0,0,1,.2054.2063V13.08a.2062.2062,0,0,1-.2054.2062H10.0073a.2062.2062,0,0,1-.2055-.2062V10.9239ZM6.3,1.9385a.207.207,0,0,1,.2062-.2062h1.558a.2062.2062,0,0,1,.2055.2062V4.0946a.2064.2064,0,0,1-.2055.2063H6.5055A.2071.2071,0,0,1,6.3,4.0946ZM6.3,6.43a.2062.2062,0,0,1,.2062-.2047h1.558A.2064.2064,0,0,1,8.27,6.43V8.5873a.2062.2062,0,0,1-.2055.2062H6.5055a.2069.2069,0,0,1-.2062-.2062ZM2.8051,1.9385a.2069.2069,0,0,1,.2062-.2062H4.5654a.207.207,0,0,1,.2063.2062V4.0946a.2071.2071,0,0,1-.2063.2063H3.0075a.2071.2071,0,0,1-.2024-.2063Zm0,4.4919a.2062.2062,0,0,1,.2062-.2047H4.5654a.2063.2063,0,0,1,.2063.2047V8.5873a.207.207,0,0,1-.2063.2062H3.0075a.2069.2069,0,0,1-.2062-.2062V6.43Zm0,4.4935a.207.207,0,0,1,.2062-.2063H4.5654a.2071.2071,0,0,1,.2063.2063V13.08a.207.207,0,0,1-.2063.2062H3.0075a.2069.2069,0,0,1-.2062-.2062V10.9239Zm3.2683.8134a.2061.2061,0,0,1,.2054-.2062H8.2962a.2069.2069,0,0,1,.2062.2062v3.7315H6.0764V11.7373Z"/></symbol><symbol id="toolbox" data-name="toolbox" viewBox="0 0 19.709 17.246"><path id="briefcase" d="M12.3186,11.7031a.6155.6155,0,0,1-.6148.6162H8.007a.6155.6155,0,0,1-.6161-.6148v-1.85H0v5.5432a1.8945,1.8945,0,0,0,1.8477,1.8477h16.014A1.8946,1.8946,0,0,0,19.71,15.3979V9.8547H12.3186Zm5.5431-8.007H14.7824V1.8477A1.8944,1.8944,0,0,0,12.9347,0H6.7754A1.8946,1.8946,0,0,0,4.9277,1.8477V3.6954h-3.08A1.8946,1.8946,0,0,0,0,5.5432V8.6225H19.71V5.5432a1.8947,1.8947,0,0,0-1.8478-1.8478Zm-5.5431,0H7.3909V2.4639h4.9277Z"/></symbol><symbol id="document" data-name="document" viewBox="0 0 14.753 19.671"><path id="file-alt" d="M8.6063,5.2254V0H.9223A.92.92,0,0,0,0,.9168v17.832a.92.92,0,0,0,.9168.9222H13.831a.92.92,0,0,0,.9223-.9167V6.147H9.5279A.925.925,0,0,1,8.6063,5.2254Zm2.4585,9.0671a.4622.4622,0,0,1-.4608.4608H4.1493a.4622.4622,0,0,1-.4608-.4608v-.3077a.4622.4622,0,0,1,.4608-.4608H10.604a.4622.4622,0,0,1,.4608.4608Zm0-2.4592a.4623.4623,0,0,1-.4608.4608H4.1493a.4623.4623,0,0,1-.4608-.4608v-.3077a.4622.4622,0,0,1,.4608-.4608H10.604a.4622.4622,0,0,1,.4608.4608Zm0-2.7662v.3076a.4621.4621,0,0,1-.4608.4608H4.1493a.4621.4621,0,0,1-.4608-.4608V9.0671a.4621.4621,0,0,1,.4608-.4608H10.604A.4621.4621,0,0,1,11.0648,9.0671Zm3.6885-4.3839v.2346H9.8355V0H10.07a.9212.9212,0,0,1,.6532.269l3.763,3.7651A.9187.9187,0,0,1,14.7533,4.6832Z"/></symbol><symbol id="book" data-name="book" viewBox="0 0 16.802 19.202"><path id="book-3" data-name="book" d="M16.802,13.5016V.9a.8983.8983,0,0,0-.8962-.9H3.6A3.6016,3.6016,0,0,0,0,3.6V15.6019a3.6016,3.6016,0,0,0,3.6,3.6H15.9a.8983.8983,0,0,0,.9-.8962v-.6024a.9069.9069,0,0,0-.3325-.7015,8.3654,8.3654,0,0,1,0-2.8017.8937.8937,0,0,0,.3325-.6975ZM4.8,5.0258a.2254.2254,0,0,1,.2247-.2248h7.9512a.2255.2255,0,0,1,.2248.2248v.75a.2255.2255,0,0,1-.2248.2247h-7.95a.2255.2255,0,0,1-.2248-.2247Zm0,2.4a.2254.2254,0,0,1,.2247-.2248h7.9512a.2255.2255,0,0,1,.2248.2248v.7519a.2255.2255,0,0,1-.2248.2248h-7.95A.2254.2254,0,0,1,4.8,8.1779Zm9.5037,9.3747H3.6a1.2,1.2,0,1,1,0-2.4H14.3047a13.5078,13.5078,0,0,0-.0006,2.4015Z"/></symbol><symbol id="semi-loaded" data-name="semi-loaded" viewBox="0 0 20.201 12.917"><g id="Group_1728" data-name="Group 1728"><path id="Path_627" data-name="Path 627" d="M1.9155,9.6731a1.6221,1.6221,0,1,0,1.6221,1.6221A1.6221,1.6221,0,0,0,1.9155,9.6731Z"/><path id="Path_628" data-name="Path 628" d="M6.1319,9.6731a1.6221,1.6221,0,1,0,1.622,1.6221A1.6221,1.6221,0,0,0,6.1319,9.6731Z"/><path id="Path_629" data-name="Path 629" d="M17.1327,9.6731a1.6221,1.6221,0,1,0,1.6248,1.6221A1.6222,1.6222,0,0,0,17.1327,9.6731Z"/><path id="Path_630" data-name="Path 630" d="M19.0092,7.1149c-.2171-.0167-.6146-.0253-1.1826-.0253-.75,0-1.6061.0146-1.961.0219V5.1552c0-.4947-.2-.7325-.6179-.7325H14.382a4.5972,4.5972,0,0,0-.7884-1.337,4.023,4.023,0,0,0-3.1782-1.4436.9425.9425,0,0,0-.7.1784.7742.7742,0,0,0-.14.594V8.5032H.8575a.1466.1466,0,0,0-.1459.1458V9.26a.1465.1465,0,0,0,.1459.1458H3.1967a.8757.8757,0,0,1,.5993.8544.1458.1458,0,0,0,.2916,0v0c0-.64.6892-.7472.7651-.7571h2.802c.1392.0612.7811.4188.7811,1.7912a.1458.1458,0,0,0,.1458.1458h6.0555a.1452.1452,0,0,0,.1458-.1405,2.8783,2.8783,0,0,1,.3129-1.1067,2.0176,2.0176,0,0,1,1.9311-1.092,2.04,2.04,0,0,1,1.9423,1.1246,3.1461,3.1461,0,0,1,.333,1.156.1452.1452,0,0,0,.1451.1392h.608a.1459.1459,0,0,0,.1458-.1459h0V8.81a.0207.0207,0,0,0-.0207-.0206h-.6365a.3959.3959,0,0,1,0-.7918H20.18a.0207.0207,0,0,0,.0207-.0206V7.65C20.2,7.2068,19.6711,7.1661,19.0092,7.1149ZM15.0446,5.5387V7.1162H13.1861V5.2577h1.5775A.2818.2818,0,0,1,15.0446,5.5387Z"/></g><rect width="8.5923" height="7.4414" rx="0.5919"/></symbol><symbol id="bargraph" data-name="bargraph" viewBox="0 0 19.803 14.852"><path id="chart-bar" d="M15.35,11.1385h.8663a.5322.5322,0,0,0,.4974-.4974V1.7325a.5322.5322,0,0,0-.4974-.4974H15.35a.5322.5322,0,0,0-.4974.4974v8.9114A.5322.5322,0,0,0,15.35,11.1385Zm-7.4261,0H8.79a.5323.5323,0,0,0,.4975-.4974V2.9705A.5324.5324,0,0,0,8.79,2.473H7.9207a.5323.5323,0,0,0-.4974.4975v7.6748a.5322.5322,0,0,0,.4974.4932Zm3.7131,0H12.5a.5322.5322,0,0,0,.4974-.4974V5.4456A.5321.5321,0,0,0,12.5,4.9482h-.8663a.5321.5321,0,0,0-.4974.4974v5.1983a.5321.5321,0,0,0,.4974.4946Zm7.55,1.8562H1.8562V.619A.619.619,0,0,0,1.2379,0H.619A.619.619,0,0,0,0,.619H0V13.6143a1.238,1.238,0,0,0,1.2379,1.238H19.1836a.619.619,0,0,0,.619-.619h0v-.619a.619.619,0,0,0-.619-.6189ZM4.2077,11.1385h.8669a.5323.5323,0,0,0,.4975-.4974v-2.72a.5323.5323,0,0,0-.4975-.4974H4.2077a.5323.5323,0,0,0-.4975.4974v2.7232A.5323.5323,0,0,0,4.2077,11.1385Z"/></symbol><symbol id="package" data-name="package" viewBox="0 0 18.914 18.918"><g id="Group_1727" data-name="Group 1727"><g id="Group_1727-2" data-name="Group 1727-2"><path id="Path_626" data-name="Path 626" d="M18.914,4.3,9.428,8.6,0,4.3,9.428,0Zm0,1.318-8.8,4.1v9.2l8.8-4.1ZM0,14.817l8.8,4.1v-9.2L0,5.617Z"/></g></g></symbol><symbol id="boxes" data-name="boxes" viewBox="0 0 17.446 17.543"><rect x="9.913" y="9.9783" width="7.5326" height="7.5326" rx="0.3479"/><rect x="4.9565" width="7.5326" height="7.5326" rx="0.3479"/><rect y="10.0109" width="7.5326" height="7.5326" rx="0.3479"/></symbol><symbol id="trailer" data-name="trailer" viewBox="0 0 19.87 12.83"><path d="M7.1,10.94a.5583.5583,0,0,1-.03.22,1.8664,1.8664,0,0,1-1.86,1.67,1.886,1.886,0,0,1-1.88-1.67.82.82,0,0,1-.02-.22,1.895,1.895,0,1,1,3.79,0Z"/><path d="M19.87,1.03V6.35a1.0436,1.0436,0,0,1-1.04,1.03H17.57v2.69H16.33V7.38H12.25l-.06,3.78H7.8a.1387.1387,0,0,1-.07-.12A3.903,3.903,0,0,0,7.34,9.7,2.38,2.38,0,0,0,5.07,8.38,2.3711,2.3711,0,0,0,2.82,9.65a3.4591,3.4591,0,0,0-.36,1.29.1685.1685,0,0,1-.17.17H.7a1.0987,1.0987,0,0,1-.56-.46A.9753.9753,0,0,1,0,10.14V1.03A1.035,1.035,0,0,1,1.03,0h17.8A1.0371,1.0371,0,0,1,19.87,1.03Z"/></symbol><symbol id="map" data-name="map" viewBox="0 0 19.695 17.506"><path d="M9.8473,0A4.3081,4.3081,0,0,0,5.5391,4.3082c0,1.9236,2.8157,5.43,3.8945,6.7023a.5393.5393,0,0,0,.8274,0c1.0788-1.2726,3.8945-4.7787,3.8945-6.7023A4.3081,4.3081,0,0,0,9.8473,0Zm0,5.7442a1.4361,1.4361,0,1,1,1.436-1.436A1.4359,1.4359,0,0,1,9.8473,5.7442ZM.6879,7.3837A1.0945,1.0945,0,0,0,0,8.4v8.5589a.5471.5471,0,0,0,.75.5081l4.72-2.1486V7.3485a10.3585,10.3585,0,0,1-.7266-1.5872Zm9.1594,4.9141a1.6338,1.6338,0,0,1-1.2484-.58c-.6722-.7932-1.3871-1.6966-2.034-2.6232v6.2229L13.13,17.5059V9.0951c-.6469.9262-1.3615,1.83-2.0341,2.6232A1.6344,1.6344,0,0,1,9.8473,12.2978ZM18.9444,5.51,14.2238,7.659v9.8473l4.7828-1.9131a1.0939,1.0939,0,0,0,.688-1.0158V6.0185a.5472.5472,0,0,0-.75-.5081Z"/></symbol><symbol id="phone" data-name="phone" viewBox="0 0 19.81 19.81"><path id="phone-square" class="cls-1" d="M2.1226,0A2.1226,2.1226,0,0,0,0,2.1226V17.6872H0A2.1226,2.1226,0,0,0,2.1226,19.81H17.6872A2.1226,2.1226,0,0,0,19.81,17.6872V2.1226h0A2.1226,2.1226,0,0,0,17.6872,0ZM15.6537,16.9791A12.8223,12.8223,0,0,1,2.8306,4.1577a.6633.6633,0,0,1,.5141-.6466l2.874-.6631a.6632.6632,0,0,1,.7586.3848L8.3059,6.3291a.6631.6631,0,0,1-.19.7743L6.44,8.4738a10.25,10.25,0,0,0,4.8988,4.898l1.37-1.6755a.6632.6632,0,0,1,.7743-.19l3.0948,1.3262a.6632.6632,0,0,1,.3848.7585L16.3,16.465a.6631.6631,0,0,1-.6466.5141Z"/></symbol><symbol id="paperclip" data-name="paperclip" viewBox="0 0 19.822 18.054"><g id="Group_1666" data-name="Group 1666"><path id="Path_610" data-name="Path 610" d="M14.7532.0011A4.9665,4.9665,0,0,1,19.8216,4.844a5.2523,5.2523,0,0,1-1.5131,3.7731L9.04,17.8239a.6758.6758,0,1,1-.95-.957L17.353,7.66a3.8679,3.8679,0,0,0,1.1192-2.8154A3.5985,3.5985,0,0,0,14.77,1.3531l-.0144,0A3.7,3.7,0,0,0,12.151,2.4727L2.0327,12.5662A2.1851,2.1851,0,0,0,1.35,14.0654a2.4254,2.4254,0,0,0,.6759,1.7526,2.2654,2.2654,0,0,0,3.2036.0342l.0342-.0342Q10.27,10.8043,15.28,5.7947a.9948.9948,0,0,0,.1059-1.3231.974.974,0,0,0-1.26-.0208L4.984,13.5441a.6758.6758,0,1,1-.95-.957l9.1435-9.0948a2.236,2.236,0,0,1,3.1606.0069A2.3713,2.3713,0,0,1,16.31,6.6737L6.2229,16.7751a3.6464,3.6464,0,0,1-5.1526,0,3.8014,3.8014,0,0,1-1.07-2.71,3.5127,3.5127,0,0,1,1.0813-2.457L11.2,1.5142A5.0561,5.0561,0,0,1,14.7532.0011Z"/></g></symbol><symbol id="Camera" data-name="Camera" viewBox="0 0 19.858 16.549"><g id="Group_1669" data-name="Group 1669"><path id="Path_611" data-name="Path 611" d="M2.8372,16.5484A2.8466,2.8466,0,0,1,0,13.7112v-8.51A2.8467,2.8467,0,0,1,2.8372,2.3635H5.1939L5.9623.45A.71.71,0,0,1,6.62,0h6.62a.71.71,0,0,1,.6577.4505l.7684,1.9136h2.3548a2.8468,2.8468,0,0,1,2.8373,2.8373v8.51a2.8467,2.8467,0,0,1-2.8373,2.8372H2.8372Zm0-1.4186H17.0209A1.4,1.4,0,0,0,18.44,13.7477c0-.0122,0-.0244,0-.0365v-8.51a1.4,1.4,0,0,0-1.382-1.4186q-.0183,0-.0366,0H14.1862a.7089.7089,0,0,1-.6577-.4431L12.76,1.4179H7.1006L6.3322,3.339a.71.71,0,0,1-.6577.4437H2.8372A1.4,1.4,0,0,0,1.4186,5.1648c0,.0122,0,.0243,0,.0365v8.5105A1.4,1.4,0,0,0,2.8007,15.13c.0122,0,.0244,0,.0365,0ZM9.93,13.9477a4.4924,4.4924,0,1,1,4.4924-4.4924A4.4924,4.4924,0,0,1,9.93,13.9477Zm0-1.4186A3.0738,3.0738,0,1,0,6.8565,9.4553h0A3.0633,3.0633,0,0,0,9.909,12.5291Z"/></g></symbol><symbol id="film" data-name="film" viewBox="0 0 19.612 16.664"><g id="Group_1670" data-name="Group 1670"><path id="Path_612" data-name="Path 612" d="M7.0855,6.2675a.38.38,0,0,1,.59-.3732l4.63,2.1986c.3244.154.3244.4068,0,.5607L7.68,10.8516a.38.38,0,0,1-.59-.3726Z"/><path id="Path_613" data-name="Path 613" d="M18.584,0H1.029A1.0289,1.0289,0,0,0,0,1.0283V15.6352a1.029,1.029,0,0,0,1.029,1.029H18.584a1.029,1.029,0,0,0,1.0283-1.029V1.0283A1.0288,1.0288,0,0,0,18.584,0ZM12.3177,1.32a.514.514,0,0,1,.5132-.5145h1.304a.5138.5138,0,0,1,.5138.5139V2.6225a.5138.5138,0,0,1-.5132.5144H12.8316a.5145.5145,0,0,1-.5139-.5144Zm-3.6748,0A.5138.5138,0,0,1,9.1561.8059H10.46a.5133.5133,0,0,1,.5139.5126v1.304a.5139.5139,0,0,1-.5132.5144H9.1548a.5138.5138,0,0,1-.5138-.5138V1.32Zm-3.6749,0A.5139.5139,0,0,1,5.4812.8059h1.304A.5138.5138,0,0,1,7.299,1.32V2.6225a.5138.5138,0,0,1-.5132.5144H5.4774a.5137.5137,0,0,1-.5144-.5132V2.6225Zm-3.6748,0A.5138.5138,0,0,1,1.8064.8059H3.11a.5132.5132,0,0,1,.5138.5126v1.304a.5138.5138,0,0,1-.5132.5144h-1.31a.5138.5138,0,0,1-.5145-.5132V2.6225Zm0,2.6123H18.3369v8.7785H1.2932Zm2.324,11.4111a.5138.5138,0,0,1-.5138.5138H1.8007a.5138.5138,0,0,1-.5145-.5132V14.0411a.5138.5138,0,0,1,.5132-.5145H3.1027a.5139.5139,0,0,1,.5139.5139v.0006Zm3.6748,0a.5138.5138,0,0,1-.5138.5138H5.4774a.5137.5137,0,0,1-.5144-.5132V14.0411a.5138.5138,0,0,1,.5132-.5145H6.78a.5139.5139,0,0,1,.5139.5139v.0006Zm3.6749,0a.5138.5138,0,0,1-.5138.5138H9.1548a.5138.5138,0,0,1-.5138-.5138h0V14.0411a.5138.5138,0,0,1,.5132-.5145H10.46a.5139.5139,0,0,1,.5139.5139v.0006Zm3.6749,0a.5138.5138,0,0,1-.5139.5138H12.8316a.5145.5145,0,0,1-.5139-.5138V14.0411a.5146.5146,0,0,1,.5139-.5145h1.3033a.5138.5138,0,0,1,.5138.5139v.0006Zm3.6748,0a.5138.5138,0,0,1-.5138.5138H16.509a.5145.5145,0,0,1-.5139-.5138V14.0411a.5146.5146,0,0,1,.5139-.5145H17.81a.5139.5139,0,0,1,.5139.5139v.0006Zm0-12.7207a.5138.5138,0,0,1-.5132.5145H16.509a.5146.5146,0,0,1-.5139-.5145V1.32a.5139.5139,0,0,1,.5132-.5145H17.81a.5139.5139,0,0,1,.5139.5139V1.32Z"/></g></symbol><symbol id="bar" data-name="bar" viewBox="0 0 19 3"><path d="M17.5,3H1.5a1.5,1.5,0,0,1,0-3h16a1.5,1.5,0,0,1,0,3Z"/></symbol><symbol id="square" data-name="square" viewBox="0 0 19.5 19.5"><g id="Path_617" data-name="Path 617"><path d="M0,0V19.5H19.5V0ZM16.72,16.72H2.79V2.79H16.72Z"/><path d="M0,0V19.5H19.5V0ZM16.72,16.72H2.79V2.79H16.72Z"/></g></symbol><symbol id="magnifying-glass" data-name="magnifying-glass" viewBox="0 0 19.135 19.139"><path id="Path_824" data-name="Path 824" d="M18.776,17.272l-3.663-3.663a8.4431,8.4431,0,1,0-1.504,1.504l3.663,3.663a1.063,1.063,0,1,0,1.5-1.5ZM3.976,12.91a3.2,3.2,0,1,0,.002-.001Z"/></symbol><symbol id="archivebin" data-name="archivebin" viewBox="0 0 19.647 18.016"><path id="Path_916" data-name="Path 916" d="M13.1044,6.5424V8.1731H6.562V6.5424Zm4.9117-1.6307H1.65V17.0338c0,.9823,0,.9823.9823.9823H17.3677c.6484,0,.6484,0,.6484-.9823ZM18.9984,0H.9823C0,0,0,0,0,.6484v2.613H19.6468V.6484C19.6468,0,19.6468,0,18.9984,0Z"/></symbol><symbol id="printer" data-name="printer" viewBox="0 0 19.505 19.421"><g id="Group_2506" data-name="Group 2506"><rect id="Rectangle_2075" data-name="Rectangle 2075" x="4.2038" width="11.0977" height="2.7744"/><path id="Path_917" data-name="Path 917" d="M19.5054,4.12H0V15.2172H2.7744V11.0977H16.6466v4.12h2.8588ZM18.076,6.8939H16.731V5.5489h1.345Z"/><rect id="Rectangle_2076" data-name="Rectangle 2076" x="4.2038" y="12.2075" width="11.0977" height="7.2135"/></g></symbol><symbol id="envelope" data-name="envelope" viewBox="0 0 19.867 12.599"><path id="Path_916-2" data-name="Path 916" d="M19.8675.9691V11.63a1.2149,1.2149,0,0,1-.0485.2908L13.035,6.2994,19.819.6784A1.2149,1.2149,0,0,1,19.8675.9691ZM.0485.6784A1.2149,1.2149,0,0,0,0,.9691V11.63a1.2149,1.2149,0,0,0,.0485.2908l6.784-5.6211ZM11.1694,7.85a1.9685,1.9685,0,0,1-2.4713,0l-1.09-.9207-6.8567,5.67H19.0922L12.2839,6.9294Zm-.63-.7511L19.1164,0H.7511L9.3038,7.099A.9842.9842,0,0,0,10.54,7.099Z"/></symbol><symbol id="triangle" data-name="triangle" viewBox="0 0 14.568 8.712"><g id="Group_3186" data-name="Group 3186"><g id="Group_3185" data-name="Group 3185"><path id="Path_945" data-name="Path 945" d="M.6725,0l13.224.006a.6731.6731,0,0,1,.5,1.122L7.7805,8.489a.6731.6731,0,0,1-.95.05.6422.6422,0,0,1-.05-.05L.1705,1.122A.6739.6739,0,0,1,.6725,0Z"/></g></g></symbol><symbol id="plus" data-name="plus" viewBox="0 0 13.086 13.09"><g id="Group_3185-2" data-name="Group 3185"><path id="Path_945-2" data-name="Path 945" d="M13.086,6.549a1.366,1.366,0,0,1-1.362,1.362H7.911v3.813a1.366,1.366,0,0,1-2.732,0V7.911H1.366a1.366,1.366,0,0,1,0-2.732H5.179V1.366a1.366,1.366,0,1,1,2.732,0V5.181h3.813A1.368,1.368,0,0,1,13.086,6.549Z"/></g></symbol><symbol id="x" data-name="x" viewBox="0 0 14.557 15.745"><path d="M14.1058,15.2727a1.386,1.386,0,0,1-1.957-.0764l-4.8576-5.26L2.5377,15.28A1.386,1.386,0,0,1,.47,13.4337l4.934-5.5446L.3657,2.4347A1.3874,1.3874,0,1,1,2.4059.5541L7.2565,5.8072,12.017.4639A1.386,1.386,0,1,1,14.0849,2.31L9.151,7.8544l5.038,5.4544A1.3857,1.3857,0,0,1,14.1058,15.2727Z"/></symbol></defs><title>icons-flipped</title><use width="12.6742" height="10.4432" transform="matrix(1, 0, 0, -1, 123.6821, 114.8926)" xlink:href="#checkmark"/><use width="18.8963" height="19.1655" transform="matrix(1, 0, 0, -1, 141.1553, 119.4495)" xlink:href="#arrow"/><use width="19.0194" height="11.6559" transform="matrix(1, 0, 0, -1, 100.2677, 114.8142)" xlink:href="#arrow-incomplete"/><use width="16.903" height="19.3478" transform="matrix(1, 0, 0, -1, 1.5242, 119.345)" xlink:href="#bell"/><use width="19.7391" height="14.8758" transform="matrix(1, 0, 0, -1, 20.1035, 117.109)" xlink:href="#chat"/><use width="17.07" height="19.5" transform="matrix(1, 0, 0, -1, 1.9647, 99.5428)" xlink:href="#addressbook"/><use width="10.9337" height="19.4475" transform="matrix(1, 0, 0, -1, 24.4741, 99.4102)" xlink:href="#_"/><use width="18.991" height="15.1906" transform="matrix(1, 0, 0, -1, 60.6342, 97.2466)" xlink:href="#balance-scale"/><use width="16.3731" height="18.7159" transform="matrix(1, 0, 0, -1, 81.9305, 99.1478)" xlink:href="#calculator"/><use width="17.2827" height="19.7511" transform="matrix(1, 0, 0, -1, 41.2, 99.4004)" xlink:href="#calendar"/><use width="19.7283" height="15.7826" transform="matrix(1, 0, 0, -1, 99.7448, 96.7363)" xlink:href="#vehicle"/><use width="19.5592" height="17.0823" transform="matrix(1, 0, 0, -1, 120.171, 98.3015)" xlink:href="#tools"/><use width="15.196" height="18.2741" transform="matrix(1, 0, 0, -1, 142.3448, 98.9668)" xlink:href="#user"/><use width="19.7556" height="13.5694" transform="matrix(1, 0, 0, -1, 0, 76.4493)" xlink:href="#users"/><use width="19.146" height="19.146" transform="matrix(1, 0, 0, -1, 20.5467, 79.5375)" xlink:href="#internet"/><use width="18.3863" height="16.4269" transform="matrix(1, 0, 0, -1, 40.6954, 78.5693)" xlink:href="#triangle-excalmation"/><use width="21.0524" height="16.4066" transform="matrix(1, 0, 0, -1, 59.5823, 77.6646)" xlink:href="#buildings"/><use width="19.7095" height="17.2456" transform="matrix(1, 0, 0, -1, 0.0276, 56.8232)" xlink:href="#toolbox"/><use width="14.7533" height="19.6711" transform="matrix(1, 0, 0, -1, 22.1716, 59.5377)" xlink:href="#document"/><use width="16.802" height="19.2022" transform="matrix(1, 0, 0, -1, 41.228, 59.1993)" xlink:href="#book"/><use width="20.2011" height="12.9173" transform="matrix(1, 0, 0, -1, 99.8632, 56.5372)" xlink:href="#semi-loaded"/><use width="19.8026" height="14.8523" transform="matrix(1, 0, 0, -1, 100.5183, 74.9538)" xlink:href="#bargraph"/><use width="18.914" height="18.918" transform="matrix(1, 0, 0, -1, 60.6388, 59.4016)" xlink:href="#package"/><use width="17.4457" height="17.5435" transform="matrix(1, 0, 0, -1, 81.2556, 58.4863)" xlink:href="#boxes"/><use width="19.87" height="12.83" transform="matrix(1, 0, 0, -1, 140.3121, 54.3693)" xlink:href="#trailer"/><use width="19.6946" height="17.5063" transform="matrix(1, 0, 0, -1, 0.1263, 38.8936)" xlink:href="#map"/><use width="19.8098" height="19.8098" transform="matrix(1, 0, 0, -1, 140.1306, 79.527)" xlink:href="#phone"/><use width="19.8222" height="18.054" transform="matrix(1, 0, 0, -1, 60.06, 39.6351)" xlink:href="#paperclip"/><use width="19.8582" height="16.549" transform="matrix(1, 0, 0, -1, 20.1149, 38.415)" xlink:href="#Camera"/><use width="19.6123" height="16.6642" transform="matrix(1, 0, 0, -1, 40.4477, 38.4726)" xlink:href="#film"/><use width="19" height="3" transform="matrix(1, 0, 0, -1, 100.277, 31.4106)" xlink:href="#bar"/><use width="19.5" height="19.5" transform="matrix(1, 0, 0, -1, 80.1448, 39.7628)" xlink:href="#square"/><use width="19.1348" height="19.1389" transform="matrix(1, 0, 0, -1, 120.5214, 39.3421)" xlink:href="#magnifying-glass"/><use width="19.6468" height="18.0161" transform="matrix(1, 0, 0, -1, 140.1958, 39.0939)" xlink:href="#archivebin"/><use width="19.5054" height="19.421" transform="matrix(1, 0, 0, -1, 140.3372, 19.421)" xlink:href="#printer"/><use width="19.8675" height="12.5989" transform="matrix(1, 0, 0, -1, 99.9969, 16.9754)" xlink:href="#envelope"/><use width="14.5681" height="8.7115" transform="matrix(1, 0, 0, -1, 42.6021, 114.7169)" xlink:href="#triangle"/><use width="13.086" height="13.09" transform="matrix(1, 0, 0, -1, 82.7996, 115.8682)" xlink:href="#plus"/><use width="14.5572" height="15.7445" transform="matrix(0.7784, 0, 0, -0.7784, 63.8519, 116.0406)" xlink:href="#x"/></svg>