<svg id="Icons" xmlns="http://www.w3.org/2000/svg" xmlns:xlink="http://www.w3.org/1999/xlink" width="259.2202" height="196.564" viewBox="0 0 259.2202 196.564"><defs><style>.cls-1{isolation:isolate;}.cls-2{fill:#fff;}.cls-3{fill-rule:evenodd;}</style><symbol id="arrow" data-name="arrow" viewBox="0 0 11 11.157"><path d="M10.7343,4.9858,5.3389.179a.7063.7063,0,1,0-.94,1.0548l4.0875,3.64H.7047a.7048.7048,0,0,0,0,1.4095H8.4868l-4.0875,3.64a.7063.7063,0,1,0,.94,1.0549L10.7343,6.171A.7936.7936,0,0,0,10.7343,4.9858Z"/></symbol><symbol id="arrow-incomplete" data-name="arrow-incomplete" viewBox="0 0 18 11.031"><path d="M17.7113,1.8976,9.9561,10.6024a1.2805,1.2805,0,0,1-1.9122,0L.2887,1.8976A1.14,1.14,0,0,1,.3835.2869h0A1.14,1.14,0,0,1,1.9906.3817L9,8.2532,16.0094.3817A1.14,1.14,0,0,1,17.6165.2869h0A1.14,1.14,0,0,1,17.7113,1.8976Z"/></symbol><symbol id="bell" data-name="bell" viewBox="0 0 16 18.314"><path d="M16,14.59v.4521a.7289.7289,0,0,1-.7663.6743H.7663A.7289.7289,0,0,1,0,15.0422V14.59a.7628.7628,0,0,1,.8582-.6744c.0077-1.1954.0077-2.3908.0153-3.5939.023-3.31.3832-6.95,4.3985-8.3984A2.7218,2.7218,0,0,1,7.9924,0h.0152a2.7218,2.7218,0,0,1,2.72,1.9234c4.0153,1.4482,4.3755,5.0881,4.3985,8.3984.0076,1.2031.0076,2.3985.0153,3.5939A.7628.7628,0,0,1,16,14.59Z"/><path d="M10.636,16.4828a2.8127,2.8127,0,0,1-5.272,0Z"/></symbol><symbol id="chat" data-name="chat" viewBox="0 0 16 12.058"><path d="M13.56,1.9275H4.764a2.4471,2.4471,0,0,0-2.44,2.44v3.19a2.4471,2.4471,0,0,0,2.44,2.44H11.01l1.7629,1.9642a.2787.2787,0,0,0,.4209,0l2.6473-3.5563A2.3021,2.3021,0,0,0,16,7.5577v-3.19A2.4472,2.4472,0,0,0,13.56,1.9275ZM5.9413,6.8563A.8937.8937,0,1,1,6.838,5.96.8982.8982,0,0,1,5.9413,6.8563Zm2.9646,0a.8937.8937,0,1,1,0-1.7873.8937.8937,0,0,1,0,1.7873Zm2.9645,0a.8937.8937,0,1,1,0-1.7873.8937.8937,0,0,1,0,1.7873Z"/><path d="M13.4259,1.3664H4.1418A2.5825,2.5825,0,0,0,1.5677,3.9405V7.3077a2.3663,2.3663,0,0,0,.0854.6282A2.4406,2.4406,0,0,1,0,5.63V2.44A2.4472,2.4472,0,0,1,2.44,0h8.796A2.4451,2.4451,0,0,1,13.4259,1.3664Z"/></symbol><symbol id="addressbook" data-name="addressbook" viewBox="0 0 17 19.42"><path id="address-book" d="M16.5419,6.065A.4548.4548,0,0,0,17,5.6168V4.0931a.47.47,0,0,0-.4581-.4581H15.785V1.8225A1.8233,1.8233,0,0,0,13.9625,0H1.8225A1.8233,1.8233,0,0,0,0,1.8225v15.775A1.8233,1.8233,0,0,0,1.8225,19.42h12.14a1.8233,1.8233,0,0,0,1.8225-1.8225V15.775h.7569A.4548.4548,0,0,0,17,15.3268V13.8031a.4548.4548,0,0,0-.4581-.4481H15.785v-2.43h.7569A.4634.4634,0,0,0,17,10.4668V8.9531a.4633.4633,0,0,0-.4581-.4581H15.785V6.065ZM7.8975,4.85a2.4366,2.4366,0,1,1-2.43,2.43A2.4248,2.4248,0,0,1,7.8975,4.85ZM12.14,13.833a.7925.7925,0,0,1-.8465.737H4.4915a.8037.8037,0,0,1-.8465-.727v-.727a2.3956,2.3956,0,0,1,2.5495-2.191,8.9847,8.9847,0,0,0,1.703.3087,8.8831,8.8831,0,0,0,1.693-.3087,2.3955,2.3955,0,0,1,2.55,2.191Z"/></symbol><symbol id="dollarsign" data-name="dollarsign" viewBox="0 0 10.12 18"><path id="dollar-sign" d="M7.3524,8.2048,3.5556,7.0936a1.0368,1.0368,0,0,1,.2915-2.0321h2.331a2.1443,2.1443,0,0,1,1.2024.3693.5483.5483,0,0,0,.6856-.0691L9.2913,4.1654A.57.57,0,0,0,9.2892,3.36a.5625.5625,0,0,0-.0649-.0555A4.9712,4.9712,0,0,0,6.1855,2.25V.5623A.5643.5643,0,0,0,5.6225,0H4.4979a.5643.5643,0,0,0-.5623.5623V2.25H3.8478A3.8517,3.8517,0,0,0,0,6.1056q0,.1746.0162.3486A4.0212,4.0212,0,0,0,2.9651,9.85l3.6,1.0542a1.0369,1.0369,0,0,1-.29,2.0308H3.9423A2.1451,2.1451,0,0,1,2.74,12.5659a.5481.5481,0,0,0-.6856.067l-1.2225,1.2a.57.57,0,0,0,.063.8612A4.9713,4.9713,0,0,0,3.9356,15.75v1.6876A.5643.5643,0,0,0,4.4979,18H5.6225a.5643.5643,0,0,0,.5623-.5623V15.7414a3.971,3.971,0,0,0,3.7157-2.5556A3.86,3.86,0,0,0,7.5388,8.2646q-.0918-.0322-.1851-.06Z"/></symbol><symbol id="balance-scale" data-name="balance-scale" viewBox="0 0 18.991 15.191"><path id="balance-scale-3" data-name="balance-scale" d="M7.5966,9.9721h0c0-.48.04-.2591-2.5237-5.3861a1.4254,1.4254,0,0,0-2.548,0C-.061,9.7567,0,9.5071,0,9.9721H0c0,1.3111,1.7008,2.3736,3.798,2.3736S7.5966,11.2832,7.5966,9.9721ZM3.7981,5.2242,5.9343,9.4971H1.6619ZM18.99,9.9721c0-.48.04-.2591-2.5237-5.3861a1.4253,1.4253,0,0,0-2.5479,0c-2.5854,5.1707-2.5232,4.9211-2.5232,5.3861h0c0,1.3111,1.7007,2.3736,3.7979,2.3736s3.798-1.0631,3.798-2.3736Zm-5.9341-.4739L15.192,5.2253l2.1362,4.2729Zm2.6111,3.7979H10.4452V4.5492a2.3761,2.3761,0,0,0,1.3764-1.6987h3.8437a.4738.4738,0,0,0,.4739-.4738V1.4236A.4739.4739,0,0,0,15.6653.95H11.384a2.3526,2.3526,0,0,0-3.7769,0H3.3237a.4739.4739,0,0,0-.4739.4739h0v.9478a.4739.4739,0,0,0,.4739.4739H7.1674A2.3764,2.3764,0,0,0,8.5459,4.5492v8.7459H3.3237a.4738.4738,0,0,0-.4739.4739v.9477a.4738.4738,0,0,0,.4739.4739H15.6674a.4738.4738,0,0,0,.4739-.4739V13.769a.4739.4739,0,0,0-.4739-.4734Z"/></symbol><symbol id="calculator" data-name="calculator" viewBox="0 0 16.373 18.716"><path id="calculator-3" data-name="calculator" d="M14.6183,0H1.7548A1.7992,1.7992,0,0,0,0,1.7548V16.9611a1.7992,1.7992,0,0,0,1.7548,1.7548H14.6183a1.7992,1.7992,0,0,0,1.7548-1.7548V1.7548A1.7992,1.7992,0,0,0,14.6183,0ZM4.6791,15.9063a.5028.5028,0,0,1-.4681.4681H2.8071a.5029.5029,0,0,1-.4682-.4681V14.5024a.503.503,0,0,1,.4682-.4682H4.211a.5029.5029,0,0,1,.4681.4682Zm0-4.6792a.5029.5029,0,0,1-.4681.4682H2.8071a.503.503,0,0,1-.4682-.4682V9.8232a.5029.5029,0,0,1,.4682-.4681H4.211a.5028.5028,0,0,1,.4681.4681Zm4.6785,4.6792a.5028.5028,0,0,1-.4681.4681H7.4856a.5028.5028,0,0,1-.4662-.4681V14.5024a.5029.5029,0,0,1,.4681-.4682H8.8869a.503.503,0,0,1,.4682.4682v1.4039Zm0-4.6792a.5029.5029,0,0,1-.4681.4682H7.4856a.503.503,0,0,1-.4682-.4682V9.8232a.5029.5029,0,0,1,.4682-.4681H8.8869a.5029.5029,0,0,1,.4682.4681v1.4039Zm4.6811,4.6792a.5028.5028,0,0,1-.4682.4681H12.1647a.5028.5028,0,0,1-.4681-.4681V9.8258a.503.503,0,0,1,.4681-.4682h1.4039a.5031.5031,0,0,1,.4682.4682v6.0805Zm0-9.3577a.5029.5029,0,0,1-.4682.4682H2.8071a.503.503,0,0,1-.4682-.4682V2.8071a.503.503,0,0,1,.4682-.4682H13.5686a.503.503,0,0,1,.4682.4682Z"/></symbol><symbol id="calendar" data-name="calendar" viewBox="0 0 17.283 19.751"><path id="calendar-3" data-name="calendar" d="M15.4309,2.4691H13.5791V.4626A.464.464,0,0,0,13.1158,0H11.5734a.4639.4639,0,0,0-.4626.4626V2.4691H6.1726V.4626A.4639.4639,0,0,0,5.7128,0H4.1662a.464.464,0,0,0-.4626.4626V2.4691H1.8518A1.8524,1.8524,0,0,0,0,4.32V17.9a1.8525,1.8525,0,0,0,1.8518,1.8511H15.4309a1.8525,1.8525,0,0,0,1.8518-1.8518V4.32A1.8524,1.8524,0,0,0,15.4309,2.4691ZM15.2,17.9H2.0831a.232.232,0,0,1-.2313-.2313V6.1726H15.4309V17.668A.232.232,0,0,1,15.2,17.9Z"/></symbol><symbol id="vehicle" data-name="vehicle" viewBox="0 0 18 14.4"><path id="truck-solid" d="M17.55,9.9H17.1V6.86a1.35,1.35,0,0,0-.3966-.9535l-2.81-2.81A1.35,1.35,0,0,0,12.94,2.7H11.7V1.35A1.35,1.35,0,0,0,10.35,0h-9A1.35,1.35,0,0,0,0,1.35v9A1.35,1.35,0,0,0,1.35,11.7H1.8a2.7,2.7,0,1,0,5.4,0h3.6a2.7,2.7,0,0,0,5.4,0h1.35a.4513.4513,0,0,0,.45-.45v-.9A.4513.4513,0,0,0,17.55,9.9ZM4.5,13.05A1.35,1.35,0,1,1,5.85,11.7,1.35,1.35,0,0,1,4.5,13.05Zm9,0a1.35,1.35,0,1,1,1.35-1.35A1.35,1.35,0,0,1,13.5,13.05ZM15.75,7.2H11.7V4.05h1.24l2.81,2.81Z"/></symbol><symbol id="tools" data-name="tools" viewBox="0 0 19 16.594"><g id="Group_1732" data-name="Group 1732"><g id="Group_1732-2" data-name="Group 1732-2"><path id="Path_635" data-name="Path 635" d="M15.6451,4.2779v.1227a84.1009,84.1009,0,0,0,0,11.2389h0a.3016.3016,0,0,1-.06.2113,1.3539,1.3539,0,0,1-.42.4005,2.5889,2.5889,0,0,1-1.3475.3417,2.6153,2.6153,0,0,1-1.3474-.3417,1.3829,1.3829,0,0,1-.4345-.42l.2563-.1591-.2563.1591a.2909.2909,0,0,1-.0407-.2113,84.3741,84.3741,0,0,0,0-11.2167V4.2809h3.6634Z"/><path id="Path_636" data-name="Path 636" d="M18.4137.0017A1.5333,1.5333,0,0,1,19,.117V3.9844a1.5287,1.5287,0,0,1-.5863.1152,1.47,1.47,0,0,1-.89-.301,1.5222,1.5222,0,0,1-.4826-.6268,1.3166,1.3166,0,0,0-1.6335.3748.3034.3034,0,0,1-.2488.1293c-.9163,0-1.6775-.0107-2.5872-.0406a.3005.3005,0,0,1-.1741-.0447h0c-.0075,0-1.622-1.0282-4.0531,1.136a.3009.3009,0,0,1-.4255.0116A.2971.2971,0,0,1,7.88,4.6934c-.0407-.0556-.898-1.31,2.7174-3.845.7346-.6268,3.5447-.6907,4.417-.6235.3316.0075,1.3515,1.47,1.9967.79a1.486,1.486,0,0,1,1.4-1.01Z"/><path id="Path_637" data-name="Path 637" class="cls-3" d="M5.489,14.4364V5.5731A3.3362,3.3362,0,0,0,4.81.0374.3225.3225,0,0,0,4.6648,0a.2993.2993,0,0,0-.301.2977V3.3035h-2.13V.345A.3319.3319,0,0,0,2.2005.2.3011.3011,0,0,0,1.7941.0729L1.7925.0738h0A3.3349,3.3349,0,0,0,1.18,5.5747V14.438A2.1343,2.1343,0,0,0,1.8149,15.96a2.156,2.156,0,0,0,1.5216.6343A2.1342,2.1342,0,0,0,4.8581,15.96a2.156,2.156,0,0,0,.6351-1.5216ZM3.3331,13.2a.5085.5085,0,1,0,0,.0008Z"/></g></g></symbol><symbol id="user" data-name="user" viewBox="0 0 16 19.241"><g id="Group_1908" data-name="Group 1908"><path id="Path_688" data-name="Path 688" d="M7.9991,10.1354c2.007,0,4.161-2.7232,4.161-5.5231A4.2386,4.2386,0,0,0,8.3385.0143a4.2032,4.2032,0,0,0-4.5,3.9045,4.3633,4.3633,0,0,0,0,.6935C3.838,7.4112,5.9269,10.1354,7.9991,10.1354Z"/><path id="Path_689" data-name="Path 689" d="M15.4436,14.901a8.0023,8.0023,0,0,0-1.5529-2.2572,4.1531,4.1531,0,0,0-3.4888-1.1216c-.9072.2017-.95.7363-2.4028.7363s-1.4956-.5336-2.4029-.7363a4.1536,4.1536,0,0,0-3.4887,1.1216A7.9929,7.9929,0,0,0,.5556,14.901c-.2527.51-.7779,2-.4521,2.6415.4126.8069,1.4166,1.1468,4.1778,1.4917a33.5555,33.5555,0,0,0,7.4375,0c2.7642-.3449,3.7642-.6808,4.1779-1.4917C16.2224,16.9051,15.6963,15.4113,15.4436,14.901Z"/></g></symbol><symbol id="users" data-name="users" viewBox="0 0 17 11.677"><g id="Group_1908-2" data-name="Group 1908"><path id="Path_686" data-name="Path 686" d="M3.2321,5.7254c.8117,0,1.6826-1.0778,1.6826-2.1857a1.6881,1.6881,0,1,0-3.3664,0C1.55,4.6469,2.3942,5.7254,3.2321,5.7254Z"/><path id="Path_687" data-name="Path 687" d="M13.7642,5.7254c.8116,0,1.6826-1.0778,1.6826-2.1857a1.6881,1.6881,0,0,0-3.3664-.257,1.67,1.67,0,0,0,0,.257C12.0816,4.6469,12.9263,5.7254,13.7642,5.7254Z"/><path id="Path_688-2" data-name="Path 688" d="M8.5266,6.1508c1.2444,0,2.58-1.6526,2.58-3.3517a2.5885,2.5885,0,1,0-5.16,0C5.9467,4.4976,7.2419,6.1508,8.5266,6.1508Z"/><path id="Path_689-2" data-name="Path 689" d="M13.1423,9.0429a4.8522,4.8522,0,0,0-.9628-1.37,2.6107,2.6107,0,0,0-2.1631-.6807c-.5625.1225-.5888.4469-1.49.4469s-.9273-.3238-1.49-.4469a2.6112,2.6112,0,0,0-2.1631.6807,4.8488,4.8488,0,0,0-.9622,1.37c-.1567.31-.4823,1.2138-.28,1.603.2559.49.8783.696,2.59.9053a21.2472,21.2472,0,0,0,4.6114,0c1.7139-.2093,2.3339-.4131,2.59-.9053C13.6253,10.2591,13.299,9.3526,13.1423,9.0429Z"/><g id="Group_1908-2-2" data-name="Group 1908-2"><path id="Path_690" data-name="Path 690" d="M16.7738,7.6112a3.16,3.16,0,0,0-.6274-.8936,1.7019,1.7019,0,0,0-1.4078-.4437c-.3672.08-.3837.2913-.9713.2913s-.6048-.2112-.9714-.2913a1.6122,1.6122,0,0,0-1.22.2907,3.2556,3.2556,0,0,1,1.06.6733,5.49,5.49,0,0,1,1.0712,1.5228,4.314,4.314,0,0,1,.2264.5668c.2761-.0043.85-.0208,1.3374-.08,1.1165-.1365,1.5223-.2693,1.6894-.59C17.0884,8.4027,16.876,7.8132,16.7738,7.6112Z"/></g><g id="Group_1909" data-name="Group 1909"><path id="Path_691" data-name="Path 691" d="M3.35,8.76A5.48,5.48,0,0,1,4.42,7.2367a3.2243,3.2243,0,0,1,1.0252-.658,1.6267,1.6267,0,0,0-1.2425-.3061c-.3673.08-.3838.2914-.9714.2914s-.6047-.2112-.9713-.2914a1.7028,1.7028,0,0,0-1.4078.4438A3.167,3.167,0,0,0,.225,7.61C.1234,7.812-.09,8.4014.0414,8.6555c.1671.3213.5729.4535,1.6887.59.5221.0612,1.144.0777,1.3919.0808A4.6019,4.6019,0,0,1,3.35,8.76Z"/></g></g></symbol><symbol id="globe" data-name="globe" viewBox="0 0 19 19"><path id="Path_671" data-name="Path 671" d="M9.5,0a9.48,9.48,0,1,0,.04,0ZM1.4618,9.5a8.6676,8.6676,0,0,1,.73-3.3612,16.6981,16.6981,0,0,0,2.0462.5845,17.6952,17.6952,0,0,0,0,5.5573,16.7336,16.7336,0,0,0-2.0462.5845A8.6674,8.6674,0,0,1,1.4618,9.5Zm4.0191,0A13.66,13.66,0,0,1,5.7,7.0191c1.0231.1459,2.0463.2193,3.0694.2927V11.77A21.7974,21.7974,0,0,0,5.7,12.0623,15.1024,15.1024,0,0,1,5.4809,9.5ZM13.007,5.5573a17.0912,17.0912,0,0,1-2.7786.2193V1.6077C11.3994,2.0463,12.4225,3.5805,13.007,5.5573Zm-4.2384-3.95V5.7756A17.77,17.77,0,0,1,5.99,5.5563C6.5765,3.5805,7.6,2.0463,8.7686,1.6077Zm0,11.6187v4.1679C7.6,16.9557,6.5765,15.4215,5.99,13.4487A17.7709,17.7709,0,0,1,8.7686,13.2264ZM10.23,17.3943V13.2264a17.77,17.77,0,0,1,2.7786.2193c-.5865,1.9728-1.61,3.507-2.7786,3.9457Zm0-5.6267V7.3069a21.7992,21.7992,0,0,0,3.0674-.2918,14.1918,14.1918,0,0,1,0,4.9688,21.6822,21.6822,0,0,0-3.0674-.2193Zm4.53-5.0423a16.7031,16.7031,0,0,0,2.0462-.5845,8.3859,8.3859,0,0,1,.73,3.3612,8.6694,8.6694,0,0,1-.73,3.3612,16.7031,16.7031,0,0,0-2.0462-.5845A17.1028,17.1028,0,0,0,14.98,9.5a17.1117,17.1117,0,0,0-.2193-2.7776ZM16.0764,4.823c-.511.1458-1.0916.2927-1.6076.4386A8.9222,8.9222,0,0,0,13.1539,2.339,8.7022,8.7022,0,0,1,16.0764,4.823ZM5.8461,2.3381A13.5376,13.5376,0,0,0,4.53,5.26,7.6106,7.6106,0,0,1,2.9225,4.821,8.7024,8.7024,0,0,1,5.8461,2.3381ZM2.9225,14.1761c.5111-.1459,1.0916-.2928,1.6077-.4387A8.9222,8.9222,0,0,0,5.8451,16.66,8.7032,8.7032,0,0,1,2.9225,14.1761Zm10.23,2.4809a13.5343,13.5343,0,0,0,1.3149-2.9225c.5845.1458,1.0916.2927,1.6077.4386a8.7028,8.7028,0,0,1-2.9226,2.4879Z"/></symbol><symbol id="exclamation-triangle" data-name="exclamation-triangle" viewBox="0 0 19 16.975"><g id="Group_2048" data-name="Group 2048"><g id="Group_1871" data-name="Group 1871"><g id="Zoom_In" data-name="Zoom In"><g id="Calendar-4" data-name="Calendar"><g id="Group_1870" data-name="Group 1870"><path id="Path_670" data-name="Path 670" d="M18.6044,14.055l-7.4207-12.85A2.046,2.046,0,0,0,9.4979,0,2.046,2.046,0,0,0,7.8121,1.2051L.4031,14.055c-.94,1.6079-.1792,2.92,1.6833,2.92h14.823C18.7719,16.9752,19.5323,15.6629,18.6044,14.055ZM8.6253,4.49h1.9328v7.23H8.6236V4.49Zm.8726,10.4422a1.0552,1.0552,0,1,1,.7487-.3082A1.0552,1.0552,0,0,1,9.4979,14.9318Z"/></g></g></g></g></g></symbol><symbol id="buildings" data-name="buildings" viewBox="0 0 19 14.807"><path id="Path_638" data-name="Path 638" d="M17.5159,13.9607c0-.0068.0041-.0123.0041-.02V3.417a.4632.4632,0,0,0-.4632-.4626H11.6727V.4639A.4639.4639,0,0,0,11.2088,0H1.94a.4632.4632,0,0,0-.4632.4632v13.475c0,.0068.0034.0123.0041.02H0v.8491H19v-.8464ZM15.07,4.6451A.186.186,0,0,1,15.256,4.46h1.1549a.186.186,0,0,1,.1861.1847V6.264a.1867.1867,0,0,1-.1861.1861H15.258a.1868.1868,0,0,1-.1861-.1861Zm0,3.0325a.1867.1867,0,0,1,.1861-.1861h1.1549a.1867.1867,0,0,1,.1861.1861V9.2958a.1867.1867,0,0,1-.1861.1861H15.258a.1868.1868,0,0,1-.1861-.1861Zm0,3.0311a.1866.1866,0,0,1,.1861-.1861h1.1549a.1866.1866,0,0,1,.1861.1861v1.6188a.1866.1866,0,0,1-.1861.1861H15.258a.1867.1867,0,0,1-.1861-.1861Zm-2.5-6.0636a.1862.1862,0,0,1,.1861-.1847H13.91a.186.186,0,0,1,.1861.1847V6.264A.1868.1868,0,0,1,13.91,6.45H12.7552a.1867.1867,0,0,1-.1861-.1861Zm0,3.0325a.1868.1868,0,0,1,.1861-.1861H13.91a.1868.1868,0,0,1,.1861.1861V9.2958a.1868.1868,0,0,1-.1861.1861H12.7552a.1867.1867,0,0,1-.1861-.1861Zm0,3.0311a.1867.1867,0,0,1,.1861-.1861H13.91a.1867.1867,0,0,1,.1861.1861v1.6188a.1867.1867,0,0,1-.1861.1861H12.7552a.1866.1866,0,0,1-.1861-.1861ZM8.8435,1.75a.1861.1861,0,0,1,.1854-.1861h1.4068a.1861.1861,0,0,1,.1854.1861v1.946a.1861.1861,0,0,1-.1854.1861H9.0317a.1861.1861,0,0,1-.1855-.1861V1.75Zm0,4.054a.186.186,0,0,1,.1854-.1847h1.4068a.1861.1861,0,0,1,.1854.1847V7.75a.1861.1861,0,0,1-.1854.1861H9.0317A.1861.1861,0,0,1,8.8462,7.75V5.8035Zm0,4.0554a.1861.1861,0,0,1,.1854-.1861h1.4068a.1861.1861,0,0,1,.1854.1861v1.9459a.1861.1861,0,0,1-.1854.1861H9.0317a.1861.1861,0,0,1-.1855-.1861V9.8589ZM5.6858,1.75a.1868.1868,0,0,1,.1861-.1861H7.278a.1861.1861,0,0,1,.1854.1861v1.946a.1861.1861,0,0,1-.1854.1861H5.8713a.1869.1869,0,0,1-.1855-.1861Zm0,4.054a.1862.1862,0,0,1,.1861-.1847H7.278a.186.186,0,0,1,.1854.1847V7.75a.1861.1861,0,0,1-.1854.1861H5.8713A.1867.1867,0,0,1,5.6852,7.75ZM2.5316,1.75a.1868.1868,0,0,1,.1861-.1861H4.12a.1868.1868,0,0,1,.1861.1861v1.946a.1868.1868,0,0,1-.1861.1861H2.7143a.1868.1868,0,0,1-.1827-.1861Zm0,4.054a.1862.1862,0,0,1,.1861-.1847H4.12a.1862.1862,0,0,1,.1861.1847V7.75a.1868.1868,0,0,1-.1861.1861H2.7143A.1868.1868,0,0,1,2.5282,7.75V5.8035Zm0,4.0554a.1867.1867,0,0,1,.1861-.1861H4.12a.1867.1867,0,0,1,.1861.1861v1.9459a.1868.1868,0,0,1-.1861.1861H2.7143a.1868.1868,0,0,1-.1861-.1861V9.8589Zm2.95.7341a.1861.1861,0,0,1,.1854-.1861H7.4874a.1868.1868,0,0,1,.1861.1861v3.3677H5.484V10.593Z"/></symbol><symbol id="toolbox" data-name="toolbox" viewBox="0 0 18 15.75"><path id="briefcase" d="M11.25,10.6881a.5622.5622,0,0,1-.5615.5627H7.3125a.5622.5622,0,0,1-.5627-.5615V9H0v5.0624A1.73,1.73,0,0,0,1.6875,15.75h14.625A1.73,1.73,0,0,0,18,14.0624V9H11.25Zm5.0623-7.3126H13.5V1.6875A1.73,1.73,0,0,0,11.8129,0H6.1878A1.73,1.73,0,0,0,4.5,1.6875V3.3749H1.6875A1.73,1.73,0,0,0,0,5.0624V7.8746H18V5.0624a1.73,1.73,0,0,0-1.6875-1.6875Zm-5.0623,0H6.75V2.25h4.5Z"/></symbol><symbol id="document-solid" data-name="document-solid" viewBox="0 0 13.5 18"><path id="file-alt" d="M7.8752,4.7815V0H.844A.8414.8414,0,0,0,0,.8389V17.156A.8414.8414,0,0,0,.8389,18H12.6561a.8414.8414,0,0,0,.8439-.8389V5.6248H8.7185A.8463.8463,0,0,1,7.8752,4.7815Zm2.25,8.2968a.4229.4229,0,0,1-.4216.4217H3.7968a.4229.4229,0,0,1-.4216-.4217v-.2815a.4228.4228,0,0,1,.4216-.4216H9.7032a.4228.4228,0,0,1,.4216.4216Zm0-2.25a.4229.4229,0,0,1-.4216.4217H3.7968a.4229.4229,0,0,1-.4216-.4217v-.2815a.4229.4229,0,0,1,.4216-.4217H9.7032a.4229.4229,0,0,1,.4216.4217Zm0-2.5312v.2815A.4229.4229,0,0,1,9.7032,9H3.7968a.4229.4229,0,0,1-.4216-.4217V8.2968a.4228.4228,0,0,1,.4216-.4216H9.7032A.4228.4228,0,0,1,10.1248,8.2968ZM13.5,4.2854V4.5H9V0h.2146a.8435.8435,0,0,1,.5978.2462l3.4433,3.4452A.8409.8409,0,0,1,13.5,4.2854Z"/></symbol><symbol id="book" data-name="book" viewBox="0 0 15.75 18"><path id="book-3" data-name="book" d="M15.75,12.6563V.8439A.8421.8421,0,0,0,14.91,0H3.3749A3.3762,3.3762,0,0,0,0,3.3749v11.25A3.3762,3.3762,0,0,0,3.3749,18h11.53a.8419.8419,0,0,0,.8438-.84v-.5647a.85.85,0,0,0-.3116-.6575,7.8392,7.8392,0,0,1,0-2.6264.8375.8375,0,0,0,.3116-.6538ZM4.5,4.7111a.2113.2113,0,0,1,.2107-.2106h7.4534a.2113.2113,0,0,1,.2107.2106v.703a.2114.2114,0,0,1-.2107.2107H4.7111a.2112.2112,0,0,1-.2106-.2107Zm0,2.25A.2113.2113,0,0,1,4.7105,6.75h7.4534a.2113.2113,0,0,1,.2107.2106v.7049a.2114.2114,0,0,1-.2107.2107H4.7111A.2114.2114,0,0,1,4.5,7.6659Zm8.9087,8.7878H3.3749a1.125,1.125,0,1,1,0-2.25H13.4092a12.66,12.66,0,0,0-.0007,2.2512Z"/></symbol><symbol id="truck-loaded" data-name="truck-loaded" viewBox="0 0 19 12.149"><g id="Group_1728" data-name="Group 1728"><path id="Path_627" data-name="Path 627" d="M1.8017,9.098a1.5257,1.5257,0,1,0,1.5256,1.5256A1.5257,1.5257,0,0,0,1.8017,9.098Z"/><path id="Path_628" data-name="Path 628" d="M5.7673,9.098a1.5257,1.5257,0,1,0,1.5256,1.5256A1.5256,1.5256,0,0,0,5.7673,9.098Z"/><path id="Path_629" data-name="Path 629" d="M16.1141,9.098a1.5257,1.5257,0,1,0,1.5281,1.5256A1.5256,1.5256,0,0,0,16.1141,9.098Z"/><path id="Path_630" data-name="Path 630" d="M17.879,6.6918c-.2042-.0156-.5781-.0238-1.1123-.0238-.7052,0-1.5106.0138-1.8444.0207v-1.84c0-.4653-.1879-.6889-.5812-.6889h-.8142a4.326,4.326,0,0,0-.7415-1.2576A3.7843,3.7843,0,0,0,9.7962,1.5444a.8868.8868,0,0,0-.6589.1679.7276.7276,0,0,0-.1321.5586V7.9976H.8065a.1379.1379,0,0,0-.1372.1372V8.71a.1379.1379,0,0,0,.1372.1372h2.2A.8236.8236,0,0,1,3.57,9.65a.1372.1372,0,1,0,.2743,0v0c0-.6019.6482-.7027.72-.7121H7.2c.1309.0576.7346.394.7346,1.6847a.1372.1372,0,0,0,.1372.1372h5.6954a.1365.1365,0,0,0,.1371-.1322,2.7087,2.7087,0,0,1,.2944-1.0409A1.8978,1.8978,0,0,1,16.0145,8.56a1.9185,1.9185,0,0,1,1.8269,1.0578,2.96,2.96,0,0,1,.3131,1.0873.1366.1366,0,0,0,.1365.1309h.5718A.1372.1372,0,0,0,19,10.6988h0V8.2857a.0194.0194,0,0,0-.0194-.0194h-.5987a.3723.3723,0,1,1,0-.7446h.5987A.0194.0194,0,0,0,19,7.5023V7.1954C18.9987,6.7783,18.5015,6.74,17.879,6.6918ZM14.15,5.2094V6.6931h-1.748V4.9451h1.4837A.265.265,0,0,1,14.15,5.2094Z"/></g><rect width="8.0814" height="6.9989" rx="0.5567"/></symbol><symbol id="bargraph" data-name="bargraph" viewBox="0 0 18 13.5"><path id="chart-bar" d="M13.9525,10.1246H14.74a.4839.4839,0,0,0,.4522-.4522V1.5748a.4839.4839,0,0,0-.4522-.4521h-.7874a.4838.4838,0,0,0-.4522.4521v8.1A.4838.4838,0,0,0,13.9525,10.1246Zm-6.75,0H7.99a.4837.4837,0,0,0,.4522-.4522V2.7A.4837.4837,0,0,0,7.99,2.2479H7.2A.4837.4837,0,0,0,6.7476,2.7V9.6763a.4838.4838,0,0,0,.4521.4483Zm3.3751,0h.7848a.4837.4837,0,0,0,.4522-.4522V4.95a.4839.4839,0,0,0-.4522-.4522h-.7874a.4839.4839,0,0,0-.4521.4522V9.675a.4837.4837,0,0,0,.4521.45ZM17.44,11.8118H1.6872V.5626A.5626.5626,0,0,0,1.1252,0H.5626A.5626.5626,0,0,0,0,.5626H0V12.3751A1.1252,1.1252,0,0,0,1.1252,13.5H17.4374A.5626.5626,0,0,0,18,12.9377h0v-.5626a.5626.5626,0,0,0-.5626-.5626ZM3.8247,10.1246h.788a.4838.4838,0,0,0,.4522-.4522V7.2a.4838.4838,0,0,0-.4522-.4521h-.788A.4837.4837,0,0,0,3.3725,7.2V9.675A.4838.4838,0,0,0,3.8247,10.1246Z"/></symbol><symbol id="boxes" data-name="boxes" viewBox="0 0 17.446 17.543"><rect x="9.913" y="9.9783" width="7.5326" height="7.5326" rx="0.3479"/><rect x="4.9565" width="7.5326" height="7.5326" rx="0.3479"/><rect y="10.0109" width="7.5326" height="7.5326" rx="0.3479"/></symbol><symbol id="trailer" data-name="trailer" viewBox="0 0 19 12.268"><path d="M6.7892,10.461a.5338.5338,0,0,1-.0287.21,1.7847,1.7847,0,0,1-1.7786,1.5969,1.8035,1.8035,0,0,1-1.7977-1.5969.7857.7857,0,0,1-.0191-.21,1.8121,1.8121,0,1,1,3.6241,0Z"/><path d="M19,.9849V6.072a.9979.9979,0,0,1-.9944.9849H16.8007V9.6291H15.615V7.0569H11.7136l-.0573,3.6145H7.4585a.1324.1324,0,0,1-.0669-.1147,3.7318,3.7318,0,0,0-.373-1.2814A2.2756,2.2756,0,0,0,4.848,8.0131,2.2672,2.2672,0,0,0,2.6965,9.2275a3.3083,3.3083,0,0,0-.3442,1.2335.1611.1611,0,0,1-.1625.1626H.6694a1.0508,1.0508,0,0,1-.5355-.44A.9331.9331,0,0,1,0,9.696V.9849A.99.99,0,0,1,.9849,0H18.0056A.9917.9917,0,0,1,19,.9849Z"/></symbol><symbol id="map" data-name="map" viewBox="0 0 19 16.889"><g id="map-3" data-name="map"><path d="M9.5,0A4.1561,4.1561,0,0,0,5.3438,4.1562c0,1.8558,2.7164,5.2382,3.7571,6.466a.52.52,0,0,0,.7982,0c1.0407-1.2278,3.7572-4.61,3.7572-6.466A4.1562,4.1562,0,0,0,9.5,0Zm0,5.5417a1.3855,1.3855,0,1,1,1.3854-1.3855A1.3853,1.3853,0,0,1,9.5,5.5417ZM.6637,7.1234A1.0555,1.0555,0,0,0,0,8.1034V16.36a.5278.5278,0,0,0,.7237.49l4.5541-2.0728V7.0894a9.9932,9.9932,0,0,1-.701-1.5312ZM9.5,11.8641a1.5759,1.5759,0,0,1-1.2043-.5594c-.6485-.7653-1.3383-1.6368-1.9624-2.5307v6.0034l6.3334,2.1112V8.7743c-.6241.8936-1.3135,1.7654-1.9624,2.5307A1.5766,1.5766,0,0,1,9.5,11.8641ZM18.2763,5.316,13.7222,7.3889v9.5l4.6141-1.8456a1.0554,1.0554,0,0,0,.6637-.98V5.8062a.5279.5279,0,0,0-.7237-.49Z"/></g></symbol><symbol id="phone" data-name="phone" viewBox="0 0 19 19"><path id="phone-square" class="cls-1" d="M2.0358,0A2.0359,2.0359,0,0,0,0,2.0358V16.9642H0A2.0359,2.0359,0,0,0,2.0358,19H16.9642A2.0359,2.0359,0,0,0,19,16.9642V2.0358h0A2.0359,2.0359,0,0,0,16.9642,0Zm12.978,16.2851A12.2981,12.2981,0,0,1,2.7149,3.9877a.6362.6362,0,0,1,.4931-.62l2.7565-.636a.6359.6359,0,0,1,.7275.369L7.9663,6.07a.6359.6359,0,0,1-.1822.7426L6.177,8.1274a9.8314,9.8314,0,0,0,4.6986,4.6978l1.3144-1.607a.636.636,0,0,1,.7426-.1823l2.9683,1.2721a.6359.6359,0,0,1,.369.7275l-.636,2.7565a.6362.6362,0,0,1-.62.4931Z"/></symbol><symbol id="bar" data-name="bar" viewBox="0 0 19 3"><path d="M17.5,3H1.5a1.5,1.5,0,0,1,0-3h16a1.5,1.5,0,0,1,0,3Z"/></symbol><symbol id="plus" data-name="plus" viewBox="0 0 11 11.003"><g id="Group_3185" data-name="Group 3185"><path id="Path_945" data-name="Path 945" d="M11,5.505A1.1482,1.1482,0,0,1,9.8551,6.65H6.65V9.8551a1.1483,1.1483,0,1,1-2.2965,0V6.65H1.1482a1.1483,1.1483,0,0,1,0-2.2965H4.3534V1.1483a1.1483,1.1483,0,1,1,2.2965,0V4.3551H9.8551A1.15,1.15,0,0,1,11,5.505Z"/></g></symbol><symbol id="x" data-name="x" viewBox="0 0 11 11.897"><path d="M10.6589,11.5407A1.0471,1.0471,0,0,1,9.18,11.483L5.51,7.5082l-3.592,4.0377A1.0473,1.0473,0,0,1,.355,10.1511l3.7282-4.19L.2763,1.84A1.0483,1.0483,0,1,1,1.818.4187l3.6653,3.97L9.0805.3505a1.0474,1.0474,0,0,1,1.5627,1.3949l-3.7283,4.19,3.8069,4.1216A1.0471,1.0471,0,0,1,10.6589,11.5407Z"/></symbol><symbol id="pick-outline" data-name="pick-outline" viewBox="0 0 15 16.264"><path id="Path_1073" data-name="Path 1073" d="M14.9156,3.5392h0V3.455h0V3.3707h0a.0844.0844,0,0,0-.0843-.0843h0L11.9662.2528A.728.728,0,0,0,11.4606,0h-8.09A.6443.6443,0,0,0,2.95.1685L.0844,3.2864,0,3.3707H0V3.455H0v.0842H0v.0843H0v12.05a.5763.5763,0,0,0,.5626.59c.009,0,.0181,0,.0272,0H14.41a.5764.5764,0,0,0,.59-.5626q0-.0137,0-.0273V3.7078C14.9156,3.6235,14.9156,3.6235,14.9156,3.5392ZM8.0056,1.264h3.2022l1.77,1.8539H8.0056Zm-4.3819,0H6.8259V3.1179H1.9383ZM13.7358,15.1682H1.0956V4.2977h12.64ZM11.3763,9.6908a.8857.8857,0,0,1-1.0955,0L8.5955,8.09V12.64a.7584.7584,0,1,1-1.5168,0h0V8.09L5.3933,9.6908a.728.728,0,0,1-.5056.2528.7655.7655,0,0,1-.59-.2528l-.0842-.0843a.696.696,0,0,1,.0509-.983l.0333-.0282L7.3315,5.73h0c0-.0843.1685-.0843.2528-.1685h.1685a1.1979,1.1979,0,0,1,.5056.1685h0l3.0337,2.8651.0842.0843a.6867.6867,0,0,1,.0408.97Q11.3976,9.6713,11.3763,9.6908Z"/></symbol><symbol id="drop-outline" data-name="drop-outline" viewBox="0 0 15 16.264"><path id="Path_1073-2" data-name="Path 1073" d="M14.9156,3.5392h0V3.455h0V3.3707h0a.0844.0844,0,0,0-.0843-.0843h0L11.9662.2528A.728.728,0,0,0,11.4606,0h-8.09A.6443.6443,0,0,0,2.95.1685L.0844,3.2864,0,3.3707H0V3.455H0v.0842H0v.0843H0v12.05a.5763.5763,0,0,0,.5626.59c.009,0,.0181,0,.0272,0H14.41a.5764.5764,0,0,0,.59-.5626q0-.0137,0-.0273V3.7078C14.9156,3.6235,14.9156,3.6235,14.9156,3.5392ZM8.0056,1.264h3.2022l1.77,1.8539H8.0056Zm-4.3819,0H6.8259V3.1179H1.9383ZM13.7358,15.1682H1.0956V4.2977h12.64ZM4.2565,9.27a.8855.8855,0,0,1,1.0955,0l1.6853,1.601V6.32a.7585.7585,0,0,1,1.5169,0h0v4.55L10.24,9.27a.7276.7276,0,0,1,.5056-.2528.7648.7648,0,0,1,.59.2528l.0843.0842a.6961.6961,0,0,1-.051.9831l-.0333.0281L8.3014,13.23h0c0,.0843-.1686.0843-.2528.1686H7.88a1.1971,1.1971,0,0,1-.5056-.1686h0L4.3408,10.3649l-.0843-.0842a.6868.6868,0,0,1-.0408-.97Q4.2352,9.289,4.2565,9.27Z"/></symbol><symbol id="pick-solid" data-name="pick-solid" viewBox="0 0 15 16.264"><path d="M14.9158,3.5393V3.3707a.0907.0907,0,0,0-.0843-.0843L11.9664.2528A.79.79,0,0,0,11.4607,0h-8.09A.6741.6741,0,0,0,2.95.1685L.0845,3.2864,0,3.3707V15.6739a.574.574,0,0,0,.5562.59H14.41a.5793.5793,0,0,0,.59-.5561v-12C14.9158,3.6235,14.9158,3.6235,14.9158,3.5393ZM8.0057,1.264h3.2022l1.77,1.8539H8.0057ZM11.41,9.6488a.1868.1868,0,0,1-.0337.0421.886.886,0,0,1-1.0955,0L8.5956,8.09V12.64a.7584.7584,0,1,1-1.5168,0V8.09L5.3934,9.6909a.7184.7184,0,0,1-.5056.2528.7379.7379,0,0,1-.59-.2528l-.0843-.0843a.6849.6849,0,0,1,.0506-.9775.0656.0656,0,0,1,.0337-.0337L7.3316,5.73c0-.0843.1685-.0843.2528-.1686h.1685a1.24,1.24,0,0,1,.5056.1686l3.0337,2.8651.0843.0843A.6821.6821,0,0,1,11.41,9.6488ZM3.6237,1.264H6.8259V3.1179H1.9384Z"/></symbol><symbol id="drop-solid" data-name="drop-solid" viewBox="0 0 15 16.264"><path d="M14.9157,3.5392V3.3707a.0845.0845,0,0,0-.0842-.0843L11.9663.2528A.7522.7522,0,0,0,11.4607,0h-8.09A.7143.7143,0,0,0,2.95.1685L.0845,3.2864,0,3.3707V15.6739a.5755.5755,0,0,0,.5646.59H14.41a.574.574,0,0,0,.59-.5562v-12C14.9157,3.6235,14.9157,3.6235,14.9157,3.5392ZM3.6237,1.264H6.8259V3.1179H1.9384ZM11.368,10.34a.1136.1136,0,0,1-.0337.0253L8.3006,13.23c0,.0843-.1685.0843-.2528.1686H7.8793a1.237,1.237,0,0,1-.5056-.1686L4.34,10.365l-.0842-.0843a.6817.6817,0,0,1-.0338-.969A.185.185,0,0,0,4.2558,9.27a.8859.8859,0,0,1,1.0954,0l1.6854,1.6011V6.32a.7584.7584,0,1,1,1.5168,0v4.5505L10.2388,9.27a.7175.7175,0,0,1,1.0955,0l.0843.0843A.6953.6953,0,0,1,11.368,10.34ZM8.0057,3.1179V1.264h3.2022l1.77,1.8539Z"/></symbol><symbol id="camera" data-name="camera" viewBox="0 0 19 15.835"><g id="Group_1669" data-name="Group 1669"><path d="M16.2881,2.2586H14.03l-.7336-1.83A.668.668,0,0,0,12.6694,0H6.3306a.668.668,0,0,0-.6265.4286l-.7336,1.83H2.7119A2.7246,2.7246,0,0,0,0,4.9705v8.144a2.7193,2.7193,0,0,0,2.7119,2.7119l13.5762.0083A2.7319,2.7319,0,0,0,19,13.1145V4.9705A2.73,2.73,0,0,0,16.2881,2.2586Zm-3.7505,9.8173A4.2975,4.2975,0,1,1,9.4959,4.74a4.3059,4.3059,0,0,1,4.3028,4.3028A4.246,4.246,0,0,1,12.5376,12.0759Z"/><path d="M12.4386,9.0425a2.9374,2.9374,0,0,1-2.9345,2.9427H9.4794A2.9357,2.9357,0,0,1,6.5614,9.059V9.0425a2.9386,2.9386,0,1,1,5.8772,0Z"/></g></symbol><symbol id="film" data-name="film" viewBox="0 0 19 16.138"><g id="Group_2353" data-name="Group 2353"><g id="Group_1670" data-name="Group 1670"><path d="M17.9987,0H1.0013A1.0025,1.0025,0,0,0,0,.993V15.1449a1.0081,1.0081,0,0,0,1.0013.993H17.9987A1.0026,1.0026,0,0,0,19,15.1449V.993A1.0025,1.0025,0,0,0,17.9987,0ZM15.4954,1.2767A.5021.5021,0,0,1,15.996.776h1.26a.5022.5022,0,0,1,.5007.5007l-.0083,1.26a.5022.5022,0,0,1-.5007.5006H15.996a.5021.5021,0,0,1-.5006-.5006ZM11.924,8.386,7.4431,10.5138a.3831.3831,0,0,1-.5173-.1.41.41,0,0,1-.0585-.267v-4.08a.3667.3667,0,0,1,.3088-.4172.3535.3535,0,0,1,.2587.0584L11.924,7.8436C12.2327,7.9855,12.2327,8.2358,11.924,8.386Zm.0083-7.1093A.5022.5022,0,0,1,12.433.776h1.26a.4969.4969,0,0,1,.5007.5007v1.26a.4968.4968,0,0,1-.5007.5006h-1.26a.5022.5022,0,0,1-.5007-.5006Zm-3.5629,0A.5021.5021,0,0,1,8.87.776h1.2684a.4951.4951,0,0,1,.5006.4924V2.5367a.5021.5021,0,0,1-.5006.5006H8.87a.502.502,0,0,1-.5006-.5006Zm-3.5547,0A.5021.5021,0,0,1,5.3153.776h1.26a.5022.5022,0,0,1,.5007.5007v1.26a.5021.5021,0,0,1-.5007.5006H5.307a.5021.5021,0,0,1-.5007-.5006Zm-3.5631,0A.5022.5022,0,0,1,1.7523.776h1.26a.4951.4951,0,0,1,.5007.4924V2.5367a.5021.5021,0,0,1-.5007.5006H1.744a.5021.5021,0,0,1-.5007-.5006Zm2.253,13.5845a.5021.5021,0,0,1-.5007.5006H1.744a.5021.5021,0,0,1-.5007-.5006v-1.26a.4968.4968,0,0,1,.5007-.5006H3.0123a.4968.4968,0,0,1,.5007.5006Zm3.5631,0a.5021.5021,0,0,1-.5007.5006H5.307a.5021.5021,0,0,1-.5007-.5006v-1.26a.4968.4968,0,0,1,.5007-.5006h1.26a.4968.4968,0,0,1,.5007.5006Zm3.5546,0a.4967.4967,0,0,1-.5007.5006H8.87a.502.502,0,0,1-.5006-.5006v-1.26a.4967.4967,0,0,1,.5006-.5006h1.2684a.4968.4968,0,0,1,.5006.5006Zm3.563,0a.502.502,0,0,1-.5006.5006H12.433a.5021.5021,0,0,1-.5007-.5006v-1.26a.4968.4968,0,0,1,.5007-.5006h1.26a.4968.4968,0,0,1,.5007.5006Zm3.5631,0a.5021.5021,0,0,1-.5007.5006H15.996a.502.502,0,0,1-.5006-.5006v-1.26a.4968.4968,0,0,1,.5006-.5006h1.26a.4968.4968,0,0,1,.5007.5006Z"/></g></g></symbol><symbol id="paperclip" data-name="paperclip" viewBox="0 0 19 17.306"><g id="Group_2350" data-name="Group 2350"><g id="Group_2349" data-name="Group 2349"><g id="Group_1666" data-name="Group 1666"><path id="Path_610" data-name="Path 610" d="M14.1413.001a4.7607,4.7607,0,0,1,4.858,4.6426,5.0326,5.0326,0,0,1-1.45,3.6169L8.6647,17.0856a.6475.6475,0,1,1-.9736-.8538h0a.7951.7951,0,0,1,.0636-.0636l8.8788-8.8251A3.7089,3.7089,0,0,0,17.707,4.6444a3.45,3.45,0,0,0-3.55-3.3469h-.0138A3.5437,3.5437,0,0,0,11.6466,2.371L1.9478,12.0467a2.0978,2.0978,0,0,0-.6549,1.4369,2.3261,2.3261,0,0,0,.6483,1.68,2.1727,2.1727,0,0,0,3.0711.0339l.0322-.0339q4.7994-4.8076,9.6021-9.6079a.9529.9529,0,0,0,.1016-1.2684.9331.9331,0,0,0-1.2065-.02L4.7769,12.984a.6482.6482,0,0,1-.9736-.8547.555.555,0,0,1,.0636-.0619l8.764-8.7186a2.147,2.147,0,0,1,3.03.0066,2.2716,2.2716,0,0,1-.0231,3.0421L5.9644,16.08a3.493,3.493,0,0,1-4.9382,0A3.6375,3.6375,0,0,1,.0006,13.4819a3.37,3.37,0,0,1,1.0363-2.3551l9.6988-9.674a4.8424,4.8424,0,0,1,3.4056-1.45Z"/></g></g></g></symbol><symbol id="magnifying-glass" data-name="magnifying-glass" viewBox="0 0 15.454 15.458"><g id="Group_4402" data-name="Group 4402"><g id="Group_4401" data-name="Group 4401"><path id="Path_824" data-name="Path 824" d="M15.1523,13.9393l-2.955-2.955a6.812,6.812,0,1,0-1.213,1.213l2.955,2.955A.858.858,0,0,0,15.252,14.047l-.0217-.0247a.9525.9525,0,0,0-.081-.081ZM3.2113,10.42a5.1,5.1,0,1,1,3.6,1.493A5.1,5.1,0,0,1,3.2113,10.42Z"/></g></g></symbol><symbol id="triangle" data-name="triangle" viewBox="0 0 10 5.975"><g id="Group_2122" data-name="Group 2122"><path id="Path_817" data-name="Path 817" d="M9.5379,5.9748H.4623a.4614.4614,0,0,1-.3435-.77L4.6566.1535A.4612.4612,0,0,1,5.308.1178a.43.43,0,0,1,.0357.0357L9.8826,5.2044a.4624.4624,0,0,1-.3447.77Z"/></g></symbol><symbol id="checkmark" data-name="checkmark" viewBox="0 0 10.217 7.975"><g id="checkmark-3" data-name="checkmark"><path d="M9.9725,1.6549l-5.23,5.98-.04.04a1.5548,1.5548,0,0,1-.13.12,1.0149,1.0149,0,0,1-.18.09.4953.4953,0,0,1-.13.05.84.84,0,0,1-.27.04.9363.9363,0,0,1-.51-.14,1.46,1.46,0,0,1-.15-.11c-.02-.01-.03-.03-.05-.04l-2.99-2.99a1.0041,1.0041,0,1,1,1.42-1.42l2.23,2.23,4.52-5.16a1,1,0,1,1,1.51,1.31Z"/></g></symbol><symbol id="pencil" data-name="pencil" viewBox="0 0 15 14.999"><path id="Path_646" data-name="Path 646" d="M11.5538,0,9.8181,1.7357l3.4462,3.4451L15,3.4451ZM9.241,2.3129,1.5065,10.0463l3.4462,3.4451L12.6871,5.758Zm-8.26,8.361L0,14.9989l4.3261-.9819Z"/></symbol><symbol id="square-filled" data-name="square-filled" viewBox="0 0 18 18"><g id="Path_1005" data-name="Path 1005"><path d="M15.75,0H2.25A2.2533,2.2533,0,0,0,0,2.25v13.5A2.2533,2.2533,0,0,0,2.25,18h13.5A2.2534,2.2534,0,0,0,18,15.75V2.25A2.2534,2.2534,0,0,0,15.75,0Zm.75,15.75a.749.749,0,0,1-.75.75H2.25a.7555.7555,0,0,1-.75-.75V2.25a.749.749,0,0,1,.75-.75h13.5a.7427.7427,0,0,1,.75.75Z"/><rect class="cls-2" x="1.5" y="1.5" width="15" height="15" rx="0.75"/></g></symbol><symbol id="square-empty" data-name="square-empty" viewBox="0 0 18 18"><g id="Path_1005-2" data-name="Path 1005"><path d="M15.75,0H2.25A2.2533,2.2533,0,0,0,0,2.25v13.5A2.2533,2.2533,0,0,0,2.25,18h13.5A2.2534,2.2534,0,0,0,18,15.75V2.25A2.2534,2.2534,0,0,0,15.75,0Zm.75,15.75a.749.749,0,0,1-.75.75H2.25a.7555.7555,0,0,1-.75-.75V2.25a.749.749,0,0,1,.75-.75h13.5a.7427.7427,0,0,1,.75.75Z"/></g></symbol><symbol id="archivebin" data-name="archivebin" viewBox="0 0 16 14.673"><path id="Path_916" data-name="Path 916" d="M10.6721,5.33V6.6579H5.3443V5.33Zm4-1.3281H1.3445v9.8708c0,.8,0,.8.7994.8H14.1432c.5277,0,.5277,0,.5277-.8ZM15.4674,0H.8C0,0,0,0,0,.5278V2.6543H16V.5278C16,0,16,0,15.4674,0Z"/></symbol><symbol id="printer" data-name="printer" viewBox="0 0 16 15.931"><g id="Group_2508" data-name="Group 2508"><g id="Group_2506" data-name="Group 2506"><rect id="Rectangle_2075" data-name="Rectangle 2075" x="3.4481" width="9.1037" height="2.2757"/><path id="Path_917" data-name="Path 917" d="M16,3.3789H0v9.1038H2.2757v-3.38H13.6551v3.38H16ZM14.8276,5.6546H13.7243V4.5514h1.1033Z"/><rect id="Rectangle_2076" data-name="Rectangle 2076" x="3.4481" y="10.0138" width="9.1037" height="5.917"/></g></g></symbol><symbol id="envelope" data-name="envelope" viewBox="0 0 19 12.05"><g id="Group_2507" data-name="Group 2507"><path id="Path_916-2" data-name="Path 916" d="M19,.9276V11.1229a1.1522,1.1522,0,0,1-.0469.2782L12.4655,6.0257,18.9531.6493A1.153,1.153,0,0,1,19,.9276ZM.0469.6493A1.2,1.2,0,0,0,0,.9276V11.1229a1.2,1.2,0,0,0,.0469.2782L6.5345,6.0257ZM10.682,7.508a1.8821,1.8821,0,0,1-2.364,0L7.2756,6.6272.7182,12.05H18.2589L11.7473,6.6272ZM10.08,6.79,18.2818,0H.7182L8.8975,6.79A.9411.9411,0,0,0,10.08,6.79Z"/></g></symbol><symbol id="filter" data-name="filter" viewBox="0 0 17.732 13.438"><g id="Group_5148" data-name="Group 5148"><path id="Path_1055" data-name="Path 1055" d="M17.7317,1.2915A1.2915,1.2915,0,0,1,16.44,2.583H1.2915A1.2915,1.2915,0,0,1,0,1.2915H0A1.2915,1.2915,0,0,1,1.2915,0H16.44A1.2915,1.2915,0,0,1,17.7317,1.2915Z"/><path id="Path_1056" data-name="Path 1056" d="M15.5867,6.7189A1.2915,1.2915,0,0,1,14.2952,8.01H3.4365A1.2915,1.2915,0,0,1,2.145,6.7189h0A1.2914,1.2914,0,0,1,3.4365,5.4275h10.859A1.2914,1.2914,0,0,1,15.5867,6.7189Z"/><path id="Path_1057" data-name="Path 1057" d="M12.3693,12.1462a1.2915,1.2915,0,0,1-1.2915,1.2915H6.654a1.2915,1.2915,0,0,1-1.2915-1.2915h0A1.2915,1.2915,0,0,1,6.654,10.8547h4.424A1.2915,1.2915,0,0,1,12.3693,12.1462Z"/></g></symbol><symbol id="circle-info" data-name="circle-info" viewBox="0 0 16 16"><path d="M8,0a8,8,0,1,0,8,8A8.0042,8.0042,0,0,0,8,0ZM7.9,11.86a.1889.1889,0,0,0,.13.07.3519.3519,0,0,0,.23-.11A4.136,4.136,0,0,0,9,10.91l.23.13q-1.035,1.8-2.19,1.8a.963.963,0,0,1-.71-.25.8088.8088,0,0,1-.26-.63,2.19,2.19,0,0,1,.11-.64l.95-3.27a2.9561,2.9561,0,0,0,.14-.71.35.35,0,0,0-.13-.27.518.518,0,0,0-.36-.11H6.54l.09-.27,2.31-.38h.41l-1.4,4.86a2.3741,2.3741,0,0,0-.11.55A.1976.1976,0,0,0,7.9,11.86ZM9.64,4.88a.96.96,0,0,1-.71.3.9379.9379,0,0,1-.7-.3.9438.9438,0,0,1-.3-.71.99.99,0,0,1,1-1,.9732.9732,0,0,1,.71.29.96.96,0,0,1,.3.71A.9439.9439,0,0,1,9.64,4.88Z"/></symbol><symbol id="circle-question" data-name="circle-question" viewBox="0 0 16 16"><path d="M8,0a8,8,0,1,0,8,8A7.9978,7.9978,0,0,0,8,0Zm.68,12.3H6.95V10.68H8.68Zm2.18-5.12a3.269,3.269,0,0,1-.97.97l-.46.33a2.4854,2.4854,0,0,0-.61.6,1.2119,1.2119,0,0,0-.22.66H7a2.1615,2.1615,0,0,1,.34-1.1,3.387,3.387,0,0,1,.91-.9,4.0267,4.0267,0,0,0,.91-.78,1.1806,1.1806,0,0,0,.26-.75,1.0507,1.0507,0,0,0-.34-.84,1.4562,1.4562,0,0,0-.98-.31,1.4785,1.4785,0,0,0-1.02.36,1.3991,1.3991,0,0,0-.49.94L4.88,6.28a2.84,2.84,0,0,1,1-1.9,3.4059,3.4059,0,0,1,2.19-.67,3.5117,3.5117,0,0,1,2.24.64,2.1586,2.1586,0,0,1,.81,1.78A2.0462,2.0462,0,0,1,10.86,7.18Z"/></symbol><symbol id="trash" data-name="trash" viewBox="0 0 15.003 16.003"><path id="Path_1060" data-name="Path 1060" d="M14.8027,2.0017h-3.8v-1a.945.945,0,0,0-.8866-1,.975.975,0,0,0-.1134,0h-5a.945.945,0,0,0-1,.8866.9327.9327,0,0,0,0,.1134v1h-3.7a.265.265,0,0,0-.3.3v.5c0,.1.1.2.3.2h1l1.2,12.5a.4719.4719,0,0,0,.4422.5.4645.4645,0,0,0,.0578,0h9a.472.472,0,0,0,.5-.4422.4645.4645,0,0,0,0-.0578l1.3-12.5h1a.215.215,0,0,0,.2-.2v-.5C15.0027,2.1017,14.9027,2.0017,14.8027,2.0017Zm-10.3,11.5a.5359.5359,0,0,1-.5-.5h0l-.5-8a.472.472,0,0,1,.4422-.5.5066.5066,0,0,1,.0578,0,.4721.4721,0,0,1,.5.4423.4629.4629,0,0,1,0,.0577l.5,8A.5359.5359,0,0,1,4.5027,13.5017Zm3.5-.5a.5.5,0,0,1-1,0v-8a.5.5,0,0,1,1,0Zm2-11h-5v-1h5Zm1,11a.5.5,0,0,1-1,0l.5-8a.5.5,0,0,1,1,0Z"/></symbol><symbol id="circle-arrow-left" data-name="circle-arrow-left" viewBox="0 0 16 16"><g id="Group_3542" data-name="Group 3542"><g id="Group_4414" data-name="Group 4414"><path d="M8,0a8,8,0,1,0,8,8A7.9978,7.9978,0,0,0,8,0Zm3.25,8.55c-.01.01-.01.02-.02.03l-2.7,3.06a.647.647,0,0,0-.09.08.6457.6457,0,0,1-.9-.08.8618.8618,0,0,1,0-1.11L9.06,8.81H4.71a.79.79,0,0,1,0-1.57H9.06L7.54,5.53a.8726.8726,0,0,1-.2-.56.8459.8459,0,0,1,.2-.55.647.647,0,0,1,.09-.08.6366.6366,0,0,1,.9.08l2.7,3.06.03.03a.8714.8714,0,0,1,.16.37v.05a.3054.3054,0,0,1,.01.1A.8212.8212,0,0,1,11.25,8.55Z"/></g></g></symbol><symbol id="circle-exclamation" data-name="circle-exclamation" viewBox="0 0 16 16"><path d="M8,0a8,8,0,1,0,8,8A7.9978,7.9978,0,0,0,8,0Zm.81,3.22L8.62,9.88H7.35L7.16,3.22Zm.04,9.56H7.14V11.13H8.85Z"/></symbol><symbol id="circle-checkmark" data-name="circle-checkmark" viewBox="0 0 16 16"><path d="M8,0a8,8,0,1,0,8,8A7.9978,7.9978,0,0,0,8,0Zm4.62,5.92-4.8,5.47-.08.1a.9428.9428,0,0,1-.35.25.8571.8571,0,0,1-.36.07.9852.9852,0,0,1-.17-.02.87.87,0,0,1-.43-.21c-.02-.02-.04-.03-.05-.05L3.59,8.74A.93.93,0,0,1,4.91,7.43L6.99,9.51l4.23-4.83a.9351.9351,0,0,1,1.4,1.24Z"/></symbol><symbol id="circle-solid" data-name="circle-solid" viewBox="0 0 16 16"><circle cx="8" cy="8" r="8"/></symbol><symbol id="circle-dollarsign" data-name="circle-dollarsign" viewBox="0 0 16 16"><path d="M8,0a8,8,0,1,0,8,8A7.9978,7.9978,0,0,0,8,0Zm3.38,11.1a2.8342,2.8342,0,0,1-2.67,1.83v1.22a.4166.4166,0,0,1-.4.41H7.5a.4166.4166,0,0,1-.4-.41V12.94a3.5228,3.5228,0,0,1-2.18-.76.1.1,0,0,1-.05-.04.3985.3985,0,0,1,0-.57l.88-.87a.3923.3923,0,0,1,.49-.04,1.5517,1.5517,0,0,0,.86.26H8.78a.7441.7441,0,0,0,.2-1.46L6.4,8.71A2.8909,2.8909,0,0,1,4.29,6.27a1.9481,1.9481,0,0,1-.02-.25A2.7678,2.7678,0,0,1,7.04,3.26H7.1V2.05a.4034.4034,0,0,1,.4-.41h.81a.4034.4034,0,0,1,.4.41V3.26a3.5754,3.5754,0,0,1,2.18.75c.02.01.03.03.05.04a.41.41,0,0,1,0,.58l-.88.86a.3936.3936,0,0,1-.49.05,1.5874,1.5874,0,0,0-.86-.27H7.03a.7445.7445,0,0,0-.2,1.46l2.72.8c.04.01.09.03.13.04A2.7737,2.7737,0,0,1,11.38,11.1Z"/></symbol><symbol id="document-outline" data-name="document-outline" viewBox="0 0 12 16.004"><path id="file" d="M11.56,3.0624,8.9376.4406A1.5,1.5,0,0,0,7.8783,0H1.5A1.5091,1.5091,0,0,0,0,1.503V14.504a1.5,1.5,0,0,0,1.5,1.5h9a1.5,1.5,0,0,0,1.5-1.5h0V4.1247a1.5091,1.5091,0,0,0-.4406-1.0623Zm-1.1811.9406H8V1.6247ZM1.5,14.504V1.503h5v3.25a.7485.7485,0,0,0,.7465.75H10.501v9Z"/></symbol><symbol id="circle-plus" data-name="circle-plus" viewBox="0 0 18 18"><path d="M9,0a9,9,0,1,0,9,9A9.0007,9.0007,0,0,0,9,0Zm3.53,9.93H9.93v2.59a.93.93,0,0,1-1.86,0V9.93H5.48a.93.93,0,0,1,0-1.86H8.07V5.48a.93.93,0,0,1,1.86,0V8.07h2.6a.93.93,0,0,1,0,1.86Z"/></symbol><symbol id="download" data-name="download" viewBox="0 0 17.237 17.228"><path d="M17.2367,16.6193a.6035.6035,0,0,1-.6085.6085H.6175A.6111.6111,0,0,1,0,16.6193a.6187.6187,0,0,1,.6175-.6175H16.6282A.6111.6111,0,0,1,17.2367,16.6193Z"/><path d="M13.9791,8.4125,9.0569,13.3348c-.0089.0089-.0179.0179-.0269.0179v.0089c-.0179.009-.0268.0179-.0447.0269-.009.0089-.009.0179-.0269.0179a.1215.1215,0,0,1-.0358.0268c-.0179.0089-.0268.0179-.0447.0269a.0675.0675,0,0,0-.0358.0179.0279.0279,0,0,0-.0179.0089l-.0358.0089-.0268.009-.0269.009H8.69a.1141.1141,0,0,1-.0537.0089H8.5378l-.0268-.0089H8.4752c-.009,0-.0179-.009-.0268-.009l-.0269-.009c-.009,0-.0179-.0089-.0268-.0089h-.009l-.0179-.0089h-.009c-.0089,0-.0089-.009-.0179-.009H8.332l-.0179-.0179h-.009l-.0179-.009a.1238.1238,0,0,1-.0358-.0268l-.0179-.0089-.0178-.0179-.018-.0179L3.2665,8.4394H3.2576a.63.63,0,0,1,.0089-.8771.6188.6188,0,0,1,.8682.009L8.01,11.4464V.6175A.6152.6152,0,0,1,8.6094,0h.0179a.6111.6111,0,0,1,.6086.6175V11.4106L13.111,7.5355a.6038.6038,0,0,1,.4207-.179H13.55a.6014.6014,0,0,1,.4475.1879A.6188.6188,0,0,1,13.9791,8.4125Z"/></symbol><symbol id="add-person" data-name="add-person" viewBox="0 0 19.319 16.497"><g id="Group_1908-3" data-name="Group 1908"><path d="M16.031,3.9553c0,2.4-1.8516,4.732-3.5661,4.732A2.7222,2.7222,0,0,1,10.7676,8.01V8.0015A5.7549,5.7549,0,0,0,9.0789,5.2669H9.07a5.1922,5.1922,0,0,1-.1715-1.3116,3.4153,3.4153,0,0,1,0-.5914A3.6015,3.6015,0,0,1,12.7564.0121,3.64,3.64,0,0,1,16.031,3.9553Z"/><path d="M19.2284,15.0393c-.3514.6944-1.2086.9859-3.5746,1.2773a28.3257,28.3257,0,0,1-6.3778,0c-1.8173-.2229-2.7517-.4457-3.24-.8486A5.9055,5.9055,0,0,0,10.9733,10.11a2.4838,2.4838,0,0,0,1.4916.4029c1.243,0,1.2773-.4629,2.0574-.6344a3.5811,3.5811,0,0,1,2.9917.96,6.8378,6.8378,0,0,1,1.3287,1.9373C19.057,13.2134,19.5113,14.4907,19.2284,15.0393Z"/></g><path d="M5.0726,4.5512a5.0726,5.0726,0,1,0,5.0726,5.0726A5.073,5.073,0,0,0,5.0726,4.5512Zm1.99,5.5967H5.5968v1.46a.5242.5242,0,1,1-1.0484,0v-1.46h-1.46a.5242.5242,0,0,1,0-1.0483h1.46V7.64a.5242.5242,0,0,1,1.0484,0V9.1H7.0622a.5242.5242,0,0,1,0,1.0483Z"/></symbol></defs><title>icons-flipped</title><use width="11" height="11.1567" transform="matrix(1, 0, 0, -1, 124.6046, 193.8027)" xlink:href="#arrow"/><use width="18" height="11.0311" transform="matrix(1, 0, 0, -1, 90.8025, 193.5442)" xlink:href="#arrow-incomplete"/><use width="16" height="18.3142" transform="matrix(1, 0, 0, -1, 181.6538, 107.7171)" xlink:href="#bell"/><use width="16" height="12.0579" transform="matrix(1, 0, 0, -1, 151.4003, 104.1554)" xlink:href="#chat"/><use width="17" height="19.42" transform="matrix(1, 0, 0, -1, 1.2626, 167.1313)" xlink:href="#addressbook"/><use width="10.1199" height="18" transform="matrix(1, 0, 0, -1, 34.1229, 167.0442)" xlink:href="#dollarsign"/><use width="18.991" height="15.1906" transform="matrix(1, 0, 0, -1, 120.2239, 166.2566)" xlink:href="#balance-scale"/><use width="16.3731" height="18.7159" transform="matrix(1, 0, 0, -1, 151.5636, 167.7665)" xlink:href="#calculator"/><use width="17.2827" height="19.7511" transform="matrix(1, 0, 0, -1, 91.1375, 138.28)" xlink:href="#calendar"/><use width="18" height="14.4" transform="matrix(1, 0, 0, -1, 180.2855, 166.2289)" xlink:href="#vehicle"/><use width="19" height="16.5939" transform="matrix(1, 0, 0, -1, 60.1707, 136.9369)" xlink:href="#tools"/><use width="16" height="19.2409" transform="matrix(1, 0, 0, -1, 91.4781, 168.5907)" xlink:href="#user"/><use width="17" height="11.6766" transform="matrix(1, 0, 0, -1, 61.032, 165.8489)" xlink:href="#users"/><use width="19" height="19" transform="matrix(1, 0, 0, -1, 240.2202, 167.8115)" xlink:href="#globe"/><use width="19" height="16.9752" transform="matrix(1, 0, 0, -1, 0, 136.8969)" xlink:href="#exclamation-triangle"/><use width="19" height="14.8071" transform="matrix(1, 0, 0, -1, 30.133, 135.9401)" xlink:href="#buildings"/><use width="18" height="15.7498" transform="matrix(1, 0, 0, -1, 210.7179, 136.3333)" xlink:href="#toolbox"/><use width="13.5" height="18" transform="matrix(1, 0, 0, -1, 123.5075, 137.0383)" xlink:href="#document-solid"/><use width="15.7501" height="18" transform="matrix(1, 0, 0, -1, 152.0828, 137.3582)" xlink:href="#book"/><use width="19" height="12.1493" transform="matrix(1, 0, 0, -1, 210.1078, 164.938)" xlink:href="#truck-loaded"/><use width="18" height="13.5003" transform="matrix(1, 0, 0, -1, 240.8353, 104.94)" xlink:href="#bargraph"/><use width="17.4457" height="17.5435" transform="matrix(1, 0, 0, -1, 180.8236, 137.2789)" xlink:href="#boxes"/><use width="19" height="12.2683" transform="matrix(1, 0, 0, -1, 240.2173, 135.4898)" xlink:href="#trailer"/><use width="19" height="16.8889" transform="matrix(1, 0, 0, -1, 90.1604, 76.5178)" xlink:href="#map"/><use width="19" height="19" transform="matrix(1, 0, 0, -1, 120.2991, 107.806)" xlink:href="#phone"/><use width="19" height="3" transform="matrix(1, 0, 0, -1, 0.1819, 189.7521)" xlink:href="#bar"/><use width="11" height="11.0034" transform="matrix(1, 0, 0, -1, 64.0851, 194.1934)" xlink:href="#plus"/><use width="11" height="11.8972" transform="matrix(1, 0, 0, -1, 33.8123, 194.4408)" xlink:href="#x"/><use width="15" height="16.2639" transform="matrix(1, 0, 0, -1, 121.9692, 76.6108)" xlink:href="#pick-outline"/><use width="15" height="16.2639" transform="matrix(1, 0, 0, -1, 152.4584, 76.6108)" xlink:href="#drop-outline"/><use width="15" height="16.264" transform="matrix(1, 0, 0, -1, 182.4513, 76.611)" xlink:href="#pick-solid"/><use width="15" height="16.264" transform="matrix(1, 0, 0, -1, 212.8352, 76.611)" xlink:href="#drop-solid"/><use width="19" height="15.8347" transform="matrix(1, 0, 0, -1, 0.25, 75.724)" xlink:href="#camera"/><use width="19" height="16.1379" transform="matrix(1, 0, 0, -1, 30.0849, 76.4276)" xlink:href="#film"/><use width="19" height="17.3062" transform="matrix(1, 0, 0, -1, 60.221, 77.2424)" xlink:href="#paperclip"/><use width="15.4536" height="15.4577" transform="matrix(1, 0, 0, -1, 212.0806, 106.862)" xlink:href="#magnifying-glass"/><use width="10" height="5.9748" transform="matrix(1, 0, 0, -1, 184.6689, 191.3076)" xlink:href="#triangle"/><use width="10.2174" height="7.9749" transform="matrix(1, 0, 0, -1, 155.1938, 191.7266)" xlink:href="#checkmark"/><use width="15" height="14.9989" transform="matrix(1, 0, 0, -1, 62.3957, 106.3557)" xlink:href="#pencil"/><use width="18" height="18" transform="matrix(1, 0, 0, -1, 240.7735, 196.5606)" xlink:href="#square-filled"/><use width="18" height="18" transform="matrix(1, 0, 0, -1, 211.0348, 196.564)" xlink:href="#square-empty"/><use width="16" height="14.6729" transform="matrix(1, 0, 0, -1, 1.3739, 105.834)" xlink:href="#archivebin"/><use width="16" height="15.9308" transform="matrix(1, 0, 0, -1, 31.3739, 105.876)" xlink:href="#printer"/><use width="19" height="12.0495" transform="matrix(1, 0, 0, -1, 90.1212, 104.9418)" xlink:href="#envelope"/><use width="17.7317" height="13.4377" transform="matrix(1, 0, 0, -1, 240.8705, 74.8859)" xlink:href="#filter"/><use width="16" height="16" transform="matrix(1, 0, 0, -1, 1.6483, 46.0367)" xlink:href="#circle-info"/><use width="16" height="16" transform="matrix(1, 0, 0, -1, 31.2831, 46.5741)" xlink:href="#circle-question"/><use width="15.0027" height="16.0026" transform="matrix(1, 0, 0, -1, 242.4147, 46.2493)" xlink:href="#trash"/><use width="16" height="16" transform="matrix(1, 0, 0, -1, 91.7678, 46.9245)" xlink:href="#circle-arrow-left"/><use width="16" height="16" transform="matrix(1, 0, 0, -1, 61.2648, 47.3041)" xlink:href="#circle-exclamation"/><use width="16" height="16" transform="matrix(1, 0, 0, -1, 122.6548, 46.9541)" xlink:href="#circle-checkmark"/><use width="16" height="16" transform="matrix(1, 0, 0, -1, 151.4848, 46.9541)" xlink:href="#circle-solid"/><use width="16" height="16" transform="matrix(1, 0, 0, -1, 61.7048, 16.6941)" xlink:href="#circle-dollarsign"/><g id="checkmark-4" data-name="checkmark"><path class="cls-2" d="M135.1622,41.8324a.93.93,0,0,0-.3547-.0746.5848.5848,0,0,0-.1773.028,1.1351,1.1351,0,0,1,.1773-.0187A.9211.9211,0,0,1,135.1622,41.8324Z" transform="translate(-5.1179 -6.6182)"/></g><use width="12" height="16.004" transform="matrix(1, 0, 0, -1, 184.4174, 46.5974)" xlink:href="#document-outline"/><path id="Path_1046" data-name="Path 1046" class="cls-2" d="M229.6609,47.14h-4.37v4.37a.4591.4591,0,0,1-.43.4861.4664.4664,0,0,1-.0567,0h-.971a.459.459,0,0,1-.486-.43.47.47,0,0,1,0-.0557V47.14h-4.37a.459.459,0,0,1-.486-.43.47.47,0,0,1,0-.0557v-.971a.4589.4589,0,0,1,.4292-.4869.468.468,0,0,1,.0568,0h4.37v-4.37a.459.459,0,0,1,.43-.486.47.47,0,0,1,.0557,0h.971a.459.459,0,0,1,.4869.4293.4664.4664,0,0,1,0,.0567v4.37h4.37a.459.459,0,0,1,.486.43.47.47,0,0,1,0,.0557v.972a.459.459,0,0,1-.43.486A.47.47,0,0,1,229.6609,47.14Z" transform="translate(-5.1179 -6.6182)"/><use width="18" height="18" transform="matrix(1, 0, 0, -1, 210.7585, 47.5052)" xlink:href="#circle-plus"/><use width="17.2367" height="17.2278" transform="matrix(1, 0, 0, -1, 0.7429, 17.2278)" xlink:href="#download"/><use width="19.3186" height="16.4967" transform="matrix(1, 0, 0, -1, 29.8522, 17.2707)" xlink:href="#add-person"/></svg>