<svg id="Icons" xmlns="http://www.w3.org/2000/svg" xmlns:xlink="http://www.w3.org/1999/xlink" width="320.2927" height="197.6675" viewBox="0 0 320.2927 197.6675"><defs><style>.cls-1{fill:#231f20;}.cls-2{isolation:isolate;}.cls-3{fill:#fff;}.cls-4{fill-rule:evenodd;}</style><symbol id="add-person" data-name="add-person" viewBox="0 0 19.319 16.497"><g id="Group_1908" data-name="Group 1908"><path d="M16.031,3.9553c0,2.4-1.8516,4.732-3.5661,4.732A2.7222,2.7222,0,0,1,10.7676,8.01V8.0015A5.7549,5.7549,0,0,0,9.0789,5.2669H9.07a5.1922,5.1922,0,0,1-.1715-1.3116,3.4153,3.4153,0,0,1,0-.5914A3.6015,3.6015,0,0,1,12.7564.0121,3.64,3.64,0,0,1,16.031,3.9553Z"/><path d="M19.2284,15.0393c-.3514.6944-1.2086.9859-3.5746,1.2773a28.3257,28.3257,0,0,1-6.3778,0c-1.8173-.2229-2.7517-.4457-3.24-.8486A5.9055,5.9055,0,0,0,10.9733,10.11a2.4838,2.4838,0,0,0,1.4916.4029c1.243,0,1.2773-.4629,2.0574-.6344a3.5811,3.5811,0,0,1,2.9917.96,6.8378,6.8378,0,0,1,1.3287,1.9373C19.057,13.2134,19.5113,14.4907,19.2284,15.0393Z"/></g><path d="M5.0726,4.5512a5.0726,5.0726,0,1,0,5.0726,5.0726A5.073,5.073,0,0,0,5.0726,4.5512Zm2.5011,5.7315H5.7315v1.8351a.6589.6589,0,1,1-1.3178,0V10.2827H2.5786a.6589.6589,0,1,1,0-1.3178H4.4137V7.13a.6589.6589,0,0,1,1.3178,0V8.9649H7.5737a.6589.6589,0,0,1,0,1.3178Z"/></symbol><symbol id="agent" data-name="agent" viewBox="0 0 19.321 16.497"><g id="Group_1908-2" data-name="Group 1908"><path d="M16.0331,3.9553c0,2.4-1.8516,4.732-3.566,4.732A2.7223,2.7223,0,0,1,10.77,8.01V8.0015A5.7541,5.7541,0,0,0,9.081,5.2669H9.0724A5.1966,5.1966,0,0,1,8.901,3.9553a3.3955,3.3955,0,0,1,0-.5914A3.6014,3.6014,0,0,1,12.7585.0121,3.64,3.64,0,0,1,16.0331,3.9553Z"/><path d="M19.2306,15.0393c-.3514.6944-1.2087.9859-3.5746,1.2773a28.3266,28.3266,0,0,1-6.3779,0c-1.8173-.2229-2.7517-.4457-3.24-.8486A5.9055,5.9055,0,0,0,10.9754,10.11a2.484,2.484,0,0,0,1.4917.4029c1.2429,0,1.2772-.4629,2.0573-.6344a3.5811,3.5811,0,0,1,2.9917.96,6.8358,6.8358,0,0,1,1.3287,1.9373C19.0591,13.2134,19.5135,14.4907,19.2306,15.0393Z"/></g><path d="M5.07,4.5484a5.075,5.075,0,1,0,5.08,5.08A5.0722,5.0722,0,0,0,5.07,4.5484Zm2.98,8.15a.3085.3085,0,0,1-.3.25,6.0176,6.0176,0,0,1-6.01-6.02.3.3,0,0,1,.24-.3l1.35-.31a.2993.2993,0,0,1,.35.18l.62,1.45a.306.306,0,0,1-.08.36l-.79.65a4.803,4.803,0,0,0,2.3,2.3l.64-.79a.3092.3092,0,0,1,.36-.09l1.46.62a.311.311,0,0,1,.17.36Z"/></symbol><symbol id="arrow" data-name="arrow" viewBox="0 0 11 11.157"><path d="M10.7343,4.9858,5.3389.179a.7063.7063,0,1,0-.94,1.0548l4.0875,3.64H.7047a.7048.7048,0,0,0,0,1.4095H8.4868l-4.0875,3.64a.7063.7063,0,1,0,.94,1.0549L10.7343,6.171A.7936.7936,0,0,0,10.7343,4.9858Z"/></symbol><symbol id="down" data-name="down" viewBox="0 0 18 11.031"><path d="M17.7113,1.8976,9.9561,10.6024a1.2805,1.2805,0,0,1-1.9122,0L.2887,1.8976A1.14,1.14,0,0,1,.3835.2869h0A1.14,1.14,0,0,1,1.9906.3817L9,8.2532,16.0094.3817A1.14,1.14,0,0,1,17.6165.2869h0A1.14,1.14,0,0,1,17.7113,1.8976Z"/></symbol><symbol id="bell" data-name="bell" viewBox="0 0 16 18.314"><path d="M16,14.59v.4521a.7289.7289,0,0,1-.7663.6743H.7663A.7289.7289,0,0,1,0,15.0422V14.59a.7628.7628,0,0,1,.8582-.6744c.0077-1.1954.0077-2.3908.0153-3.5939.023-3.31.3832-6.95,4.3985-8.3984A2.7218,2.7218,0,0,1,7.9924,0h.0152a2.7218,2.7218,0,0,1,2.72,1.9234c4.0153,1.4482,4.3755,5.0881,4.3985,8.3984.0076,1.2031.0076,2.3985.0153,3.5939A.7628.7628,0,0,1,16,14.59Z"/><path d="M10.636,16.4828a2.8127,2.8127,0,0,1-5.272,0Z"/></symbol><symbol id="chat" data-name="chat" viewBox="0 0 16 12.058"><path d="M13.56,1.9275H4.764a2.4471,2.4471,0,0,0-2.44,2.44v3.19a2.4471,2.4471,0,0,0,2.44,2.44H11.01l1.7629,1.9642a.2787.2787,0,0,0,.4209,0l2.6473-3.5563A2.3021,2.3021,0,0,0,16,7.5577v-3.19A2.4472,2.4472,0,0,0,13.56,1.9275ZM5.9413,6.8563A.8937.8937,0,1,1,6.838,5.96.8982.8982,0,0,1,5.9413,6.8563Zm2.9646,0a.8937.8937,0,1,1,0-1.7873.8937.8937,0,0,1,0,1.7873Zm2.9645,0a.8937.8937,0,1,1,0-1.7873.8937.8937,0,0,1,0,1.7873Z"/><path d="M13.4259,1.3664H4.1418A2.5825,2.5825,0,0,0,1.5677,3.9405V7.3077a2.3663,2.3663,0,0,0,.0854.6282A2.4406,2.4406,0,0,1,0,5.63V2.44A2.4472,2.4472,0,0,1,2.44,0h8.796A2.4451,2.4451,0,0,1,13.4259,1.3664Z"/></symbol><symbol id="addressbook" data-name="addressbook" viewBox="0 0 17 19.42"><path id="address-book" d="M16.5419,6.065A.4548.4548,0,0,0,17,5.6168V4.0931a.47.47,0,0,0-.4581-.4581H15.785V1.8225A1.8233,1.8233,0,0,0,13.9625,0H1.8225A1.8233,1.8233,0,0,0,0,1.8225v15.775A1.8233,1.8233,0,0,0,1.8225,19.42h12.14a1.8233,1.8233,0,0,0,1.8225-1.8225V15.775h.7569A.4548.4548,0,0,0,17,15.3268V13.8031a.4548.4548,0,0,0-.4581-.4481H15.785v-2.43h.7569A.4634.4634,0,0,0,17,10.4668V8.9531a.4633.4633,0,0,0-.4581-.4581H15.785V6.065ZM7.8975,4.85a2.4366,2.4366,0,1,1-2.43,2.43A2.4248,2.4248,0,0,1,7.8975,4.85ZM12.14,13.833a.7925.7925,0,0,1-.8465.737H4.4915a.8037.8037,0,0,1-.8465-.727v-.727a2.3956,2.3956,0,0,1,2.5495-2.191,8.9847,8.9847,0,0,0,1.703.3087,8.8831,8.8831,0,0,0,1.693-.3087,2.3955,2.3955,0,0,1,2.55,2.191Z"/></symbol><symbol id="dollarsign" data-name="dollarsign" viewBox="0 0 10.12 18"><path id="dollar-sign" d="M7.3524,8.2048,3.5556,7.0936a1.0368,1.0368,0,0,1,.2915-2.0321h2.331a2.1443,2.1443,0,0,1,1.2024.3693.5483.5483,0,0,0,.6856-.0691L9.2913,4.1654A.57.57,0,0,0,9.2892,3.36a.5625.5625,0,0,0-.0649-.0555A4.9712,4.9712,0,0,0,6.1855,2.25V.5623A.5643.5643,0,0,0,5.6225,0H4.4979a.5643.5643,0,0,0-.5623.5623V2.25H3.8478A3.8517,3.8517,0,0,0,0,6.1056q0,.1746.0162.3486A4.0212,4.0212,0,0,0,2.9651,9.85l3.6,1.0542a1.0369,1.0369,0,0,1-.29,2.0308H3.9423A2.1451,2.1451,0,0,1,2.74,12.5659a.5481.5481,0,0,0-.6856.067l-1.2225,1.2a.57.57,0,0,0,.063.8612A4.9713,4.9713,0,0,0,3.9356,15.75v1.6876A.5643.5643,0,0,0,4.4979,18H5.6225a.5643.5643,0,0,0,.5623-.5623V15.7414a3.971,3.971,0,0,0,3.7157-2.5556A3.86,3.86,0,0,0,7.5388,8.2646q-.0918-.0322-.1851-.06Z"/></symbol><symbol id="balance-scale" data-name="balance-scale" viewBox="0 0 18.991 15.191"><path id="balance-scale-3" data-name="balance-scale" d="M7.5966,9.9721h0c0-.48.04-.2591-2.5237-5.3861a1.4254,1.4254,0,0,0-2.548,0C-.061,9.7567,0,9.5071,0,9.9721H0c0,1.3111,1.7008,2.3736,3.798,2.3736S7.5966,11.2832,7.5966,9.9721ZM3.7981,5.2242,5.9343,9.4971H1.6619ZM18.99,9.9721c0-.48.04-.2591-2.5237-5.3861a1.4253,1.4253,0,0,0-2.5479,0c-2.5854,5.1707-2.5232,4.9211-2.5232,5.3861h0c0,1.3111,1.7007,2.3736,3.7979,2.3736s3.798-1.0631,3.798-2.3736Zm-5.9341-.4739L15.192,5.2253l2.1362,4.2729Zm2.6111,3.7979H10.4452V4.5492a2.3761,2.3761,0,0,0,1.3764-1.6987h3.8437a.4738.4738,0,0,0,.4739-.4738V1.4236A.4739.4739,0,0,0,15.6653.95H11.384a2.3526,2.3526,0,0,0-3.7769,0H3.3237a.4739.4739,0,0,0-.4739.4739h0v.9478a.4739.4739,0,0,0,.4739.4739H7.1674A2.3764,2.3764,0,0,0,8.5459,4.5492v8.7459H3.3237a.4738.4738,0,0,0-.4739.4739v.9477a.4738.4738,0,0,0,.4739.4739H15.6674a.4738.4738,0,0,0,.4739-.4739V13.769a.4739.4739,0,0,0-.4739-.4734Z"/></symbol><symbol id="calculator" data-name="calculator" viewBox="0 0 16.373 18.716"><path id="calculator-3" data-name="calculator" d="M14.6183,0H1.7548A1.7992,1.7992,0,0,0,0,1.7548V16.9611a1.7992,1.7992,0,0,0,1.7548,1.7548H14.6183a1.7992,1.7992,0,0,0,1.7548-1.7548V1.7548A1.7992,1.7992,0,0,0,14.6183,0ZM4.6791,15.9063a.5028.5028,0,0,1-.4681.4681H2.8071a.5029.5029,0,0,1-.4682-.4681V14.5024a.503.503,0,0,1,.4682-.4682H4.211a.5029.5029,0,0,1,.4681.4682Zm0-4.6792a.5029.5029,0,0,1-.4681.4682H2.8071a.503.503,0,0,1-.4682-.4682V9.8232a.5029.5029,0,0,1,.4682-.4681H4.211a.5028.5028,0,0,1,.4681.4681Zm4.6785,4.6792a.5028.5028,0,0,1-.4681.4681H7.4856a.5028.5028,0,0,1-.4662-.4681V14.5024a.5029.5029,0,0,1,.4681-.4682H8.8869a.503.503,0,0,1,.4682.4682v1.4039Zm0-4.6792a.5029.5029,0,0,1-.4681.4682H7.4856a.503.503,0,0,1-.4682-.4682V9.8232a.5029.5029,0,0,1,.4682-.4681H8.8869a.5029.5029,0,0,1,.4682.4681v1.4039Zm4.6811,4.6792a.5028.5028,0,0,1-.4682.4681H12.1647a.5028.5028,0,0,1-.4681-.4681V9.8258a.503.503,0,0,1,.4681-.4682h1.4039a.5031.5031,0,0,1,.4682.4682v6.0805Zm0-9.3577a.5029.5029,0,0,1-.4682.4682H2.8071a.503.503,0,0,1-.4682-.4682V2.8071a.503.503,0,0,1,.4682-.4682H13.5686a.503.503,0,0,1,.4682.4682Z"/></symbol><symbol id="calendar" data-name="calendar" viewBox="0 0 17.283 19.751"><path id="calendar-3" data-name="calendar" d="M15.4309,2.4691H13.5791V.4626A.464.464,0,0,0,13.1158,0H11.5734a.4639.4639,0,0,0-.4626.4626V2.4691H6.1726V.4626A.4639.4639,0,0,0,5.7128,0H4.1662a.464.464,0,0,0-.4626.4626V2.4691H1.8518A1.8524,1.8524,0,0,0,0,4.32V17.9a1.8525,1.8525,0,0,0,1.8518,1.8511H15.4309a1.8525,1.8525,0,0,0,1.8518-1.8518V4.32A1.8524,1.8524,0,0,0,15.4309,2.4691ZM15.2,17.9H2.0831a.232.232,0,0,1-.2313-.2313V6.1726H15.4309V17.668A.232.232,0,0,1,15.2,17.9Z"/></symbol><symbol id="vehicle" data-name="vehicle" viewBox="0 0 18 14.4"><path id="truck-solid" d="M17.55,9.9H17.1V6.86a1.35,1.35,0,0,0-.3966-.9535l-2.81-2.81A1.35,1.35,0,0,0,12.94,2.7H11.7V1.35A1.35,1.35,0,0,0,10.35,0h-9A1.35,1.35,0,0,0,0,1.35v9A1.35,1.35,0,0,0,1.35,11.7H1.8a2.7,2.7,0,1,0,5.4,0h3.6a2.7,2.7,0,0,0,5.4,0h1.35a.4513.4513,0,0,0,.45-.45v-.9A.4513.4513,0,0,0,17.55,9.9ZM4.5,13.05A1.35,1.35,0,1,1,5.85,11.7,1.35,1.35,0,0,1,4.5,13.05Zm9,0a1.35,1.35,0,1,1,1.35-1.35A1.35,1.35,0,0,1,13.5,13.05ZM15.75,7.2H11.7V4.05h1.24l2.81,2.81Z"/></symbol><symbol id="tools" data-name="tools" viewBox="0 0 19 16.594"><g id="Group_1732" data-name="Group 1732"><g id="Group_1732-2" data-name="Group 1732-2"><path id="Path_635" data-name="Path 635" d="M15.6451,4.2779v.1227a84.1009,84.1009,0,0,0,0,11.2389h0a.3016.3016,0,0,1-.06.2113,1.3539,1.3539,0,0,1-.42.4005,2.5889,2.5889,0,0,1-1.3475.3417,2.6153,2.6153,0,0,1-1.3474-.3417,1.3829,1.3829,0,0,1-.4345-.42l.2563-.1591-.2563.1591a.2909.2909,0,0,1-.0407-.2113,84.3741,84.3741,0,0,0,0-11.2167V4.2809h3.6634Z"/><path id="Path_636" data-name="Path 636" d="M18.4137.0017A1.5333,1.5333,0,0,1,19,.117V3.9844a1.5287,1.5287,0,0,1-.5863.1152,1.47,1.47,0,0,1-.89-.301,1.5222,1.5222,0,0,1-.4826-.6268,1.3166,1.3166,0,0,0-1.6335.3748.3034.3034,0,0,1-.2488.1293c-.9163,0-1.6775-.0107-2.5872-.0406a.3005.3005,0,0,1-.1741-.0447h0c-.0075,0-1.622-1.0282-4.0531,1.136a.3009.3009,0,0,1-.4255.0116A.2971.2971,0,0,1,7.88,4.6934c-.0407-.0556-.898-1.31,2.7174-3.845.7346-.6268,3.5447-.6907,4.417-.6235.3316.0075,1.3515,1.47,1.9967.79a1.486,1.486,0,0,1,1.4-1.01Z"/><path id="Path_637" data-name="Path 637" class="cls-4" d="M5.489,14.4364V5.5731A3.3362,3.3362,0,0,0,4.81.0374.3225.3225,0,0,0,4.6648,0a.2993.2993,0,0,0-.301.2977V3.3035h-2.13V.345A.3319.3319,0,0,0,2.2005.2.3011.3011,0,0,0,1.7941.0729L1.7925.0738h0A3.3349,3.3349,0,0,0,1.18,5.5747V14.438A2.1343,2.1343,0,0,0,1.8149,15.96a2.156,2.156,0,0,0,1.5216.6343A2.1342,2.1342,0,0,0,4.8581,15.96a2.156,2.156,0,0,0,.6351-1.5216ZM3.3331,13.2a.5085.5085,0,1,0,0,.0008Z"/></g></g></symbol><symbol id="user" data-name="user" viewBox="0 0 16 19.241"><g id="Group_1908-3" data-name="Group 1908"><path id="Path_688" data-name="Path 688" d="M7.9991,10.1354c2.007,0,4.161-2.7232,4.161-5.5231A4.2386,4.2386,0,0,0,8.3385.0143a4.2032,4.2032,0,0,0-4.5,3.9045,4.3633,4.3633,0,0,0,0,.6935C3.838,7.4112,5.9269,10.1354,7.9991,10.1354Z"/><path id="Path_689" data-name="Path 689" d="M15.4436,14.901a8.0023,8.0023,0,0,0-1.5529-2.2572,4.1531,4.1531,0,0,0-3.4888-1.1216c-.9072.2017-.95.7363-2.4028.7363s-1.4956-.5336-2.4029-.7363a4.1536,4.1536,0,0,0-3.4887,1.1216A7.9929,7.9929,0,0,0,.5556,14.901c-.2527.51-.7779,2-.4521,2.6415.4126.8069,1.4166,1.1468,4.1778,1.4917a33.5555,33.5555,0,0,0,7.4375,0c2.7642-.3449,3.7642-.6808,4.1779-1.4917C16.2224,16.9051,15.6963,15.4113,15.4436,14.901Z"/></g></symbol><symbol id="users" data-name="users" viewBox="0 0 17 11.677"><g id="Group_1908-4" data-name="Group 1908"><path id="Path_686" data-name="Path 686" d="M3.2321,5.7254c.8117,0,1.6826-1.0778,1.6826-2.1857a1.6881,1.6881,0,1,0-3.3664,0C1.55,4.6469,2.3942,5.7254,3.2321,5.7254Z"/><path id="Path_687" data-name="Path 687" d="M13.7642,5.7254c.8116,0,1.6826-1.0778,1.6826-2.1857a1.6881,1.6881,0,0,0-3.3664-.257,1.67,1.67,0,0,0,0,.257C12.0816,4.6469,12.9263,5.7254,13.7642,5.7254Z"/><path id="Path_688-2" data-name="Path 688" d="M8.5266,6.1508c1.2444,0,2.58-1.6526,2.58-3.3517a2.5885,2.5885,0,1,0-5.16,0C5.9467,4.4976,7.2419,6.1508,8.5266,6.1508Z"/><path id="Path_689-2" data-name="Path 689" d="M13.1423,9.0429a4.8522,4.8522,0,0,0-.9628-1.37,2.6107,2.6107,0,0,0-2.1631-.6807c-.5625.1225-.5888.4469-1.49.4469s-.9273-.3238-1.49-.4469a2.6112,2.6112,0,0,0-2.1631.6807,4.8488,4.8488,0,0,0-.9622,1.37c-.1567.31-.4823,1.2138-.28,1.603.2559.49.8783.696,2.59.9053a21.2472,21.2472,0,0,0,4.6114,0c1.7139-.2093,2.3339-.4131,2.59-.9053C13.6253,10.2591,13.299,9.3526,13.1423,9.0429Z"/><g id="Group_1908-2-2" data-name="Group 1908-2"><path id="Path_690" data-name="Path 690" d="M16.7738,7.6112a3.16,3.16,0,0,0-.6274-.8936,1.7019,1.7019,0,0,0-1.4078-.4437c-.3672.08-.3837.2913-.9713.2913s-.6048-.2112-.9714-.2913a1.6122,1.6122,0,0,0-1.22.2907,3.2556,3.2556,0,0,1,1.06.6733,5.49,5.49,0,0,1,1.0712,1.5228,4.314,4.314,0,0,1,.2264.5668c.2761-.0043.85-.0208,1.3374-.08,1.1165-.1365,1.5223-.2693,1.6894-.59C17.0884,8.4027,16.876,7.8132,16.7738,7.6112Z"/></g><g id="Group_1909" data-name="Group 1909"><path id="Path_691" data-name="Path 691" d="M3.35,8.76A5.48,5.48,0,0,1,4.42,7.2367a3.2243,3.2243,0,0,1,1.0252-.658,1.6267,1.6267,0,0,0-1.2425-.3061c-.3673.08-.3838.2914-.9714.2914s-.6047-.2112-.9713-.2914a1.7028,1.7028,0,0,0-1.4078.4438A3.167,3.167,0,0,0,.225,7.61C.1234,7.812-.09,8.4014.0414,8.6555c.1671.3213.5729.4535,1.6887.59.5221.0612,1.144.0777,1.3919.0808A4.6019,4.6019,0,0,1,3.35,8.76Z"/></g></g></symbol><symbol id="globe" data-name="globe" viewBox="0 0 19 19"><path id="Path_671" data-name="Path 671" d="M9.5,0a9.48,9.48,0,1,0,.04,0ZM1.4618,9.5a8.6676,8.6676,0,0,1,.73-3.3612,16.6981,16.6981,0,0,0,2.0462.5845,17.6952,17.6952,0,0,0,0,5.5573,16.7336,16.7336,0,0,0-2.0462.5845A8.6674,8.6674,0,0,1,1.4618,9.5Zm4.0191,0A13.66,13.66,0,0,1,5.7,7.0191c1.0231.1459,2.0463.2193,3.0694.2927V11.77A21.7974,21.7974,0,0,0,5.7,12.0623,15.1024,15.1024,0,0,1,5.4809,9.5ZM13.007,5.5573a17.0912,17.0912,0,0,1-2.7786.2193V1.6077C11.3994,2.0463,12.4225,3.5805,13.007,5.5573Zm-4.2384-3.95V5.7756A17.77,17.77,0,0,1,5.99,5.5563C6.5765,3.5805,7.6,2.0463,8.7686,1.6077Zm0,11.6187v4.1679C7.6,16.9557,6.5765,15.4215,5.99,13.4487A17.7709,17.7709,0,0,1,8.7686,13.2264ZM10.23,17.3943V13.2264a17.77,17.77,0,0,1,2.7786.2193c-.5865,1.9728-1.61,3.507-2.7786,3.9457Zm0-5.6267V7.3069a21.7992,21.7992,0,0,0,3.0674-.2918,14.1918,14.1918,0,0,1,0,4.9688,21.6822,21.6822,0,0,0-3.0674-.2193Zm4.53-5.0423a16.7031,16.7031,0,0,0,2.0462-.5845,8.3859,8.3859,0,0,1,.73,3.3612,8.6694,8.6694,0,0,1-.73,3.3612,16.7031,16.7031,0,0,0-2.0462-.5845A17.1028,17.1028,0,0,0,14.98,9.5a17.1117,17.1117,0,0,0-.2193-2.7776ZM16.0764,4.823c-.511.1458-1.0916.2927-1.6076.4386A8.9222,8.9222,0,0,0,13.1539,2.339,8.7022,8.7022,0,0,1,16.0764,4.823ZM5.8461,2.3381A13.5376,13.5376,0,0,0,4.53,5.26,7.6106,7.6106,0,0,1,2.9225,4.821,8.7024,8.7024,0,0,1,5.8461,2.3381ZM2.9225,14.1761c.5111-.1459,1.0916-.2928,1.6077-.4387A8.9222,8.9222,0,0,0,5.8451,16.66,8.7032,8.7032,0,0,1,2.9225,14.1761Zm10.23,2.4809a13.5343,13.5343,0,0,0,1.3149-2.9225c.5845.1458,1.0916.2927,1.6077.4386a8.7028,8.7028,0,0,1-2.9226,2.4879Z"/></symbol><symbol id="exclamation-triangle" data-name="exclamation-triangle" viewBox="0 0 19 16.975"><g id="Group_2048" data-name="Group 2048"><g id="Group_1871" data-name="Group 1871"><g id="Zoom_In" data-name="Zoom In"><g id="Calendar-4" data-name="Calendar"><g id="Group_1870" data-name="Group 1870"><path id="Path_670" data-name="Path 670" d="M18.6044,14.055l-7.4207-12.85A2.046,2.046,0,0,0,9.4979,0,2.046,2.046,0,0,0,7.8121,1.2051L.4031,14.055c-.94,1.6079-.1792,2.92,1.6833,2.92h14.823C18.7719,16.9752,19.5323,15.6629,18.6044,14.055ZM8.6253,4.49h1.9328v7.23H8.6236V4.49Zm.8726,10.4422a1.0552,1.0552,0,1,1,.7487-.3082A1.0552,1.0552,0,0,1,9.4979,14.9318Z"/></g></g></g></g></g></symbol><symbol id="buildings" data-name="buildings" viewBox="0 0 19 14.807"><path id="Path_638" data-name="Path 638" d="M17.5159,13.9607c0-.0068.0041-.0123.0041-.02V3.417a.4632.4632,0,0,0-.4632-.4626H11.6727V.4639A.4639.4639,0,0,0,11.2088,0H1.94a.4632.4632,0,0,0-.4632.4632v13.475c0,.0068.0034.0123.0041.02H0v.8491H19v-.8464ZM15.07,4.6451A.186.186,0,0,1,15.256,4.46h1.1549a.186.186,0,0,1,.1861.1847V6.264a.1867.1867,0,0,1-.1861.1861H15.258a.1868.1868,0,0,1-.1861-.1861Zm0,3.0325a.1867.1867,0,0,1,.1861-.1861h1.1549a.1867.1867,0,0,1,.1861.1861V9.2958a.1867.1867,0,0,1-.1861.1861H15.258a.1868.1868,0,0,1-.1861-.1861Zm0,3.0311a.1866.1866,0,0,1,.1861-.1861h1.1549a.1866.1866,0,0,1,.1861.1861v1.6188a.1866.1866,0,0,1-.1861.1861H15.258a.1867.1867,0,0,1-.1861-.1861Zm-2.5-6.0636a.1862.1862,0,0,1,.1861-.1847H13.91a.186.186,0,0,1,.1861.1847V6.264A.1868.1868,0,0,1,13.91,6.45H12.7552a.1867.1867,0,0,1-.1861-.1861Zm0,3.0325a.1868.1868,0,0,1,.1861-.1861H13.91a.1868.1868,0,0,1,.1861.1861V9.2958a.1868.1868,0,0,1-.1861.1861H12.7552a.1867.1867,0,0,1-.1861-.1861Zm0,3.0311a.1867.1867,0,0,1,.1861-.1861H13.91a.1867.1867,0,0,1,.1861.1861v1.6188a.1867.1867,0,0,1-.1861.1861H12.7552a.1866.1866,0,0,1-.1861-.1861ZM8.8435,1.75a.1861.1861,0,0,1,.1854-.1861h1.4068a.1861.1861,0,0,1,.1854.1861v1.946a.1861.1861,0,0,1-.1854.1861H9.0317a.1861.1861,0,0,1-.1855-.1861V1.75Zm0,4.054a.186.186,0,0,1,.1854-.1847h1.4068a.1861.1861,0,0,1,.1854.1847V7.75a.1861.1861,0,0,1-.1854.1861H9.0317A.1861.1861,0,0,1,8.8462,7.75V5.8035Zm0,4.0554a.1861.1861,0,0,1,.1854-.1861h1.4068a.1861.1861,0,0,1,.1854.1861v1.9459a.1861.1861,0,0,1-.1854.1861H9.0317a.1861.1861,0,0,1-.1855-.1861V9.8589ZM5.6858,1.75a.1868.1868,0,0,1,.1861-.1861H7.278a.1861.1861,0,0,1,.1854.1861v1.946a.1861.1861,0,0,1-.1854.1861H5.8713a.1869.1869,0,0,1-.1855-.1861Zm0,4.054a.1862.1862,0,0,1,.1861-.1847H7.278a.186.186,0,0,1,.1854.1847V7.75a.1861.1861,0,0,1-.1854.1861H5.8713A.1867.1867,0,0,1,5.6852,7.75ZM2.5316,1.75a.1868.1868,0,0,1,.1861-.1861H4.12a.1868.1868,0,0,1,.1861.1861v1.946a.1868.1868,0,0,1-.1861.1861H2.7143a.1868.1868,0,0,1-.1827-.1861Zm0,4.054a.1862.1862,0,0,1,.1861-.1847H4.12a.1862.1862,0,0,1,.1861.1847V7.75a.1868.1868,0,0,1-.1861.1861H2.7143A.1868.1868,0,0,1,2.5282,7.75V5.8035Zm0,4.0554a.1867.1867,0,0,1,.1861-.1861H4.12a.1867.1867,0,0,1,.1861.1861v1.9459a.1868.1868,0,0,1-.1861.1861H2.7143a.1868.1868,0,0,1-.1861-.1861V9.8589Zm2.95.7341a.1861.1861,0,0,1,.1854-.1861H7.4874a.1868.1868,0,0,1,.1861.1861v3.3677H5.484V10.593Z"/></symbol><symbol id="toolbox" data-name="toolbox" viewBox="0 0 18 15.75"><path id="briefcase" d="M11.25,10.6881a.5622.5622,0,0,1-.5615.5627H7.3125a.5622.5622,0,0,1-.5627-.5615V9H0v5.0624A1.73,1.73,0,0,0,1.6875,15.75h14.625A1.73,1.73,0,0,0,18,14.0624V9H11.25Zm5.0623-7.3126H13.5V1.6875A1.73,1.73,0,0,0,11.8129,0H6.1878A1.73,1.73,0,0,0,4.5,1.6875V3.3749H1.6875A1.73,1.73,0,0,0,0,5.0624V7.8746H18V5.0624a1.73,1.73,0,0,0-1.6875-1.6875Zm-5.0623,0H6.75V2.25h4.5Z"/></symbol><symbol id="document-solid" data-name="document-solid" viewBox="0 0 13.5 18"><path id="file-alt" d="M7.8752,4.7815V0H.844A.8414.8414,0,0,0,0,.8389V17.156A.8414.8414,0,0,0,.8389,18H12.6561a.8414.8414,0,0,0,.8439-.8389V5.6248H8.7185A.8463.8463,0,0,1,7.8752,4.7815Zm2.25,8.2968a.4229.4229,0,0,1-.4216.4217H3.7968a.4229.4229,0,0,1-.4216-.4217v-.2815a.4228.4228,0,0,1,.4216-.4216H9.7032a.4228.4228,0,0,1,.4216.4216Zm0-2.25a.4229.4229,0,0,1-.4216.4217H3.7968a.4229.4229,0,0,1-.4216-.4217v-.2815a.4229.4229,0,0,1,.4216-.4217H9.7032a.4229.4229,0,0,1,.4216.4217Zm0-2.5312v.2815A.4229.4229,0,0,1,9.7032,9H3.7968a.4229.4229,0,0,1-.4216-.4217V8.2968a.4228.4228,0,0,1,.4216-.4216H9.7032A.4228.4228,0,0,1,10.1248,8.2968ZM13.5,4.2854V4.5H9V0h.2146a.8435.8435,0,0,1,.5978.2462l3.4433,3.4452A.8409.8409,0,0,1,13.5,4.2854Z"/></symbol><symbol id="book" data-name="book" viewBox="0 0 15.75 18"><path id="book-3" data-name="book" d="M15.75,12.6563V.8439A.8421.8421,0,0,0,14.91,0H3.3749A3.3762,3.3762,0,0,0,0,3.3749v11.25A3.3762,3.3762,0,0,0,3.3749,18h11.53a.8419.8419,0,0,0,.8438-.84v-.5647a.85.85,0,0,0-.3116-.6575,7.8392,7.8392,0,0,1,0-2.6264.8375.8375,0,0,0,.3116-.6538ZM4.5,4.7111a.2113.2113,0,0,1,.2107-.2106h7.4534a.2113.2113,0,0,1,.2107.2106v.703a.2114.2114,0,0,1-.2107.2107H4.7111a.2112.2112,0,0,1-.2106-.2107Zm0,2.25A.2113.2113,0,0,1,4.7105,6.75h7.4534a.2113.2113,0,0,1,.2107.2106v.7049a.2114.2114,0,0,1-.2107.2107H4.7111A.2114.2114,0,0,1,4.5,7.6659Zm8.9087,8.7878H3.3749a1.125,1.125,0,1,1,0-2.25H13.4092a12.66,12.66,0,0,0-.0007,2.2512Z"/></symbol><symbol id="truck-loaded" data-name="truck-loaded" viewBox="0 0 19 12.149"><g id="Group_1728" data-name="Group 1728"><path id="Path_627" data-name="Path 627" d="M1.8017,9.098a1.5257,1.5257,0,1,0,1.5256,1.5256A1.5257,1.5257,0,0,0,1.8017,9.098Z"/><path id="Path_628" data-name="Path 628" d="M5.7673,9.098a1.5257,1.5257,0,1,0,1.5256,1.5256A1.5256,1.5256,0,0,0,5.7673,9.098Z"/><path id="Path_629" data-name="Path 629" d="M16.1141,9.098a1.5257,1.5257,0,1,0,1.5281,1.5256A1.5256,1.5256,0,0,0,16.1141,9.098Z"/><path id="Path_630" data-name="Path 630" d="M17.879,6.6918c-.2042-.0156-.5781-.0238-1.1123-.0238-.7052,0-1.5106.0138-1.8444.0207v-1.84c0-.4653-.1879-.6889-.5812-.6889h-.8142a4.326,4.326,0,0,0-.7415-1.2576A3.7843,3.7843,0,0,0,9.7962,1.5444a.8868.8868,0,0,0-.6589.1679.7276.7276,0,0,0-.1321.5586V7.9976H.8065a.1379.1379,0,0,0-.1372.1372V8.71a.1379.1379,0,0,0,.1372.1372h2.2A.8236.8236,0,0,1,3.57,9.65a.1372.1372,0,1,0,.2743,0v0c0-.6019.6482-.7027.72-.7121H7.2c.1309.0576.7346.394.7346,1.6847a.1372.1372,0,0,0,.1372.1372h5.6954a.1365.1365,0,0,0,.1371-.1322,2.7087,2.7087,0,0,1,.2944-1.0409A1.8978,1.8978,0,0,1,16.0145,8.56a1.9185,1.9185,0,0,1,1.8269,1.0578,2.96,2.96,0,0,1,.3131,1.0873.1366.1366,0,0,0,.1365.1309h.5718A.1372.1372,0,0,0,19,10.6988h0V8.2857a.0194.0194,0,0,0-.0194-.0194h-.5987a.3723.3723,0,1,1,0-.7446h.5987A.0194.0194,0,0,0,19,7.5023V7.1954C18.9987,6.7783,18.5015,6.74,17.879,6.6918ZM14.15,5.2094V6.6931h-1.748V4.9451h1.4837A.265.265,0,0,1,14.15,5.2094Z"/></g><rect width="8.0814" height="6.9989" rx="0.5567"/></symbol><symbol id="bargraph" data-name="bargraph" viewBox="0 0 18 13.5"><path id="chart-bar" d="M13.9525,10.1246H14.74a.4839.4839,0,0,0,.4522-.4522V1.5748a.4839.4839,0,0,0-.4522-.4521h-.7874a.4838.4838,0,0,0-.4522.4521v8.1A.4838.4838,0,0,0,13.9525,10.1246Zm-6.75,0H7.99a.4837.4837,0,0,0,.4522-.4522V2.7A.4837.4837,0,0,0,7.99,2.2479H7.2A.4837.4837,0,0,0,6.7476,2.7V9.6763a.4838.4838,0,0,0,.4521.4483Zm3.3751,0h.7848a.4837.4837,0,0,0,.4522-.4522V4.95a.4839.4839,0,0,0-.4522-.4522h-.7874a.4839.4839,0,0,0-.4521.4522V9.675a.4837.4837,0,0,0,.4521.45ZM17.44,11.8118H1.6872V.5626A.5626.5626,0,0,0,1.1252,0H.5626A.5626.5626,0,0,0,0,.5626H0V12.3751A1.1252,1.1252,0,0,0,1.1252,13.5H17.4374A.5626.5626,0,0,0,18,12.9377h0v-.5626a.5626.5626,0,0,0-.5626-.5626ZM3.8247,10.1246h.788a.4838.4838,0,0,0,.4522-.4522V7.2a.4838.4838,0,0,0-.4522-.4521h-.788A.4837.4837,0,0,0,3.3725,7.2V9.675A.4838.4838,0,0,0,3.8247,10.1246Z"/></symbol><symbol id="boxes" data-name="boxes" viewBox="0 0 17.446 17.543"><rect x="9.913" y="9.9783" width="7.5326" height="7.5326" rx="0.3479"/><rect x="4.9565" width="7.5326" height="7.5326" rx="0.3479"/><rect y="10.0109" width="7.5326" height="7.5326" rx="0.3479"/></symbol><symbol id="trailer" data-name="trailer" viewBox="0 0 19 12.268"><path d="M6.7892,10.461a.5338.5338,0,0,1-.0287.21,1.7847,1.7847,0,0,1-1.7786,1.5969,1.8035,1.8035,0,0,1-1.7977-1.5969.7857.7857,0,0,1-.0191-.21,1.8121,1.8121,0,1,1,3.6241,0Z"/><path d="M19,.9849V6.072a.9979.9979,0,0,1-.9944.9849H16.8007V9.6291H15.615V7.0569H11.7136l-.0573,3.6145H7.4585a.1324.1324,0,0,1-.0669-.1147,3.7318,3.7318,0,0,0-.373-1.2814A2.2756,2.2756,0,0,0,4.848,8.0131,2.2672,2.2672,0,0,0,2.6965,9.2275a3.3083,3.3083,0,0,0-.3442,1.2335.1611.1611,0,0,1-.1625.1626H.6694a1.0508,1.0508,0,0,1-.5355-.44A.9331.9331,0,0,1,0,9.696V.9849A.99.99,0,0,1,.9849,0H18.0056A.9917.9917,0,0,1,19,.9849Z"/></symbol><symbol id="map" data-name="map" viewBox="0 0 19 16.889"><g id="map-3" data-name="map"><path d="M9.5,0A4.1561,4.1561,0,0,0,5.3438,4.1562c0,1.8558,2.7164,5.2382,3.7571,6.466a.52.52,0,0,0,.7982,0c1.0407-1.2278,3.7572-4.61,3.7572-6.466A4.1562,4.1562,0,0,0,9.5,0Zm0,5.5417a1.3855,1.3855,0,1,1,1.3854-1.3855A1.3853,1.3853,0,0,1,9.5,5.5417ZM.6637,7.1234A1.0555,1.0555,0,0,0,0,8.1034V16.36a.5278.5278,0,0,0,.7237.49l4.5541-2.0728V7.0894a9.9932,9.9932,0,0,1-.701-1.5312ZM9.5,11.8641a1.5759,1.5759,0,0,1-1.2043-.5594c-.6485-.7653-1.3383-1.6368-1.9624-2.5307v6.0034l6.3334,2.1112V8.7743c-.6241.8936-1.3135,1.7654-1.9624,2.5307A1.5766,1.5766,0,0,1,9.5,11.8641ZM18.2763,5.316,13.7222,7.3889v9.5l4.6141-1.8456a1.0554,1.0554,0,0,0,.6637-.98V5.8062a.5279.5279,0,0,0-.7237-.49Z"/></g></symbol><symbol id="location-marker" data-name="location-marker" viewBox="0 0 8.313 10.809"><g id="map-4" data-name="map"><path d="M4.1562,0A4.1561,4.1561,0,0,0,0,4.1562c0,1.8558,2.7164,5.2382,3.7571,6.466a.52.52,0,0,0,.7983,0c1.0407-1.2278,3.7571-4.61,3.7571-6.466A4.1561,4.1561,0,0,0,4.1562,0Zm0,5.5417A1.3855,1.3855,0,1,1,5.5417,4.1562,1.3853,1.3853,0,0,1,4.1562,5.5417Z"/></g></symbol><symbol id="phone" data-name="phone" viewBox="0 0 19 19"><path id="phone-square" class="cls-2" d="M2.0358,0A2.0359,2.0359,0,0,0,0,2.0358V16.9642H0A2.0359,2.0359,0,0,0,2.0358,19H16.9642A2.0359,2.0359,0,0,0,19,16.9642V2.0358h0A2.0359,2.0359,0,0,0,16.9642,0Zm12.978,16.2851A12.2981,12.2981,0,0,1,2.7149,3.9877a.6362.6362,0,0,1,.4931-.62l2.7565-.636a.6359.6359,0,0,1,.7275.369L7.9663,6.07a.6359.6359,0,0,1-.1822.7426L6.177,8.1274a9.8314,9.8314,0,0,0,4.6986,4.6978l1.3144-1.607a.636.636,0,0,1,.7426-.1823l2.9683,1.2721a.6359.6359,0,0,1,.369.7275l-.636,2.7565a.6362.6362,0,0,1-.62.4931Z"/></symbol><symbol id="plus" data-name="plus" viewBox="0 0 11 11.003"><g id="Group_3185" data-name="Group 3185"><path id="Path_945" data-name="Path 945" d="M11,5.505A1.1482,1.1482,0,0,1,9.8551,6.65H6.65V9.8551a1.1483,1.1483,0,1,1-2.2965,0V6.65H1.1482a1.1483,1.1483,0,0,1,0-2.2965H4.3534V1.1483a1.1483,1.1483,0,1,1,2.2965,0V4.3551H9.8551A1.15,1.15,0,0,1,11,5.505Z"/></g></symbol><symbol id="x" data-name="x" viewBox="0 0 11 11.897"><path d="M10.6589,11.5407A1.0471,1.0471,0,0,1,9.18,11.483L5.51,7.5082l-3.592,4.0377A1.0473,1.0473,0,0,1,.355,10.1511l3.7282-4.19L.2763,1.84A1.0483,1.0483,0,1,1,1.818.4187l3.6653,3.97L9.0805.3505a1.0474,1.0474,0,0,1,1.5627,1.3949l-3.7283,4.19,3.8069,4.1216A1.0471,1.0471,0,0,1,10.6589,11.5407Z"/></symbol><symbol id="camera" data-name="camera" viewBox="0 0 19 15.835"><g id="Group_1669" data-name="Group 1669"><path d="M16.2881,2.2586H14.03l-.7336-1.83A.668.668,0,0,0,12.6694,0H6.3306a.668.668,0,0,0-.6265.4286l-.7336,1.83H2.7119A2.7246,2.7246,0,0,0,0,4.9705v8.144a2.7193,2.7193,0,0,0,2.7119,2.7119l13.5762.0083A2.7319,2.7319,0,0,0,19,13.1145V4.9705A2.73,2.73,0,0,0,16.2881,2.2586Zm-3.7505,9.8173A4.2975,4.2975,0,1,1,9.4959,4.74a4.3059,4.3059,0,0,1,4.3028,4.3028A4.246,4.246,0,0,1,12.5376,12.0759Z"/><path d="M12.4386,9.0425a2.9374,2.9374,0,0,1-2.9345,2.9427H9.4794A2.9357,2.9357,0,0,1,6.5614,9.059V9.0425a2.9386,2.9386,0,1,1,5.8772,0Z"/></g></symbol><symbol id="film" data-name="film" viewBox="0 0 19 16.138"><g id="Group_2353" data-name="Group 2353"><g id="Group_1670" data-name="Group 1670"><path d="M17.9987,0H1.0013A1.0025,1.0025,0,0,0,0,.993V15.1449a1.0081,1.0081,0,0,0,1.0013.993H17.9987A1.0026,1.0026,0,0,0,19,15.1449V.993A1.0025,1.0025,0,0,0,17.9987,0ZM15.4954,1.2767A.5021.5021,0,0,1,15.996.776h1.26a.5022.5022,0,0,1,.5007.5007l-.0083,1.26a.5022.5022,0,0,1-.5007.5006H15.996a.5021.5021,0,0,1-.5006-.5006ZM11.924,8.386,7.4431,10.5138a.3831.3831,0,0,1-.5173-.1.41.41,0,0,1-.0585-.267v-4.08a.3667.3667,0,0,1,.3088-.4172.3535.3535,0,0,1,.2587.0584L11.924,7.8436C12.2327,7.9855,12.2327,8.2358,11.924,8.386Zm.0083-7.1093A.5022.5022,0,0,1,12.433.776h1.26a.4969.4969,0,0,1,.5007.5007v1.26a.4968.4968,0,0,1-.5007.5006h-1.26a.5022.5022,0,0,1-.5007-.5006Zm-3.5629,0A.5021.5021,0,0,1,8.87.776h1.2684a.4951.4951,0,0,1,.5006.4924V2.5367a.5021.5021,0,0,1-.5006.5006H8.87a.502.502,0,0,1-.5006-.5006Zm-3.5547,0A.5021.5021,0,0,1,5.3153.776h1.26a.5022.5022,0,0,1,.5007.5007v1.26a.5021.5021,0,0,1-.5007.5006H5.307a.5021.5021,0,0,1-.5007-.5006Zm-3.5631,0A.5022.5022,0,0,1,1.7523.776h1.26a.4951.4951,0,0,1,.5007.4924V2.5367a.5021.5021,0,0,1-.5007.5006H1.744a.5021.5021,0,0,1-.5007-.5006Zm2.253,13.5845a.5021.5021,0,0,1-.5007.5006H1.744a.5021.5021,0,0,1-.5007-.5006v-1.26a.4968.4968,0,0,1,.5007-.5006H3.0123a.4968.4968,0,0,1,.5007.5006Zm3.5631,0a.5021.5021,0,0,1-.5007.5006H5.307a.5021.5021,0,0,1-.5007-.5006v-1.26a.4968.4968,0,0,1,.5007-.5006h1.26a.4968.4968,0,0,1,.5007.5006Zm3.5546,0a.4967.4967,0,0,1-.5007.5006H8.87a.502.502,0,0,1-.5006-.5006v-1.26a.4967.4967,0,0,1,.5006-.5006h1.2684a.4968.4968,0,0,1,.5006.5006Zm3.563,0a.502.502,0,0,1-.5006.5006H12.433a.5021.5021,0,0,1-.5007-.5006v-1.26a.4968.4968,0,0,1,.5007-.5006h1.26a.4968.4968,0,0,1,.5007.5006Zm3.5631,0a.5021.5021,0,0,1-.5007.5006H15.996a.502.502,0,0,1-.5006-.5006v-1.26a.4968.4968,0,0,1,.5006-.5006h1.26a.4968.4968,0,0,1,.5007.5006Z"/></g></g></symbol><symbol id="paperclip" data-name="paperclip" viewBox="0 0 19 17.306"><g id="Group_2350" data-name="Group 2350"><g id="Group_2349" data-name="Group 2349"><g id="Group_1666" data-name="Group 1666"><path id="Path_610" data-name="Path 610" d="M14.1413.001a4.7607,4.7607,0,0,1,4.858,4.6426,5.0326,5.0326,0,0,1-1.45,3.6169L8.6647,17.0856a.6475.6475,0,1,1-.9736-.8538h0a.7951.7951,0,0,1,.0636-.0636l8.8788-8.8251A3.7089,3.7089,0,0,0,17.707,4.6444a3.45,3.45,0,0,0-3.55-3.3469h-.0138A3.5437,3.5437,0,0,0,11.6466,2.371L1.9478,12.0467a2.0978,2.0978,0,0,0-.6549,1.4369,2.3261,2.3261,0,0,0,.6483,1.68,2.1727,2.1727,0,0,0,3.0711.0339l.0322-.0339q4.7994-4.8076,9.6021-9.6079a.9529.9529,0,0,0,.1016-1.2684.9331.9331,0,0,0-1.2065-.02L4.7769,12.984a.6482.6482,0,0,1-.9736-.8547.555.555,0,0,1,.0636-.0619l8.764-8.7186a2.147,2.147,0,0,1,3.03.0066,2.2716,2.2716,0,0,1-.0231,3.0421L5.9644,16.08a3.493,3.493,0,0,1-4.9382,0A3.6375,3.6375,0,0,1,.0006,13.4819a3.37,3.37,0,0,1,1.0363-2.3551l9.6988-9.674a4.8424,4.8424,0,0,1,3.4056-1.45Z"/></g></g></g></symbol><symbol id="magnifying-glass" data-name="magnifying-glass" viewBox="0 0 15.454 15.458"><g id="Group_4402" data-name="Group 4402"><g id="Group_4401" data-name="Group 4401"><path id="Path_824" data-name="Path 824" d="M15.1523,13.9393l-2.955-2.955a6.812,6.812,0,1,0-1.213,1.213l2.955,2.955A.858.858,0,0,0,15.252,14.047l-.0217-.0247a.9525.9525,0,0,0-.081-.081ZM3.2113,10.42a5.1,5.1,0,1,1,3.6,1.493A5.1,5.1,0,0,1,3.2113,10.42Z"/></g></g></symbol><symbol id="triangle" data-name="triangle" viewBox="0 0 10 5.975"><g id="Group_2122" data-name="Group 2122"><path id="Path_817" data-name="Path 817" d="M9.5379,5.9748H.4623a.4614.4614,0,0,1-.3435-.77L4.6566.1535A.4612.4612,0,0,1,5.308.1178a.43.43,0,0,1,.0357.0357L9.8826,5.2044a.4624.4624,0,0,1-.3447.77Z"/></g></symbol><symbol id="checkmark" data-name="checkmark" viewBox="0 0 10.217 7.975"><g id="checkmark-3" data-name="checkmark"><path d="M9.9725,1.6549l-5.23,5.98-.04.04a1.5548,1.5548,0,0,1-.13.12,1.0149,1.0149,0,0,1-.18.09.4953.4953,0,0,1-.13.05.84.84,0,0,1-.27.04.9363.9363,0,0,1-.51-.14,1.46,1.46,0,0,1-.15-.11c-.02-.01-.03-.03-.05-.04l-2.99-2.99a1.0041,1.0041,0,1,1,1.42-1.42l2.23,2.23,4.52-5.16a1,1,0,1,1,1.51,1.31Z"/></g></symbol><symbol id="pencil" data-name="pencil" viewBox="0 0 15 14.999"><path id="Path_646" data-name="Path 646" d="M11.5538,0,9.8181,1.7357l3.4462,3.4451L15,3.4451ZM9.241,2.3129,1.5065,10.0463l3.4462,3.4451L12.6871,5.758Zm-8.26,8.361L0,14.9989l4.3261-.9819Z"/></symbol><symbol id="square-filled" data-name="square-filled" viewBox="0 0 18 18"><g id="Path_1005" data-name="Path 1005"><path d="M15.75,0H2.25A2.2533,2.2533,0,0,0,0,2.25v13.5A2.2533,2.2533,0,0,0,2.25,18h13.5A2.2534,2.2534,0,0,0,18,15.75V2.25A2.2534,2.2534,0,0,0,15.75,0Zm.75,15.75a.749.749,0,0,1-.75.75H2.25a.7555.7555,0,0,1-.75-.75V2.25a.749.749,0,0,1,.75-.75h13.5a.7427.7427,0,0,1,.75.75Z"/><rect class="cls-3" x="1.5" y="1.5" width="15" height="15" rx="0.75"/></g></symbol><symbol id="square-empty" data-name="square-empty" viewBox="0 0 18 18"><g id="Path_1005-2" data-name="Path 1005"><path d="M15.75,0H2.25A2.2533,2.2533,0,0,0,0,2.25v13.5A2.2533,2.2533,0,0,0,2.25,18h13.5A2.2534,2.2534,0,0,0,18,15.75V2.25A2.2534,2.2534,0,0,0,15.75,0Zm.75,15.75a.749.749,0,0,1-.75.75H2.25a.7555.7555,0,0,1-.75-.75V2.25a.749.749,0,0,1,.75-.75h13.5a.7427.7427,0,0,1,.75.75Z"/></g></symbol><symbol id="archivebin" data-name="archivebin" viewBox="0 0 16 14.673"><path id="Path_916" data-name="Path 916" d="M10.6721,5.33V6.6579H5.3443V5.33Zm4-1.3281H1.3445v9.8708c0,.8,0,.8.7994.8H14.1432c.5277,0,.5277,0,.5277-.8ZM15.4674,0H.8C0,0,0,0,0,.5278V2.6543H16V.5278C16,0,16,0,15.4674,0Z"/></symbol><symbol id="printer" data-name="printer" viewBox="0 0 16 15.931"><g id="Group_2508" data-name="Group 2508"><g id="Group_2506" data-name="Group 2506"><rect id="Rectangle_2075" data-name="Rectangle 2075" x="3.4481" width="9.1037" height="2.2757"/><path id="Path_917" data-name="Path 917" d="M16,3.3789H0v9.1038H2.2757v-3.38H13.6551v3.38H16ZM14.8276,5.6546H13.7243V4.5514h1.1033Z"/><rect id="Rectangle_2076" data-name="Rectangle 2076" x="3.4481" y="10.0138" width="9.1037" height="5.917"/></g></g></symbol><symbol id="envelope" data-name="envelope" viewBox="0 0 19 12.05"><g id="Group_2507" data-name="Group 2507"><path id="Path_916-2" data-name="Path 916" d="M19,.9276V11.1229a1.1522,1.1522,0,0,1-.0469.2782L12.4655,6.0257,18.9531.6493A1.153,1.153,0,0,1,19,.9276ZM.0469.6493A1.2,1.2,0,0,0,0,.9276V11.1229a1.2,1.2,0,0,0,.0469.2782L6.5345,6.0257ZM10.682,7.508a1.8821,1.8821,0,0,1-2.364,0L7.2756,6.6272.7182,12.05H18.2589L11.7473,6.6272ZM10.08,6.79,18.2818,0H.7182L8.8975,6.79A.9411.9411,0,0,0,10.08,6.79Z"/></g></symbol><symbol id="filter" data-name="filter" viewBox="0 0 17.732 13.438"><g id="Group_5148" data-name="Group 5148"><path id="Path_1055" data-name="Path 1055" d="M17.7317,1.2915A1.2915,1.2915,0,0,1,16.44,2.583H1.2915A1.2915,1.2915,0,0,1,0,1.2915H0A1.2915,1.2915,0,0,1,1.2915,0H16.44A1.2915,1.2915,0,0,1,17.7317,1.2915Z"/><path id="Path_1056" data-name="Path 1056" d="M15.5867,6.7189A1.2915,1.2915,0,0,1,14.2952,8.01H3.4365A1.2915,1.2915,0,0,1,2.145,6.7189h0A1.2914,1.2914,0,0,1,3.4365,5.4275h10.859A1.2914,1.2914,0,0,1,15.5867,6.7189Z"/><path id="Path_1057" data-name="Path 1057" d="M12.3693,12.1462a1.2915,1.2915,0,0,1-1.2915,1.2915H6.654a1.2915,1.2915,0,0,1-1.2915-1.2915h0A1.2915,1.2915,0,0,1,6.654,10.8547h4.424A1.2915,1.2915,0,0,1,12.3693,12.1462Z"/></g></symbol><symbol id="circle-info" data-name="circle-info" viewBox="0 0 16 16"><path d="M8,0a8,8,0,1,0,8,8A8.0042,8.0042,0,0,0,8,0ZM7.9,11.86a.1889.1889,0,0,0,.13.07.3519.3519,0,0,0,.23-.11A4.136,4.136,0,0,0,9,10.91l.23.13q-1.035,1.8-2.19,1.8a.963.963,0,0,1-.71-.25.8088.8088,0,0,1-.26-.63,2.19,2.19,0,0,1,.11-.64l.95-3.27a2.9561,2.9561,0,0,0,.14-.71.35.35,0,0,0-.13-.27.518.518,0,0,0-.36-.11H6.54l.09-.27,2.31-.38h.41l-1.4,4.86a2.3741,2.3741,0,0,0-.11.55A.1976.1976,0,0,0,7.9,11.86ZM9.64,4.88a.96.96,0,0,1-.71.3.9379.9379,0,0,1-.7-.3.9438.9438,0,0,1-.3-.71.99.99,0,0,1,1-1,.9732.9732,0,0,1,.71.29.96.96,0,0,1,.3.71A.9439.9439,0,0,1,9.64,4.88Z"/></symbol><symbol id="circle-question" data-name="circle-question" viewBox="0 0 16 16"><path d="M8,0a8,8,0,1,0,8,8A7.9978,7.9978,0,0,0,8,0Zm.49,12.89H6.51V11.04H8.49Zm2.47-5.82a3.5991,3.5991,0,0,1-1.11,1.1l-.52.38a2.6241,2.6241,0,0,0-.69.68,1.4008,1.4008,0,0,0-.25.75H6.56a2.5332,2.5332,0,0,1,.4-1.25A3.8407,3.8407,0,0,1,7.99,7.71a5.3951,5.3951,0,0,0,1.04-.89,1.3846,1.3846,0,0,0,.3-.86,1.1829,1.1829,0,0,0-.4-.95,1.6234,1.6234,0,0,0-1.11-.35,1.7054,1.7054,0,0,0-1.16.4,1.5771,1.5771,0,0,0-.55,1.07L4.16,6.05A3.15,3.15,0,0,1,5.3,3.89a3.8193,3.8193,0,0,1,2.49-.77,3.9586,3.9586,0,0,1,2.54.73,2.4485,2.4485,0,0,1,.93,2.03A2.3639,2.3639,0,0,1,10.96,7.07Z"/></symbol><symbol id="trash" data-name="trash" viewBox="0 0 15.003 16.003"><path id="Path_1060" data-name="Path 1060" d="M14.8027,2.0017h-3.8v-1a.945.945,0,0,0-.8866-1,.975.975,0,0,0-.1134,0h-5a.945.945,0,0,0-1,.8866.9327.9327,0,0,0,0,.1134v1h-3.7a.265.265,0,0,0-.3.3v.5c0,.1.1.2.3.2h1l1.2,12.5a.4719.4719,0,0,0,.4422.5.4645.4645,0,0,0,.0578,0h9a.472.472,0,0,0,.5-.4422.4645.4645,0,0,0,0-.0578l1.3-12.5h1a.215.215,0,0,0,.2-.2v-.5C15.0027,2.1017,14.9027,2.0017,14.8027,2.0017Zm-10.3,11.5a.5359.5359,0,0,1-.5-.5h0l-.5-8a.472.472,0,0,1,.4422-.5.5066.5066,0,0,1,.0578,0,.4721.4721,0,0,1,.5.4423.4629.4629,0,0,1,0,.0577l.5,8A.5359.5359,0,0,1,4.5027,13.5017Zm3.5-.5a.5.5,0,0,1-1,0v-8a.5.5,0,0,1,1,0Zm2-11h-5v-1h5Zm1,11a.5.5,0,0,1-1,0l.5-8a.5.5,0,0,1,1,0Z"/></symbol><symbol id="circle-arrow-left" data-name="circle-arrow-left" viewBox="0 0 16 16"><g id="Group_3542" data-name="Group 3542"><g id="Group_4414" data-name="Group 4414"><path d="M8,0a8,8,0,1,0,8,8A7.9978,7.9978,0,0,0,8,0Zm3.25,8.55c-.01.01-.01.02-.02.03l-2.7,3.06a.647.647,0,0,0-.09.08.6457.6457,0,0,1-.9-.08.8618.8618,0,0,1,0-1.11L9.06,8.81H4.71a.79.79,0,0,1,0-1.57H9.06L7.54,5.53a.8726.8726,0,0,1-.2-.56.8459.8459,0,0,1,.2-.55.647.647,0,0,1,.09-.08.6366.6366,0,0,1,.9.08l2.7,3.06.03.03a.8714.8714,0,0,1,.16.37v.05a.3054.3054,0,0,1,.01.1A.8212.8212,0,0,1,11.25,8.55Z"/></g></g></symbol><symbol id="circle-exclamation" data-name="circle-exclamation" viewBox="0 0 16 16"><path d="M8,0a8,8,0,1,0,8,8A7.9978,7.9978,0,0,0,8,0ZM9.26,2.85,8.98,9.56H6.95L6.67,2.85ZM8,13.15a1.31,1.31,0,1,1,0-2.61,1.31,1.31,0,1,1,0,2.61Z"/></symbol><symbol id="circle-checkmark" data-name="circle-checkmark" viewBox="0 0 16 16"><path d="M8,0a8,8,0,1,0,8,8A7.9978,7.9978,0,0,0,8,0Zm4.62,5.92-4.8,5.47-.08.1a.9428.9428,0,0,1-.35.25.8571.8571,0,0,1-.36.07.9852.9852,0,0,1-.17-.02.87.87,0,0,1-.43-.21c-.02-.02-.04-.03-.05-.05L3.59,8.74A.93.93,0,0,1,4.91,7.43L6.99,9.51l4.23-4.83a.9351.9351,0,0,1,1.4,1.24Z"/></symbol><symbol id="circle-dollarsign" data-name="circle-dollarsign" viewBox="0 0 16 16"><path d="M8,0a8,8,0,1,0,8,8A7.9978,7.9978,0,0,0,8,0Zm3.38,11.1a2.8342,2.8342,0,0,1-2.67,1.83v1.22a.4166.4166,0,0,1-.4.41H7.5a.4166.4166,0,0,1-.4-.41V12.94a3.5228,3.5228,0,0,1-2.18-.76.1.1,0,0,1-.05-.04.3985.3985,0,0,1,0-.57l.88-.87a.3923.3923,0,0,1,.49-.04,1.5517,1.5517,0,0,0,.86.26H8.78a.7441.7441,0,0,0,.2-1.46L6.4,8.71A2.8909,2.8909,0,0,1,4.29,6.27a1.9481,1.9481,0,0,1-.02-.25A2.7678,2.7678,0,0,1,7.04,3.26H7.1V2.05a.4034.4034,0,0,1,.4-.41h.81a.4034.4034,0,0,1,.4.41V3.26a3.5754,3.5754,0,0,1,2.18.75c.02.01.03.03.05.04a.41.41,0,0,1,0,.58l-.88.86a.3936.3936,0,0,1-.49.05,1.5874,1.5874,0,0,0-.86-.27H7.03a.7445.7445,0,0,0-.2,1.46l2.72.8c.04.01.09.03.13.04A2.7737,2.7737,0,0,1,11.38,11.1Z"/></symbol><symbol id="document-outline" data-name="document-outline" viewBox="0 0 12 16.004"><path id="file" d="M11.56,3.0624,8.9376.4406A1.5,1.5,0,0,0,7.8783,0H1.5A1.5091,1.5091,0,0,0,0,1.503V14.504a1.5,1.5,0,0,0,1.5,1.5h9a1.5,1.5,0,0,0,1.5-1.5h0V4.1247a1.5091,1.5091,0,0,0-.4406-1.0623Zm-1.1811.9406H8V1.6247ZM1.5,14.504V1.503h5v3.25a.7485.7485,0,0,0,.7465.75H10.501v9Z"/></symbol><symbol id="circle-plus" data-name="circle-plus" viewBox="0 0 18 18"><path d="M9,0a9,9,0,1,0,9,9A9.0007,9.0007,0,0,0,9,0Zm4.7,10.2383H10.2383v3.4486a1.2383,1.2383,0,0,1-2.4766,0V10.2383H4.3131a1.2383,1.2383,0,1,1,0-2.4766H7.7617V4.3132a1.2383,1.2383,0,0,1,2.4766,0V7.7617H13.7a1.2384,1.2384,0,0,1,0,2.4766Z"/></symbol><symbol id="download" data-name="download" viewBox="0 0 17.237 17.228"><path d="M17.2367,16.6193a.6035.6035,0,0,1-.6085.6085H.6175A.6111.6111,0,0,1,0,16.6193a.6187.6187,0,0,1,.6175-.6175H16.6282A.6111.6111,0,0,1,17.2367,16.6193Z"/><path d="M13.9791,8.4125,9.0569,13.3348c-.0089.0089-.0179.0179-.0269.0179v.0089c-.0179.009-.0268.0179-.0447.0269-.009.0089-.009.0179-.0269.0179a.1215.1215,0,0,1-.0358.0268c-.0179.0089-.0268.0179-.0447.0269a.0675.0675,0,0,0-.0358.0179.0279.0279,0,0,0-.0179.0089l-.0358.0089-.0268.009-.0269.009H8.69a.1141.1141,0,0,1-.0537.0089H8.5378l-.0268-.0089H8.4752c-.009,0-.0179-.009-.0268-.009l-.0269-.009c-.009,0-.0179-.0089-.0268-.0089h-.009l-.0179-.0089h-.009c-.0089,0-.0089-.009-.0179-.009H8.332l-.0179-.0179h-.009l-.0179-.009a.1238.1238,0,0,1-.0358-.0268l-.0179-.0089-.0178-.0179-.018-.0179L3.2665,8.4394H3.2576a.63.63,0,0,1,.0089-.8771.6188.6188,0,0,1,.8682.009L8.01,11.4464V.6175A.6152.6152,0,0,1,8.6094,0h.0179a.6111.6111,0,0,1,.6086.6175V11.4106L13.111,7.5355a.6038.6038,0,0,1,.4207-.179H13.55a.6014.6014,0,0,1,.4475.1879A.6188.6188,0,0,1,13.9791,8.4125Z"/></symbol><symbol id="list" data-name="list" viewBox="0 0 19.081 15"><path class="cls-1" d="M17.5811,3H7.5381a1.5,1.5,0,0,1,0-3h10.043a1.5,1.5,0,0,1,0,3Zm1.5,4.5a1.5,1.5,0,0,0-1.5-1.5H7.5381a1.5,1.5,0,0,0,0,3h10.043A1.5,1.5,0,0,0,19.0811,7.5Zm0,6a1.5,1.5,0,0,0-1.5-1.5H7.5381a1.5,1.5,0,0,0,0,3h10.043A1.5,1.5,0,0,0,19.0811,13.5ZM4.127,1.5A1.5,1.5,0,0,0,2.627,0H1.5a1.5,1.5,0,0,0,0,3H2.627A1.5,1.5,0,0,0,4.127,1.5Zm0,6A1.5,1.5,0,0,0,2.627,6H1.5a1.5,1.5,0,0,0,0,3H2.627A1.5,1.5,0,0,0,4.127,7.5Zm0,6a1.5,1.5,0,0,0-1.5-1.5H1.5a1.5,1.5,0,0,0,0,3H2.627A1.5,1.5,0,0,0,4.127,13.5Z"/></symbol><symbol id="grid" data-name="grid" viewBox="0 0 18.783 18.86"><path class="cls-1" d="M7.1154,8.7844H1.4933A1.4934,1.4934,0,0,1,0,7.291V1.4933A1.4933,1.4933,0,0,1,1.4933,0H7.1154A1.4933,1.4933,0,0,1,8.6087,1.4933V7.291A1.4934,1.4934,0,0,1,7.1154,8.7844ZM18.7826,7.291V1.4933A1.4933,1.4933,0,0,0,17.2893,0h-5.622a1.4934,1.4934,0,0,0-1.4934,1.4933V7.291a1.4934,1.4934,0,0,0,1.4934,1.4934h5.622A1.4934,1.4934,0,0,0,18.7826,7.291ZM8.6087,17.3671V11.5694a1.4933,1.4933,0,0,0-1.4933-1.4933H1.4933A1.4933,1.4933,0,0,0,0,11.5694v5.7977a1.4934,1.4934,0,0,0,1.4933,1.4934H7.1154A1.4934,1.4934,0,0,0,8.6087,17.3671Zm10.1739,0V11.5694a1.4933,1.4933,0,0,0-1.4933-1.4933h-5.622a1.4934,1.4934,0,0,0-1.4934,1.4933v5.7977a1.4934,1.4934,0,0,0,1.4934,1.4934h5.622A1.4934,1.4934,0,0,0,18.7826,17.3671Z"/></symbol><symbol id="gear" data-name="gear" viewBox="0 0 19.089 19.09"><path id="Path_1001" data-name="Path 1001" d="M18.7378,7.9773,16.575,7.7445a7.2028,7.2028,0,0,0-.7873-1.8973l1.3665-1.6963a.353.353,0,0,0,0-.4992l0,0L15.4374,1.9376a.3532.3532,0,0,0-.5,0L13.2415,3.3035a7.216,7.216,0,0,0-1.8973-.7874L11.1114.3533A.3533.3533,0,0,0,10.7581,0H8.3312a.3536.3536,0,0,0-.3533.3533L7.7448,2.5161a7.214,7.214,0,0,0-1.897.7874L4.1521,1.9376a.3532.3532,0,0,0-.5,0L1.9373,3.6531a.3524.3524,0,0,0-.0013.4983l.0013.0013L3.3032,5.849a7.2023,7.2023,0,0,0-.7871,1.8973L.3533,7.9791A.3536.3536,0,0,0,0,8.3324v2.4248a.3536.3536,0,0,0,.3533.3533l2.1628.2328a7.2042,7.2042,0,0,0,.7871,1.8976L1.9373,14.9372a.3521.3521,0,0,0-.0014.4979l.0014.0014,1.7152,1.7156a.3539.3539,0,0,0,.5,0l1.6957-1.3662a7.2171,7.2171,0,0,0,1.897.7873l.2331,2.1628a.3536.3536,0,0,0,.353.3542h2.4266a.3536.3536,0,0,0,.3533-.3533l.2328-2.1628a7.2153,7.2153,0,0,0,1.8973-.7882l1.6963,1.3662a.3539.3539,0,0,0,.5,0l1.7156-1.7156a.3524.3524,0,0,0,.0009-.4983l-.0009-.001-1.3665-1.6963a7.2048,7.2048,0,0,0,.7873-1.8976l2.1628-.2328a.3536.3536,0,0,0,.3533-.3533V8.3309a.3523.3523,0,0,0-.3511-.3536ZM9.5445,14.359a4.8145,4.8145,0,1,1,.0018,0Z"/></symbol><symbol id="dots-kebob" data-name="dots-kebob" viewBox="0 0 3.685 15.467"><circle class="cls-1" cx="1.8424" cy="1.8424" r="1.8424"/><circle class="cls-1" cx="1.8424" cy="7.7337" r="1.8424"/><circle class="cls-1" cx="1.8424" cy="13.625" r="1.8424"/></symbol><symbol id="shield" data-name="shield" viewBox="0 0 16.541 19.695"><g id="Group_7919" data-name="Group 7919"><path d="M16.5233,5.065c-.02-.53-.02-1.03-.02-1.51a.66.66,0,0,0-.67-.68h-.01a9.6473,9.6473,0,0,1-7.08-2.68.6881.6881,0,0,0-.96,0,9.5386,9.5386,0,0,1-7.06,2.66.6659.6659,0,0,0-.68.67v.01c0,.48,0,.98-.02,1.53-.1,4.96-.24,11.74,8.02,14.59a.849.849,0,0,0,.22.04.5381.5381,0,0,0,.22-.04C16.7432,16.805,16.6033,10.025,16.5233,5.065Zm-4.27,2.78-3.83,5.21a.8727.8727,0,0,1-.22.21.4611.4611,0,0,1-.15.09.0214.0214,0,0,1-.02.02,1.5872,1.5872,0,0,1-.2.07h-.02a.8322.8322,0,0,1-.22.03c-.06,0-.12-.01-.17-.01a.3085.3085,0,0,0-.08-.02.881.881,0,0,1-.15-.05.0349.0349,0,0,1-.02-.01.6368.6368,0,0,1-.14-.08c-.02-.01-.04-.01-.05-.03a.98.98,0,0,1-.18-.17l-2.45-2.77a1.0073,1.0073,0,0,1,.09-1.44,1.0371,1.0371,0,0,1,1.45.08l1.62,1.85,3.09-4.2a1.0307,1.0307,0,0,1,1.43-.22A1.0442,1.0442,0,0,1,12.2532,7.845Z"/></g></symbol><symbol id="house" data-name="house" viewBox="0 0 17.59 14.577"><path d="M16.4027,8.9508,14.8892,7.4836V13.93a.617.617,0,0,1-.5776.6469H11.0767a.6078.6078,0,0,1-.5662-.6469V10.1177A.7339.7339,0,0,0,9.8867,9.39H7.6916a.7339.7339,0,0,0-.6239.7278V13.93a.6077.6077,0,0,1-.5661.6469H3.3245a.6288.6288,0,0,1-.6354-.6123V7.4721L1.1756,8.9508C.5633,9.54-.4187,8.65.1936,8.05L8.327.1819a.6781.6781,0,0,1,.9243,0L17.3963,8.05C18.0086,8.65,17.0266,9.54,16.4027,8.9508Z"/></symbol><symbol id="minus" data-name="minus" viewBox="0 0 9.722 2.032"><g id="Group_8443" data-name="Group 8443"><g id="Group_8442" data-name="Group 8442"><g id="Group_8441" data-name="Group 8441"><g id="Group_3185-2" data-name="Group 3185"><path id="Path_945-2" data-name="Path 945" d="M9.7216,1.02A1.015,1.015,0,0,1,8.71,2.032H1.0146a1.015,1.015,0,0,1,0-2.03L8.71,0A1.0171,1.0171,0,0,1,9.7216,1.02Z"/></g></g></g></g></symbol><symbol id="circle-solid" data-name="circle-solid" viewBox="0 0 16 16"><circle cx="8" cy="8" r="8"/></symbol><symbol id="up" data-name="up" viewBox="0 0 18 11.031"><path d="M.2887,9.1335,8.0439.4287a1.2805,1.2805,0,0,1,1.9122,0l7.7552,8.7048a1.14,1.14,0,0,1-.0948,1.6107h0a1.14,1.14,0,0,1-1.6071-.0948L9,2.7779,1.9906,10.6494a1.14,1.14,0,0,1-1.6071.0948h0A1.14,1.14,0,0,1,.2887,9.1335Z"/></symbol><symbol id="right" data-name="right" viewBox="0 0 11.031 18"><path d="M1.8976.2887l8.7048,7.7552a1.2805,1.2805,0,0,1,0,1.9122L1.8976,17.7113a1.14,1.14,0,0,1-1.6107-.0948h0a1.14,1.14,0,0,1,.0948-1.6071L8.2532,9,.3817,1.9906A1.14,1.14,0,0,1,.2869.3835h0A1.14,1.14,0,0,1,1.8976.2887Z"/></symbol><symbol id="left" data-name="left" viewBox="0 0 11.031 18"><path d="M9.1335,17.7113.4287,9.9561a1.2805,1.2805,0,0,1,0-1.9122L9.1335.2887a1.14,1.14,0,0,1,1.6107.0948h0a1.14,1.14,0,0,1-.0948,1.6071L2.7779,9l7.8715,7.0094a1.14,1.14,0,0,1,.0948,1.6071h0A1.14,1.14,0,0,1,9.1335,17.7113Z"/></symbol><symbol id="box-arrow-outline" data-name="box-arrow-outline" viewBox="0 0 14 15"><path d="M12.5,1.5v12H1.5V1.5h11M13.04,0H.97A1.0534,1.0534,0,0,0,0,1.1193v12.773A1.05,1.05,0,0,0,.97,15H13.04A1.0421,1.0421,0,0,0,14,13.8923V1.1193A1.046,1.046,0,0,0,13.04,0Z"/><path d="M6.9365,3.5h-.17c-.09.09-.26.09-.26.17l-3.1,2.93-.03.03a.7012.7012,0,0,0-.05,1l.08.09a.75.75,0,0,0,.5653.2508L4.0064,7.97a.738.738,0,0,0,.52-.25l1.72-1.64v4.65a.775.775,0,0,0,1.55,0V6.08l1.72,1.64a.93.93,0,0,0,1.12,0c.01-.02.03-.03.04-.04a.7191.7191,0,0,0-.04-1l-.09-.08-3.1-2.93a1.2825,1.2825,0,0,0-.51-.17Z"/></symbol><symbol id="box-arrow-solid" data-name="box-arrow-solid" viewBox="0 0 14 15"><path d="M.97,15H13.04A1.0453,1.0453,0,0,0,14,13.89V1.12A1.0485,1.0485,0,0,0,13.04,0H.97A1.0561,1.0561,0,0,0,0,1.12V13.89A1.0529,1.0529,0,0,0,.97,15ZM2.91,6.52c.01-.01.03-.02.04-.04l3.49-3.3c0-.09.2-.09.3-.19h.19a1.4253,1.4253,0,0,1,.57.19L11,6.48l.1.09a.8132.8132,0,0,1,.05,1.13c-.01.01-.04.02-.05.05a1.05,1.05,0,0,1-1.26,0L7.9,5.9v5.24a.875.875,0,0,1-1.75,0V5.9L4.21,7.75a.8284.8284,0,0,1-.59.28H3.58a.8413.8413,0,0,1-.63-.28l-.09-.1A.794.794,0,0,1,2.91,6.52Z"/></symbol><symbol id="device" data-name="device" viewBox="0 0 16.522 23.76"><path d="M14.58,23.76H1.9443A1.9529,1.9529,0,0,1,0,21.8174V1.9463A1.9552,1.9552,0,0,1,1.9424,0H14.5762a1.9552,1.9552,0,0,1,1.9463,1.9424V21.8135A1.9552,1.9552,0,0,1,14.58,23.76ZM2,21.76H14.5762L14.5225,1.9463,1.9463,2ZM9.42,2.46H7.0547v2H9.42Zm1.0947,7.0078h-2V15.334h2Zm2.6026-4.02h-2V15.334h2ZM7.9609,7.67h-2V15.333h2ZM5.3594,10.3193h-2V15.333h2ZM8.2373,21.4414a2.4663,2.4663,0,1,1,2.4658-2.4668A2.4691,2.4691,0,0,1,8.2373,21.4414Zm0-2.9326a.4663.4663,0,1,0,.4658.4658A.4664.4664,0,0,0,8.2373,18.5088Z"/></symbol><symbol id="external-window" data-name="external-window" viewBox="0 0 16 16"><path id="Path_1593" data-name="Path 1593" d="M11,0l1.781,1.781-.5.5-4,4L7.593,7,9,8.406l.719-.688,4-4,.5-.5L16,5V0ZM0,2V16H14V8H12v6H2V4H8V2Z"/></symbol><symbol id="p" data-name="p" viewBox="0 0 18 18"><path d="M9,0a9,9,0,1,0,9,9A9.0071,9.0071,0,0,0,9,0ZM9,16a7,7,0,1,1,7-7A7.0077,7.0077,0,0,1,9,16ZM12.26,5.57a3.66,3.66,0,0,0-2.51-.81H5.36V5.87l.98.19V12.7l-.98.19V14H9.18V12.89l-.99-.19V10.65H9.75a3.6591,3.6591,0,0,0,2.51-.81,2.7114,2.7114,0,0,0,.92-2.13A2.7327,2.7327,0,0,0,12.26,5.57ZM10.93,8.8a1.56,1.56,0,0,1-1.18.42H8.19V6.18H9.75a1.5312,1.5312,0,0,1,1.18.44,1.5918,1.5918,0,0,1,.39,1.1A1.5413,1.5413,0,0,1,10.93,8.8Z"/></symbol><symbol id="hold" data-name="hold" viewBox="0 0 15.913 15.913"><path id="Path_1623" data-name="Path 1623" d="M7.9566,0A7.9565,7.9565,0,1,1,0,7.9566,7.9567,7.9567,0,0,1,7.9566,0ZM2.57,10.7552l9.6443-7.1235A6.07,6.07,0,0,0,2.57,10.7552ZM13.3353,5.143,3.6868,12.27A6.07,6.07,0,0,0,13.3353,5.143Z"/></symbol><symbol id="gasoline-pump" data-name="gasoline-pump" viewBox="0 0 12.623 15.685"><path id="Path_1292" data-name="Path 1292" d="M11.6264,5.578V1.207a.306.306,0,0,0-.612-.0008V2.048a4.9059,4.9059,0,0,1-.889,2.206.306.306,0,0,0-.09.216v.629a.306.306,0,0,0,.306.306h.673v.442a.306.306,0,0,0,.306.306.7.7,0,0,1,.7.7h0v5.69a.7.7,0,0,1-1.4,0v-1.8a.306.306,0,0,0-.306-.306h-.623V5.795a.9119.9119,0,0,0-.3-.67V1.18A1.181,1.181,0,0,0,8.2114,0H2.1434a1.181,1.181,0,0,0-1.18,1.18V5.125a.9116.9116,0,0,0-.3.67v9.278H.3064a.306.306,0,0,0-.0008.612h9.7378a.306.306,0,0,0,0-.612h-.357V11.045h.317v1.494a1.31,1.31,0,0,0,2.62,0V6.849A1.3111,1.3111,0,0,0,11.6264,5.578ZM2.1434,1.02h6.073a.1611.1611,0,0,1,.16.16v3.7H1.9834V1.18A.1609.1609,0,0,1,2.1434,1.02Z"/></symbol><symbol id="timer" data-name="timer" viewBox="0 0 15.96 18.302"><g id="Group"><path id="Compound_Path" data-name="Compound Path" d="M7.98,2.342a7.97,7.97,0,1,0,.02,0Zm0,14.756a6.755,6.755,0,1,1,6.756-6.756,6.755,6.755,0,0,1-6.755,6.755Z"/><rect id="Path" x="5.849" width="5" height="1"/><path id="Path-2" d="M8.592,6.159H7.367l-.02,4.306,3.123,3.817.959-.776-2.857-3.49Z"/></g></symbol><symbol id="route" data-name="route" viewBox="0 0 16 16"><path id="Path_1369" data-name="Path 1369" d="M2.3433,2.343a8,8,0,1,1,0,11.314,8,8,0,0,1,0-11.314Zm3.48,11.153h2.013a.212.212,0,0,0,.213-.211h0V10.417h2.655V12.05a.211.211,0,0,0,.362.147l2.856-2.847a.2091.2091,0,0,0,.0045-.2955L13.9223,9.05l-2.857-2.86a.211.211,0,0,0-.36.15V7.975H8.05V5.32h1.635a.211.211,0,0,0,.148-.362L6.98,2.103a.2129.2129,0,0,0-.3,0L3.8263,4.958a.212.212,0,0,0,.148.362h1.637v7.964a.211.211,0,0,0,.211.211Z"/></symbol><symbol id="megaphone" data-name="megaphone" viewBox="0 0 12.208 12"><path id="Path_1513" data-name="Path 1513" d="M0,3.941V5.517a.846.846,0,0,0,.839.839H4.424V3.102H.839A.846.846,0,0,0,0,3.941Z"/><path id="Path_1514" data-name="Path 1514" d="M1.373,6.915,2.263,12H3.992l-.89-5.085Z"/><path id="Path_1515" data-name="Path 1515" d="M4.958,6.458l5.492,3V0L4.958,3Z"/><path id="Path_1516" data-name="Path 1516" d="M11.008,3.28v2.9a1.476,1.476,0,0,0,0-2.9Z"/></symbol></defs><title>icons</title><use width="19.3186" height="16.4967" transform="matrix(1, 0, 0, -1, 150.4795, 76.9514)" xlink:href="#add-person"/><use width="19.3207" height="16.4967" transform="matrix(1, 0, 0, -1, 300.9719, 76.1915)" xlink:href="#agent"/><use width="11" height="11.1567" transform="matrix(1, 0, 0, -1, 65.2341, 193.1403)" xlink:href="#arrow"/><use width="18" height="11.0311" transform="matrix(1, 0, 0, -1, 120.5841, 44.2297)" xlink:href="#down"/><use width="16" height="18.3142" transform="matrix(1, 0, 0, -1, 272.7398, 136.7939)" xlink:href="#bell"/><use width="16" height="12.0579" transform="matrix(1, 0, 0, -1, 242.4863, 133.2322)" xlink:href="#chat"/><use width="17" height="19.42" transform="matrix(1, 0, 0, -1, 213.653, 196.2081)" xlink:href="#addressbook"/><use width="10.1199" height="18" transform="matrix(1, 0, 0, -1, 246.5132, 196.121)" xlink:href="#dollarsign"/><use width="18.991" height="15.1906" transform="matrix(1, 0, 0, -1, 0, 165.5943)" xlink:href="#balance-scale"/><use width="16.3731" height="18.7159" transform="matrix(1, 0, 0, -1, 31.3397, 167.1042)" xlink:href="#calculator"/><use width="17.2827" height="19.7511" transform="matrix(1, 0, 0, -1, 242.3319, 168.4255)" xlink:href="#calendar"/><use width="18" height="14.4" transform="matrix(1, 0, 0, -1, 60.0616, 165.5665)" xlink:href="#vehicle"/><use width="19" height="16.5939" transform="matrix(1, 0, 0, -1, 211.3651, 167.0824)" xlink:href="#tools"/><use width="16" height="19.2409" transform="matrix(1, 0, 0, -1, 303.8685, 197.6675)" xlink:href="#user"/><use width="17" height="11.6766" transform="matrix(1, 0, 0, -1, 273.4224, 194.9257)" xlink:href="#users"/><use width="19" height="19" transform="matrix(1, 0, 0, -1, 119.9963, 167.1492)" xlink:href="#globe"/><use width="19" height="16.9752" transform="matrix(1, 0, 0, -1, 151.1944, 167.0425)" xlink:href="#exclamation-triangle"/><use width="19" height="14.8071" transform="matrix(1, 0, 0, -1, 181.3274, 166.0856)" xlink:href="#buildings"/><use width="18" height="15.7498" transform="matrix(1, 0, 0, -1, 31.4126, 135.6709)" xlink:href="#toolbox"/><use width="13.5" height="18" transform="matrix(1, 0, 0, -1, 274.7019, 167.1838)" xlink:href="#document-solid"/><use width="15.7501" height="18" transform="matrix(1, 0, 0, -1, 303.401, 167.2444)" xlink:href="#book"/><use width="19" height="12.1493" transform="matrix(1, 0, 0, -1, 89.8839, 164.2757)" xlink:href="#truck-loaded"/><use width="18" height="13.5003" transform="matrix(1, 0, 0, -1, 1.9162, 104.2776)" xlink:href="#bargraph"/><use width="17.4457" height="17.5435" transform="matrix(1, 0, 0, -1, 1.5183, 136.6165)" xlink:href="#boxes"/><use width="19" height="12.2683" transform="matrix(1, 0, 0, -1, 60.912, 134.8274)" xlink:href="#trailer"/><use width="19" height="16.8889" transform="matrix(1, 0, 0, -1, 120.5942, 106.3773)" xlink:href="#map"/><use width="8.3125" height="10.8087" transform="matrix(1, 0, 0, -1, 96.851, 14.0294)" xlink:href="#location-marker"/><use width="19" height="19" transform="matrix(1, 0, 0, -1, 211.3851, 136.8828)" xlink:href="#phone"/><use width="11" height="11.0034" transform="matrix(1, 0, 0, -1, 34.4856, 192.6265)" xlink:href="#plus"/><use width="11" height="11.8972" transform="matrix(1, 0, 0, -1, 3.4636, 193.7785)" xlink:href="#x"/><use width="19" height="15.8347" transform="matrix(1, 0, 0, -1, 30.6838, 105.5834)" xlink:href="#camera"/><use width="19" height="16.1379" transform="matrix(1, 0, 0, -1, 60.5187, 106.287)" xlink:href="#film"/><use width="19" height="17.3062" transform="matrix(1, 0, 0, -1, 90.6548, 107.1018)" xlink:href="#paperclip"/><use width="15.4536" height="15.4577" transform="matrix(1, 0, 0, -1, 303.1666, 135.9388)" xlink:href="#magnifying-glass"/><use width="10" height="5.9748" transform="matrix(1, 0, 0, -1, 125.2984, 190.6452)" xlink:href="#triangle"/><use width="10.2174" height="7.9749" transform="matrix(1, 0, 0, -1, 95.8233, 191.0643)" xlink:href="#checkmark"/><use width="15" height="14.9989" transform="matrix(1, 0, 0, -1, 153.4817, 135.4325)" xlink:href="#pencil"/><use width="18" height="18" transform="matrix(1, 0, 0, -1, 181.403, 195.8983)" xlink:href="#square-filled"/><use width="18" height="18" transform="matrix(1, 0, 0, -1, 151.6643, 195.9017)" xlink:href="#square-empty"/><use width="16" height="14.6729" transform="matrix(1, 0, 0, -1, 92.4599, 134.9108)" xlink:href="#archivebin"/><use width="16" height="15.9308" transform="matrix(1, 0, 0, -1, 122.46, 134.9528)" xlink:href="#printer"/><use width="19" height="12.0495" transform="matrix(1, 0, 0, -1, 181.2072, 134.0186)" xlink:href="#envelope"/><use width="17.7317" height="13.4377" transform="matrix(1, 0, 0, -1, 150, 104.7454)" xlink:href="#filter"/><use width="16" height="16" transform="matrix(1, 0, 0, -1, 182.4169, 106.7656)" xlink:href="#circle-info"/><use width="16" height="16" transform="matrix(1, 0, 0, -1, 213.776, 105.32)" xlink:href="#circle-question"/><use width="15.0027" height="16.0026" transform="matrix(1, 0, 0, -1, 64.2833, 74.9348)" xlink:href="#trash"/><use width="16" height="16" transform="matrix(1, 0, 0, -1, 243.6799, 105.7405)" xlink:href="#circle-arrow-left"/><use width="16" height="16" transform="matrix(1, 0, 0, -1, 122.5743, 75.8809)" xlink:href="#circle-exclamation"/><use width="16" height="16" transform="matrix(1, 0, 0, -1, 274.5669, 105.77)" xlink:href="#circle-checkmark"/><use width="16" height="16" transform="matrix(1, 0, 0, -1, 182.3322, 76.3748)" xlink:href="#circle-dollarsign"/><use width="12" height="16.004" transform="matrix(1, 0, 0, -1, 6.286, 75.2829)" xlink:href="#document-outline"/><use width="18" height="18" transform="matrix(1, 0, 0, -1, 32.2381, 76.4757)" xlink:href="#circle-plus"/><use width="17.2367" height="17.2278" transform="matrix(1, 0, 0, -1, 92.8724, 76.9568)" xlink:href="#download"/><use width="19.0811" height="15" transform="matrix(1, 0, 0, -1, 91.9439, 47.1285)" xlink:href="#list"/><use width="18.7826" height="18.8605" transform="matrix(1, 0, 0, -1, 60.3839, 49.2709)" xlink:href="#grid"/><use width="19.0893" height="19.0902" transform="matrix(1, 0, 0, -1, 211.3245, 77.1716)" xlink:href="#gear"/><use width="3.6848" height="15.4674" transform="matrix(1, 0, 0, -1, 247.9223, 76.2988)" xlink:href="#dots-kebob"/><use width="16.5407" height="19.695" transform="matrix(1, 0, 0, -1, 272.5882, 77.229)" xlink:href="#shield"/><use width="17.5897" height="14.5772" transform="matrix(1, 0, 0, -1, 1.6571, 46.027)" xlink:href="#house"/><use width="9.7216" height="2.032" transform="matrix(1, 0, 0, -1, 35.0482, 40.0955)" xlink:href="#minus"/><use width="16" height="16" transform="matrix(1, 0, 0, -1, 303.2208, 105.1504)" xlink:href="#circle-solid"/><use width="18" height="11.0311" transform="matrix(1, 0, 0, -1, 150.5844, 44.2297)" xlink:href="#up"/><use width="11.0311" height="18" transform="matrix(1, 0, 0, -1, 184.069, 47.7142)" xlink:href="#right"/><use width="11.0311" height="18" transform="matrix(1, 0, 0, -1, 213.678, 45.7577)" xlink:href="#left"/><use width="14" height="15" transform="matrix(1, 0, 0, -1, 3.9322, 15.8779)" xlink:href="#box-arrow-outline"/><use width="14" height="15" transform="matrix(1, 0, 0, -1, 32.7752, 15.9478)" xlink:href="#box-arrow-solid"/><use width="16.5225" height="23.7598" transform="matrix(1, 0, 0, -1, 239.9743, 49.1689)" xlink:href="#device"/><use width="16" height="16" transform="matrix(1, 0, 0, -1, 302.46, 45.02)" xlink:href="#external-window"/><use width="18" height="18" transform="matrix(1, 0, 0, -1, 268.5795, 46.3474)" xlink:href="#p"/><use width="15.9132" height="15.913" transform="matrix(1, 0, 0, -1, 62.2425, 16.02)" xlink:href="#hold"/><use width="12.6234" height="15.685" transform="matrix(1, 0, 0, -1, 123.4357, 16.462)" xlink:href="#gasoline-pump"/><use width="15.96" height="18.302" transform="matrix(1, 0, 0, -1, 152.0769, 18.302)" xlink:href="#timer"/><use width="16" height="16" transform="matrix(1, 0, 0, -1, 182.7208, 16.9112)" xlink:href="#route"/><use width="12.2084" height="12" transform="matrix(1, 0, 0, -1, 214.0405, 14.7)" xlink:href="#megaphone"/></svg>