<svg id="Layer_1" data-name="Layer 1" xmlns="http://www.w3.org/2000/svg" viewBox="0 0 79.09 83.7"><defs><style>.cls-1{fill:#fff;}</style></defs><title>inventory</title><path class="cls-1" d="M85.52,42.72A8.42,8.42,0,0,0,79.61,40a8.52,8.52,0,0,0-5.91,2.1V12.5A4.48,4.48,0,0,0,69.2,8h-56a4.48,4.48,0,0,0-4.5,4.5V87.2a4.48,4.48,0,0,0,4.5,4.5h56a4.48,4.48,0,0,0,4.5-4.5V65.51L85.12,54.78a8.6,8.6,0,0,0,.4-12.06ZM19.2,20a.86.86,0,0,1,.8-.8H62.8a.86.86,0,0,1,.8.8v3.4a.86.86,0,0,1-.8.8H20a.86.86,0,0,1-.8-.8Zm0,14.1a.86.86,0,0,1,.8-.8H62.8a.86.86,0,0,1,.8.8v3.4a.86.86,0,0,1-.8.8H20a.86.86,0,0,1-.8-.8Zm0,14.2a.88.88,0,0,1,.9-.8H63.7l-5.5,5H20.1a.88.88,0,0,1-.9-.8Zm0,14.2a.88.88,0,0,1,.9-.8H48.6l-5.2,4.6-.1.4H20.1a.88.88,0,0,1-.9-.8ZM34.6,80a.86.86,0,0,1-.8.8H20a.86.86,0,0,1-.8-.8V76.6a.86.86,0,0,1,.8-.8H33.8a.86.86,0,0,1,.8.8Zm14.55,2.58a2.82,2.82,0,0,1-1.2.68l-6.54,1.09H41a1.09,1.09,0,0,1-.6-.39.81.81,0,0,1-.16-.72l1.18-6.55a2.19,2.19,0,0,1,.68-1.19l3.18-3.19,7.08,7.08ZM83,52.48,73.7,61.19,55.93,77.89,48.57,70,73.7,46.42l1.91-1.79A5.38,5.38,0,0,1,83,52.48Z" transform="translate(-8.7 -8)"/></svg>