<svg id="Layer_1" data-name="Layer 1" xmlns="http://www.w3.org/2000/svg" viewBox="0 0 360.6 134.3"><defs><style>.cls-1{fill:#59585a;}.cls-2{fill:#851619;}</style></defs><title>Logo</title><path class="cls-1" d="M138.69,202.67H125.48v6h14.27l0,4.31H120.06V188.42h19.16v4.38H125.51v5.46h13.18Z" transform="translate(-111.25 -78.82)"/><path class="cls-1" d="M268.05,202.71H254.83v6h14.28V213h-19.7V188.45h19.16v4.39H254.86v5.45h13.19Z" transform="translate(-111.25 -78.82)"/><path class="cls-1" d="M169,213,161,204h-.07L152.81,213h-6.37l11.26-12.67-9.86-12h6.73l6.64,8.06.46.51,7.21-8.57H175L164.79,200.1,175.55,213Z" transform="translate(-111.25 -78.82)"/><path class="cls-1" d="M184.35,188.42H196.5c5.46,0,10.17,3.13,10.17,7.75,0,4.81-4.5,7.78-10.26,7.78h-6.89V213h-5.17Zm5.17,11.46H196c2.41,0,4.89-1.3,4.89-3.64,0-1.9-2.12-3.42-4.89-3.42h-6.45Z" transform="translate(-111.25 -78.82)"/><path class="cls-1" d="M221.35,203.2v9.72h-5.64v-24.5H228.5c9.65.16,10.94,3.68,10.94,7.72,0,3-2.31,4.67-5,5.49,1,.38,4.84,1.33,4.84,5.55v1.18a19.5,19.5,0,0,0,.29,4.53l-6.31,0s0-2.46,0-4.95v-.77c-.12-3.68-3.44-4-7.19-4Zm0-3.85h5.88c2.77,0,6.75,0,6.75-2.75,0-1.86.57-3.78-6.7-3.78h-5.93Z" transform="translate(-111.25 -78.82)"/><path class="cls-1" d="M283.62,205.34c.49,3,2.34,4.26,6.24,4.26,3.65,0,6.29-1.34,6.23-3.48,0-1.62-2.67-3.1-8.13-3.26-6.79-.7-9.1-4.2-9.1-7.35,0-4.7,4.51-7.09,10.06-7.09,10.59,0,11.58,4.93,11.85,7.66h-5.71c-.14-3-2.1-4.29-6-4.29-2.72,0-4.44,1.64-4.44,3.16,0,1.36.56,3,5,3.31,9.26.69,12.14,3.76,12.14,7.17,0,4.07-2.51,7.42-12.53,7.42-9.13,0-10.66-3.28-11.37-7.51Z" transform="translate(-111.25 -78.82)"/><path class="cls-1" d="M315.57,205.53c.49,3,2.34,4.26,6.24,4.26,3.65,0,6.28-1.34,6.23-3.48,0-1.62-2.67-3.1-8.13-3.26-6.79-.7-9.11-4.2-9.11-7.36,0-4.69,4.52-7.08,10.07-7.08,10.59,0,11.58,4.93,11.85,7.66H327c-.15-3-2.1-4.29-6-4.29-2.71,0-4.43,1.64-4.43,3.16,0,1.36.55,3,5,3.31,9.25.69,12.14,3.76,12.14,7.17,0,4.07-2.51,7.42-12.53,7.42-9.13,0-10.66-3.28-11.38-7.51Z" transform="translate(-111.25 -78.82)"/><path class="cls-1" d="M391.36,189.12v23.5H386.5v-23.5Z" transform="translate(-111.25 -78.82)"/><path class="cls-1" d="M402.85,213V188.42h7.88c7.7,10.78,11.67,14.44,13.38,17.24h.08c-.27-2.47-.23-6.87-.23-10.73v-6.51h5.21V213h-7.38c-2.59-3.5-12.45-16.43-14.09-19.11l-.08.83c.23,2.9.23,6.24.23,10.41V213Z" transform="translate(-111.25 -78.82)"/><path class="cls-1" d="M463.36,205.16c-1.09,4.12-4.36,8-11.73,8-8.4,0-12.45-5.81-12.45-12.23s4.47-12.27,12.75-12.27c7.2,0,10.79,4,11.47,7.93h-5.07a6.92,6.92,0,0,0-6.49-4.26c-4.4,0-7.63,4.15-7.63,8.44s3.07,8.6,7.7,8.6a6.34,6.34,0,0,0,6.2-4.17Z" transform="translate(-111.25 -78.82)"/><circle class="cls-2" cx="247.63" cy="121.91" r="6.17"/><path class="cls-2" d="M179.1,129.27c0,11.79-2.89,21.07-8.59,27.57a44.52,44.52,0,0,1-8.92,7.29c-1,.65-1.81,1.18-2.51,1.61,22.4-2.42,32.47-15.08,32.47-36.86V80.49H179.1Z" transform="translate(-111.25 -78.82)"/><path class="cls-2" d="M240.2,166.14c10.88-1.15,19.71-7.87,23-16a18.11,18.11,0,0,0-1.61-16.6,22.38,22.38,0,0,0-9.37-7.42,94.75,94.75,0,0,0-13.3-4.52c-3-.85-6-1.72-9.12-2.82-7.14-2.54-11.61-7.26-12.25-13a15.13,15.13,0,0,1,5.66-13.2c3.16-2.5,7.58-4,13.51-4.52,11.54-1.06,24.71,3.72,28.77,16.65l11.52.07c-1-12-11.42-26-36.71-26-20.78,0-34.93,9.31-34.93,25.28,0,10.63,3.65,22.73,31.74,28,14.26,2.64,15.9,5.43,16.47,8.13.83,3.94-2,7.17-10.8,7.17-9.91,0-13.91-5-14.12-8.77h-11.1c1.17,5.7,5.33,10.81,11.77,14.2,5.69,3,13.53,3.76,22.54,1.64,0,0-3.93,3.23-3.71,3.2,2.41-.37-4.7.56-6.88.56a28,28,0,0,1-13.22-3c-7.41-3.89-12.13-9.9-13.3-16.62H203.92c.86,12.74,11.69,26.94,36,27.56Z" transform="translate(-111.25 -78.82)"/><path class="cls-2" d="M154.11,165.45l.76-.45.62,1h0L155,165c.09-.05,9.22-5,13.5-9.92,5.25-6,7.92-14.66,7.92-25.77V80.49H164.84V129c0,12.85-4.64,17.73-13.5,17.73-8.44,0-12.85-4.42-12.85-17.73V80.49H126c0,14.93,0,28.84,0,41.65,0,5.3,0,10.79,1.29,16a23.36,23.36,0,0,0,5,9.95c2.32,2.57,5.62,4.34,10.72,5.73a39.41,39.41,0,0,0,18.29.07l-3.72,3.42a43.3,43.3,0,0,1-5.64.37,36.71,36.71,0,0,1-9.65-1.23c-3.49-1-8.55-2.66-12-6.53a26.08,26.08,0,0,1-5.66-11.11c-1.37-5.49-1.37-11.15-1.37-16.63,0-12.8,0-26.71,0-41.64h-12v48.6c0,25,13.38,37.08,39.45,37.08,1.19,0,2.35,0,3.48-.07Z" transform="translate(-111.25 -78.82)"/><path class="cls-2" d="M431.41,78.89C439.35,82.76,445,87,449.23,92.26c6.34,7.85,8.95,13.82,10,22.79,1.51,13.28-1.72,25.37-8.87,33.16-5.39,5.88-12.77,9-21.38,9l-1,0a30.68,30.68,0,0,1-22.58-10.56,36.87,36.87,0,0,1-8.4-28.29c1.13-10.19,6.73-20,14.62-25.45a25.88,25.88,0,0,1,13.57-4.79L429.76,91a23,23,0,0,0-16.6,4.1c-7.26,5.07-12.41,14.08-13.46,23.51a34.1,34.1,0,0,0,7.74,26.19,27.61,27.61,0,0,0,20.6,9.63c8.22.21,15.23-2.57,20.28-8.07,6.61-7.2,9.59-18.5,8.17-31-1-8.5-3.34-13.89-9.39-21.39-4.85-6-11.73-10.66-22.2-15-26.62,1.73-40.1,21.49-40.1,43.47,0,24.52,15.24,43.75,42.78,43.75,30,0,44.27-20.28,44.27-43.87C471.85,99.4,457.29,80.13,431.41,78.89Zm13.37,44c0,11.88-3.81,23.58-15.94,23.58-11.81,0-16.8-10.23-16.8-24,0-13,4.57-23.45,16.15-23.45C440.36,98.93,444.78,109.05,444.78,122.84Z" transform="translate(-111.25 -78.82)"/><path class="cls-2" d="M246.1,111.73c-11.8-2.28-14.76-5.37-14.76-9.09s2.33-6,9-6c9.43,0,9.95,4.35,10.81,7.94l11.44.07C258.69,93.85,247.15,89.85,237,90.78c-5.38.49-9.33,1.78-12.06,3.94a12.49,12.49,0,0,0-4.64,10.76c.71,6.32,6.85,9.41,10.45,10.68,3,1.08,6,1.93,9,2.77a96.89,96.89,0,0,1,13.67,4.66,25,25,0,0,1,10.52,8.4,20.84,20.84,0,0,1,1.87,19.14c-2.56,6.33-8.22,11.5-15.43,14.48,19.77-2.71,28.85-14.76,28.85-28.32C279.16,129.22,274.84,117.19,246.1,111.73Z" transform="translate(-111.25 -78.82)"/><path class="cls-2" d="M376.1,80.49H361l-42,43.36,0-3.89,38.18-39.47H343.66C331.81,94,328.55,96.92,319.22,107.92l0-27.43h-12.2v83.57h12V138.15l7.13-7.24L346,164.06h14.91L334.08,122.4l2.29-1.48,27.81,43.14h14.4l-33.53-51.69Z" transform="translate(-111.25 -78.82)"/><rect class="cls-2" x="181.11" y="1.68" width="11.98" height="83.56"/></svg>