<svg id="Layer_1" data-name="Layer 1" xmlns="http://www.w3.org/2000/svg" width="160" height="17.7653" viewBox="0 0 160 17.7653"><defs><style>.cls-1{fill:#851619;}.cls-2{fill:#59585a;}</style></defs><title>USKOexpress_horiz_signature</title><path class="cls-1" d="M21.6507,24.3623a8.2683,8.2683,0,0,1-1.7475,5.6071A9.1092,9.1092,0,0,1,18.09,31.4509c-.2015.1327-.3692.24-.51.3279,4.5556-.4919,6.6024-3.0656,6.6024-7.4963v-9.84H21.6507Z" transform="translate(-7.853 -14.1019)"/><path class="cls-1" d="M34.0768,31.8611A5.657,5.657,0,0,0,38.756,28.599a3.6824,3.6824,0,0,0-.328-3.376,4.5522,4.5522,0,0,0-1.9056-1.51,19.1907,19.1907,0,0,0-2.7038-.92c-.6011-.1715-1.2226-.3488-1.8542-.5727a3.3637,3.3637,0,0,1-2.492-2.6354A3.0734,3.0734,0,0,1,30.6233,16.9a5.0809,5.0809,0,0,1,2.7475-.9194c2.347-.2143,5.0257.7564,5.8509,3.3869l2.3435.013c-.1991-2.4284-2.3239-5.2789-7.4655-5.2789-4.226,0-7.105,1.894-7.105,5.1409,0,2.1616.7423,4.6238,6.4549,5.6851,2.9.5357,3.2346,1.1032,3.35,1.6532.1679.8-.411,1.4575-2.1971,1.4575-2.0149,0-2.8286-1.0123-2.8709-1.7838h-2.258a4.3649,4.3649,0,0,0,2.3949,2.8892,6.6344,6.6344,0,0,0,4.583.3335s-.798.6566-.7538.65c.4895-.0746-.9562.1149-1.4.1149a5.7028,5.7028,0,0,1-2.6878-.6062,4.8679,4.8679,0,0,1-2.705-3.3813H26.6993c.1749,2.5925,2.3772,5.479,7.3234,5.6063Z" transform="translate(-7.853 -14.1019)"/><path class="cls-1" d="M16.2625,31.8622c.033-.0012.0887-.0451.1175-.06.0709-.036.1422-.0712.2131-.1072.3424-.1741.6716-.3761.9952-.5826.3525-.2248.6978-.4619,1.0282-.7183a6.1387,6.1387,0,0,0,.8686-.7915,7.74,7.74,0,0,0,1.61-5.2406v-9.92H18.7515V24.305c0,2.6142-.9451,3.6066-2.7464,3.6066-1.7157,0-2.6122-.8988-2.6122-3.6066V14.4427H10.8435c.009,3.0365.0083,5.8642.0061,8.4686a13.3321,13.3321,0,0,0,.262,3.2454,4.7446,4.7446,0,0,0,1.0238,2.0225,4.2836,4.2836,0,0,0,2.18,1.1645,8.0159,8.0159,0,0,0,3.7193.0152l-.7555.696a9.0922,9.0922,0,0,1-1.1473.074A7.4921,7.4921,0,0,1,14.17,29.88a5.0146,5.0146,0,0,1-2.4473-1.3289,5.3,5.3,0,0,1-1.15-2.259,13.7455,13.7455,0,0,1-.2787-3.3813c.0022-2.6043.0028-5.4319-.0061-8.4681H7.853v9.8834c0,5.0929,2.721,7.5411,8.0222,7.5411C16.1178,31.8672,16.2624,31.8622,16.2625,31.8622Z" transform="translate(-7.853 -14.1019)"/><path class="cls-1" d="M72.9615,14.1156a10.2,10.2,0,0,1,3.6238,2.7194A8.0731,8.0731,0,0,1,78.614,21.47a8.5054,8.5054,0,0,1-1.804,6.7439,5.7181,5.7181,0,0,1-4.3484,1.8235q-.1,0-.2005-.0027a6.2432,6.2432,0,0,1-4.5935-2.1492,7.5971,7.5971,0,0,1,1.2651-10.9281,5.268,5.268,0,0,1,2.7607-.9746l.934.5965a4.6579,4.6579,0,0,0-3.3765.834,6.8654,6.8654,0,0,0-2.7375,4.7814,6.935,6.935,0,0,0,1.5733,5.3256,5.6188,5.6188,0,0,0,4.1894,1.9587A5.2249,5.2249,0,0,0,76.4,27.8384a7.9575,7.9575,0,0,0,1.6613-6.3053,7.49,7.49,0,0,0-1.9087-4.3488A10.8524,10.8524,0,0,0,71.6371,14.13c-5.412.3512-8.1533,4.37-8.1533,8.84,0,4.9858,3.098,8.8976,8.7,8.8976,6.107,0,9.0027-4.1254,9.0027-8.9218C81.1865,18.2874,78.226,14.37,72.9615,14.1156Zm2.7188,8.938c0,2.4172-.7741,4.7965-3.2419,4.7965-2.4014,0-3.4147-2.0815-3.4147-4.89,0-2.6354.9283-4.769,3.2835-4.769C74.7824,18.1916,75.68,20.2507,75.68,23.0536Z" transform="translate(-7.853 -14.1019)"/><path class="cls-1" d="M35.2769,20.7947c-2.4-.4631-3.002-1.0919-3.002-1.849,0-.77.4734-1.2084,1.8345-1.2084,1.9181,0,2.0224.8838,2.1971,1.6144l2.3267.0129c-.7966-2.2064-3.144-3.0182-5.212-2.83a4.56,4.56,0,0,0-2.4532.8019,2.54,2.54,0,0,0-.9431,2.1868A2.9047,2.9047,0,0,0,32.15,21.6966c.6152.2181,1.2282.3929,1.8209.5621a19.9431,19.9431,0,0,1,2.7794.9473,5.1179,5.1179,0,0,1,2.1406,1.71,4.2454,4.2454,0,0,1,.38,3.892,5.5988,5.5988,0,0,1-3.139,2.9441c4.0212-.55,5.8664-3.0016,5.8664-5.7578C41.9987,24.3521,41.1215,21.9058,35.2769,20.7947Z" transform="translate(-7.853 -14.1019)"/><path class="cls-1" d="M61.7144,14.4427H58.6387L50.1061,23.26l-.0074-.7916,7.7664-8.0257H55.1159c-2.41,2.7546-3.0731,3.3408-4.9688,5.578l.0091-5.578H47.6751V31.4366h2.4376V26.1678l1.4484-1.473,4.0335,6.7418h3.0328l-5.46-8.4712.4674-.3012,5.6539,8.7724h2.93l-6.82-10.5113Z" transform="translate(-7.853 -14.1019)"/><rect class="cls-1" x="36.8307" y="0.3408" width="2.4355" height="16.9939"/><path class="cls-2" d="M93.818,27v.9672H90.482v1.51h3.9615v.9846H89.19V24.6233h5.1546v.9836H90.482V27Z" transform="translate(-7.853 -14.1019)"/><path class="cls-2" d="M100.6977,24.6233H102.19L99.8714,27.442l2.36,3.0194h-1.6506L99.0374,28.31l-1.5763,2.1516H95.876l2.3853-3.0194-2.2762-2.8187h1.5763L99.1291,26.7Z" transform="translate(-7.853 -14.1019)"/><path class="cls-2" d="M106.95,24.6233a3.0051,3.0051,0,0,1,1.835.4749,1.6706,1.6706,0,0,1,.6091,1.3765,1.8853,1.8853,0,0,1-.4749,1.3341,2.7253,2.7253,0,0,1-2.0773.584H105.24v2.0686h-1.2925V24.6233Zm-1.71,2.8187h1.4509a1.9062,1.9062,0,0,0,.96-.167A.8421.8421,0,0,0,108.06,26.5a.78.78,0,0,0-.35-.6843,1.8463,1.8463,0,0,0-1.0011-.1921H105.24Z" transform="translate(-7.853 -14.1019)"/><path class="cls-2" d="M111.3767,24.6233h3.3119a2.9325,2.9325,0,0,1,1.8263.45,1.4451,1.4451,0,0,1,.4672,1.1516,1.3745,1.3745,0,0,1-.3919,1.0426,1.5642,1.5642,0,0,1-.7674.4083v.0251a1.3111,1.3111,0,0,1,.6757.3417,1.1782,1.1782,0,0,1,.3.8591l.0493.7346a1.281,1.281,0,0,0,.2423.8253h-1.3765a1.35,1.35,0,0,1-.225-.751l-.0251-.5415a1.0027,1.0027,0,0,0-.3-.8012,1.483,1.483,0,0,0-.8929-.2162h-1.6014v2.31h-1.2925Zm1.2925,2.6266h1.8186a1.8539,1.8539,0,0,0,.8263-.1834.7782.7782,0,0,0,.3668-.6921.73.73,0,0,0-.3426-.6671,1.8056,1.8056,0,0,0-.9586-.167h-1.71Z" transform="translate(-7.853 -14.1019)"/><path class="cls-2" d="M123.8106,27v.9672h-3.336v1.51h3.9615v.9846H119.182V24.6233h5.1547v.9836h-3.8621V27Z" transform="translate(-7.853 -14.1019)"/><path class="cls-2" d="M127.303,28.5849v.0328a.8808.8808,0,0,0,.4422.8263,2.445,2.445,0,0,0,1.1091.2249,2.5274,2.5274,0,0,0,1.0348-.1747.7236.7236,0,0,0,.4334-.668.63.63,0,0,0-.3755-.583,3.0928,3.0928,0,0,0-.9421-.2674l-.751-.1332a3.838,3.838,0,0,1-1.81-.5927,1.2347,1.2347,0,0,1-.3919-.9759,1.55,1.55,0,0,1,.7925-1.4094,3.5691,3.5691,0,0,1,1.86-.417,3.8259,3.8259,0,0,1,1.9016.3668,1.5135,1.5135,0,0,1,.8253,1.41H130.114a.75.75,0,0,0-.4508-.6844,2.2379,2.2379,0,0,0-.9923-.1747,1.98,1.98,0,0,0-.8756.1661.6718.6718,0,0,0-.4421.6177.5883.5883,0,0,0,.4508.55,5.7049,5.7049,0,0,0,1.142.25l.6593.109a3.4846,3.4846,0,0,1,1.4923.5,1.4041,1.4041,0,0,1,.5512,1.1931,1.6612,1.6612,0,0,1-.7925,1.5174,3.6719,3.6719,0,0,1-1.8428.35,4.92,4.92,0,0,1-2.0358-.3,1.72,1.72,0,0,1-1.0174-1.71v-.0251Z" transform="translate(-7.853 -14.1019)"/><path class="cls-2" d="M134.7493,28.5849v.0328a.8809.8809,0,0,0,.4421.8263,2.4452,2.4452,0,0,0,1.1091.2249,2.53,2.53,0,0,0,1.0348-.1747.7235.7235,0,0,0,.4334-.668.63.63,0,0,0-.3755-.583,3.0928,3.0928,0,0,0-.9421-.2674l-.751-.1332a3.8337,3.8337,0,0,1-1.81-.5927,1.2347,1.2347,0,0,1-.3919-.9759,1.5486,1.5486,0,0,1,.7925-1.4094,3.5666,3.5666,0,0,1,1.86-.417,3.8256,3.8256,0,0,1,1.9016.3668,1.5135,1.5135,0,0,1,.8254,1.41H137.56a.75.75,0,0,0-.4508-.6844,2.24,2.24,0,0,0-.9923-.1747,1.9769,1.9769,0,0,0-.8755.1661.6718.6718,0,0,0-.4421.6177.5875.5875,0,0,0,.45.55,5.7316,5.7316,0,0,0,1.1429.25l.6593.109a3.4846,3.4846,0,0,1,1.4924.5,1.4041,1.4041,0,0,1,.5512,1.1931,1.6614,1.6614,0,0,1-.7925,1.5174,3.6738,3.6738,0,0,1-1.8438.35,4.9148,4.9148,0,0,1-2.0348-.3,1.72,1.72,0,0,1-1.0174-1.71v-.0251Z" transform="translate(-7.853 -14.1019)"/><circle class="cls-1" cx="136.7647" cy="13.4863" r="1.4296"/><path class="cls-2" d="M151.1873,24.6233v5.8381h-1.2935V24.6233Z" transform="translate(-7.853 -14.1019)"/><path class="cls-2" d="M159.4309,30.4614h-1.2848l-3.2444-4.2289v4.2289h-1.2935V24.6233h1.2935l3.2357,4.228v-4.228h1.2935Z" transform="translate(-7.853 -14.1019)"/><path class="cls-2" d="M167.853,28.4594a2.1925,2.1925,0,0,1-.6342,1.418,3.2051,3.2051,0,0,1-2.4267.7587,3.2393,3.2393,0,0,1-2.4268-.7838,3.1072,3.1072,0,0,1-.8427-2.2848,3.0782,3.0782,0,0,1,.8254-2.2357,3.3277,3.3277,0,0,1,2.4692-.8755,3.7547,3.7547,0,0,1,2.16.55,1.9359,1.9359,0,0,1,.8253,1.51h-1.334a1.047,1.047,0,0,0-.4836-.809,1.9229,1.9229,0,0,0-1.0927-.2673,1.86,1.86,0,0,0-1.4518.5338,2.2044,2.2044,0,0,0-.5415,1.5763,2.2494,2.2494,0,0,0,.5579,1.6188,1.9185,1.9185,0,0,0,1.418.4836,1.8571,1.8571,0,0,0,1.1844-.3253,1.2264,1.2264,0,0,0,.4595-.8678Z" transform="translate(-7.853 -14.1019)"/></svg>