<svg id="Layer_1" data-name="Layer 1" xmlns="http://www.w3.org/2000/svg" viewBox="0 0 73.18 78.3"><defs><style>.cls-1{fill:#fff;}</style></defs><title>message</title><path class="cls-1" d="M85.13,78.07c-.87,2.05-6.46,1.45-8.53,1.45H21.52c-2.07,0-7.65.6-8.53-1.45-1.62-3.83.83-9.21,3.83-11.59a23.14,23.14,0,0,0,2.38-1.91,9.79,9.79,0,0,0,2.12-6.45s.27-9.32.27-15.92c0-13,9.73-24.68,26.73-24.68H49.8c17,0,26.74,11.68,26.74,24.68,0,6.6.26,15.92.26,15.92a9.79,9.79,0,0,0,2.12,6.45,22.23,22.23,0,0,0,2.39,1.91C84.31,68.86,86.76,74.24,85.13,78.07Z" transform="translate(-12.47 -17.52)"/><path class="cls-1" d="M59.5,84c0,5.8-4.52,11.8-10.32,11.8h-.24c-5.8,0-10.32-6-10.32-11.8Z" transform="translate(-12.47 -17.52)"/></svg>