<?xml version="1.0" encoding="utf-8"?>
<!-- Generator: Adobe Illustrator 23.0.3, SVG Export Plug-In . SVG Version: 6.00 Build 0)  -->
<svg version="1.1" id="Layer_1" xmlns="http://www.w3.org/2000/svg" xmlns:xlink="http://www.w3.org/1999/xlink" x="0px" y="0px"
	 viewBox="0 0 29.9 29.9" style="enable-background:new 0 0 29.9 29.9;" xml:space="preserve">
<style type="text/css">
	.st0{clip-path:url(#SVGID_2_);}
	.st1{fill:#FFFFFF;}
</style>
<title>profile</title>
<g>
	<defs>
		<rect id="SVGID_1_" width="29.8" height="29.9"/>
	</defs>
	<clipPath id="SVGID_2_">
		<use xlink:href="#SVGID_1_"  style="overflow:visible;"/>
	</clipPath>
	<g class="st0">
		<path class="st1" d="M14.9,0C6.7,0,0,6.7,0,14.9s6.7,14.9,14.9,14.9s14.9-6.7,14.9-14.9l0,0C29.8,6.7,23.2,0,14.9,0z M14.3,6.6
			c2.1,0,3.9,1.7,3.9,3.9c0,2.1-1.7,3.9-3.9,3.9l0,0c-2.1,0-3.9-1.7-3.9-3.9C10.5,8.3,12.2,6.6,14.3,6.6z M22.1,22.1H6.6v-1.9
			c0-2.1,3.5-3.9,7.8-3.9s7.8,1.8,7.8,3.9V22.1z"/>
	</g>
</g>
</svg>
