<?xml version="1.0" encoding="utf-8"?>
<!-- Generator: Adobe Illustrator 23.0.3, SVG Export Plug-In . SVG Version: 6.00 Build 0)  -->
<svg version="1.1" id="Layer_1" xmlns="http://www.w3.org/2000/svg" xmlns:xlink="http://www.w3.org/1999/xlink" x="0px" y="0px"
	 viewBox="0 0 20 28" style="enable-background:new 0 0 20 28;" xml:space="preserve">
<style type="text/css">
	.st0{fill:#FFFFFF;}
</style>
<title>safety</title>
<path class="st0" d="M10.1,28C8.8,28,0.5,20,0,14.8V5.1c0-0.3,0.1-0.6,0.3-0.7c0.2-0.2,6.5-2.1,8.5-3.8l0.5-0.4
	c0.4-0.3,0.9-0.3,1.2,0l0.5,0.4c2,1.7,8.3,3.6,8.5,3.8C19.9,4.6,20,4.8,20,5.1v9.6C19.6,20.1,11,28,10.1,28z M2,6.2v8.5
	c0.3,2.9,3.3,7,8.1,11c2.7-2.2,7.5-6.7,7.9-11.1V6.2c0,0-5.8-2.1-8-3.9C7.8,4.1,2,6.2,2,6.2z"/>
<path class="st0" d="M16,8.7v5.9c-0.3,2.2-5.5,8.1-5.9,8.1c-0.4,0-5.8-6.2-6.1-8.1c0,0,0-0.1,0-0.1V8.7c0-0.5,0.3-0.9,0.7-1
	C6.4,7.1,8,6.3,9.4,5.2c0.3-0.3,0.8-0.3,1.2,0c1.4,1.1,3,1.9,4.7,2.5C15.7,7.8,16,8.2,16,8.7z"/>
</svg>
