<svg id="Layer_1" data-name="Layer 1" xmlns="http://www.w3.org/2000/svg" viewBox="0 0 98.8 91.12"><defs><style>.cls-1{stroke:#ce9999;stroke-miterlimit:10;stroke-width:8px;}</style></defs><title>upload</title><path class="cls-1" d="M18.24,41.82" transform="translate(-11.24 -16.94)"/><path d="M101.22,108.06H20.06c-4.86,0-8.82-3.59-8.82-8V60a5,5,0,0,1,10,0V98.06H100V60a5,5,0,0,1,10,0v40.11C110,104.47,106.08,108.06,101.22,108.06Z" transform="translate(-11.24 -16.94)"/><path d="M60.25,83.26a4.12,4.12,0,0,1-3.61-4.15V24.26a4.12,4.12,0,0,1,3.61-4.15,4,4,0,0,1,4.4,4V79.28A4,4,0,0,1,60.25,83.26Z" transform="translate(-11.24 -16.94)"/><path d="M33.83,50.41h0a3.61,3.61,0,0,0,5.1-.19L60.64,26.86,82.36,50.22a3.6,3.6,0,0,0,5.09.19h0a3.59,3.59,0,0,0,.18-5.09l-26-27.93a1.39,1.39,0,0,0-2,0l-26,27.93A3.6,3.6,0,0,0,33.83,50.41Z" transform="translate(-11.24 -16.94)"/></svg>